<svg width="22" height="22" viewBox="0 0 22 22" fill="none" xmlns="http://www.w3.org/2000/svg">
<path d="M7.49341 3.56127C8.7037 2.7344 10.1707 2.21089 11.7238 2.05158C13.2769 1.89228 14.8524 2.10373 16.267 2.66136C17.6817 3.21899 18.8774 4.09988 19.7152 5.20164C20.553 6.3034 20.9985 7.58077 20.9998 8.88524C21.0242 13.0424 19.0732 17.0386 15.5732 20" stroke="#4F4F4F" stroke-linecap="round" stroke-linejoin="round"/>
<path d="M2 10.975C2.32505 10.975 2.64689 10.9214 2.94702 10.8174C3.24716 10.7133 3.51967 10.5609 3.74889 10.3688C3.97811 10.1767 4.15953 9.94867 4.2827 9.69791C4.40587 9.44715 4.46837 9.17857 4.46662 8.90761C4.46673 8.09611 4.63824 7.29097 4.97327 6.52905" stroke="#4F4F4F" stroke-linecap="round" stroke-linejoin="round"/>
<path d="M12.8266 17.3657C11.6667 18.3765 10.3154 19.2213 8.82666 19.8665" stroke="#4F4F4F" stroke-linecap="round" stroke-linejoin="round"/>
<path d="M2 14.3982C3.76807 14.3982 5.46373 13.8127 6.71395 12.7705C7.96417 11.7283 8.66653 10.3147 8.66653 8.84084C8.66653 7.92702 9.102 7.05062 9.87713 6.40445C10.6523 5.75828 11.7036 5.39526 12.7998 5.39526C13.896 5.39526 14.9473 5.75828 15.7224 6.40445C16.4976 7.05062 16.933 7.92702 16.933 8.84084C16.9215 10.7404 16.3831 12.612 15.3597 14.3093" stroke="#4F4F4F" stroke-linecap="round" stroke-linejoin="round"/>
<path d="M3.40039 17.7548C5.99238 17.4827 8.37442 16.427 10.0947 14.788C11.8151 13.1491 12.754 11.0408 12.7335 8.86304" stroke="#4F4F4F" stroke-linecap="round" stroke-linejoin="round"/>
</svg>
