<svg width="22" height="22" viewBox="0 0 22 22" fill="none" xmlns="http://www.w3.org/2000/svg">
<path d="M10.0509 9.74148C11.8295 9.74148 13.2712 8.23235 13.2712 6.37074C13.2712 4.50913 11.8295 3 10.0509 3C8.27236 3 6.83057 4.50913 6.83057 6.37074C6.83057 8.23235 8.27236 9.74148 10.0509 9.74148Z" stroke="#EB5757" stroke-linecap="round" stroke-linejoin="round"/>
<path d="M2 18.9999V15.2808C2.01604 14.71 2.23914 14.1669 2.62396 13.762C3.00878 13.3571 3.52645 13.1208 4.07175 13.1011H16.0192C16.5664 13.118 17.0867 13.3531 17.4738 13.7583C17.8609 14.1634 18.0855 14.7081 18.1017 15.2808V18.9999" stroke="#EB5757" stroke-linecap="round" stroke-linejoin="round"/>
<path d="M15.343 3.56177C16.0548 3.56177 16.7373 3.85771 17.2406 4.38449C17.7439 4.91127 18.0266 5.62574 18.0266 6.37072C18.0266 7.1157 17.7439 7.83016 17.2406 8.35694C16.7373 8.88372 16.0548 9.17967 15.343 9.17967" stroke="#4F4F4F" stroke-linecap="round" stroke-linejoin="round"/>
<path d="M18.4238 11H19.025C19.5479 11.003 20.0487 11.2217 20.4185 11.6088C20.7883 11.9959 20.9973 12.52 21.0001 13.0674V16.6179" stroke="#4F4F4F" stroke-linecap="round" stroke-linejoin="round"/>
</svg>
