<svg width="74" height="74" viewBox="0 0 74 74" fill="none" xmlns="http://www.w3.org/2000/svg">
<rect x="1" y="1" width="72" height="72" stroke="#FCF3E4" stroke-width="2"/>
<path d="M42.1743 26.8942C42.1743 24.8041 40.9146 22.9117 38.9771 22.1152C37.0452 21.3187 34.8195 21.7593 33.3395 23.2393C31.8595 24.7193 31.4189 26.945 32.2211 28.8769C33.0175 30.8145 34.9099 32.0742 37 32.0742C39.8527 32.0685 42.1687 29.7525 42.1743 26.8998V26.8942ZM34.0852 26.8942C34.0852 25.7135 34.7969 24.6516 35.8815 24.1997C36.9717 23.7477 38.2258 23.9963 39.0562 24.8323C39.8922 25.6684 40.1407 26.9224 39.6888 28.007C39.2369 29.0972 38.1749 29.809 36.9943 29.809C35.3901 29.8033 34.0852 28.4984 34.0795 26.8942H34.0852Z" fill="#9a4a94"/>
<path d="M48.9078 35.7289C51.0035 35.7459 52.9071 34.4975 53.7206 32.5656C54.5397 30.6337 54.1047 28.4024 52.6303 26.9111C51.156 25.4198 48.9247 24.9735 46.9871 25.77C45.0496 26.5665 43.7842 28.4589 43.7842 30.5546C43.7842 33.396 46.072 35.7063 48.9134 35.7289H48.9078ZM48.9078 27.6398C50.094 27.6228 51.1673 28.3176 51.6305 29.4079C52.0937 30.4981 51.8565 31.7578 51.0261 32.5995C50.1957 33.4411 48.936 33.701 47.8458 33.2547C46.7499 32.8085 46.0381 31.7408 46.0381 30.5602C46.0438 28.9672 47.3204 27.6737 48.9078 27.6454V27.6398Z" fill="#9a4a94"/>
<path d="M30.2214 30.5546C30.2214 28.4589 28.9617 26.5722 27.0241 25.7757C25.0922 24.9736 22.8666 25.4198 21.3866 26.8998C19.9066 28.3798 19.466 30.6055 20.2681 32.5374C21.0702 34.4693 22.957 35.7346 25.047 35.7346C27.9054 35.7346 30.2214 33.4186 30.2214 30.5603V30.5546ZM22.1322 30.5546C22.1322 29.374 22.844 28.312 23.9342 27.8601C25.0244 27.4082 26.2728 27.6568 27.1089 28.4928C27.9449 29.3288 28.1935 30.5829 27.7415 31.6675C27.2896 32.7577 26.2277 33.4694 25.047 33.4694C23.4597 33.4412 22.1831 32.142 22.1774 30.5546H22.1322Z" fill="#9a4a94"/>
<path d="M48.7383 37.514C47.3882 37.5423 46.0664 37.8812 44.8745 38.5082C44.4565 37.74 43.9255 37.0395 43.3041 36.4294C41.3157 34.458 38.5139 33.5372 35.7403 33.9496C32.9667 34.3563 30.5547 36.0453 29.2159 38.5082C27.8884 37.8303 26.414 37.4858 24.9227 37.514C22.5333 37.6044 20.2794 38.6155 18.6299 40.3497C16.9805 42.0783 16.0766 44.383 16.0992 46.7668V51.0939C16.0992 51.7209 16.602 52.2236 17.229 52.2236C17.856 52.2236 18.3588 51.7209 18.3588 51.0939V46.7668C18.3079 43.0329 21.234 39.9317 24.9679 39.7736C26.1542 39.7453 27.3235 40.0334 28.3572 40.6096C28.1369 41.423 28.024 42.2647 28.0183 43.1064V49.1845C28.0183 50.8623 29.3797 52.2236 31.0574 52.2236C32.7351 52.2236 34.0965 50.8623 34.0965 49.1845V46.507C34.0852 44.0836 33.0966 41.7676 31.3511 40.0899L31.0348 39.7961C31.9951 37.8755 33.8197 36.5368 35.938 36.2035C38.0563 35.8702 40.2085 36.5763 41.7111 38.1015C42.2421 38.6099 42.6771 39.2087 43.0104 39.8639C41.0333 41.6377 39.9092 44.1684 39.9148 46.8233V49.241C39.9148 50.9187 41.2762 52.2801 42.9539 52.2801C44.6316 52.2801 45.993 50.9187 45.993 49.241V42.8465C45.9986 42.0839 45.9026 41.3213 45.7105 40.587C46.6482 40.056 47.7046 39.7623 48.7835 39.7397C50.5911 39.7114 52.3366 40.4062 53.6302 41.6716C54.9238 42.9313 55.6469 44.6655 55.6412 46.4731V51.0939C55.6412 51.7209 56.144 52.2236 56.771 52.2236C57.398 52.2236 57.9008 51.7209 57.9008 51.0939V46.507C57.9008 44.0893 56.9348 41.7732 55.2063 40.0729C53.4834 38.3726 51.156 37.4349 48.7383 37.4688V37.514ZM31.7917 46.5522V49.2297C31.7917 49.659 31.4415 50.0093 31.0122 50.0093C30.5829 50.0093 30.2327 49.659 30.2327 49.2297V42.259C31.2438 43.4453 31.8087 44.9479 31.8256 46.507L31.7917 46.5522ZM43.7786 49.1845C43.7786 49.6139 43.4284 49.9641 42.9991 49.9641C42.5698 49.9641 42.2195 49.6139 42.2195 49.1845V46.7668C42.2195 45.1626 42.7618 43.5978 43.756 42.3381V42.8465L43.7786 49.1845Z" fill="#FCF3E4"/>
</svg>
