<svg width="74" height="74" viewBox="0 0 74 74" fill="none" xmlns="http://www.w3.org/2000/svg">
<rect x="1" y="1" width="72" height="72" stroke="white" stroke-width="2"/>
<path d="M36.9661 23.6178C36.3448 23.6178 35.8364 23.1094 35.8364 22.4881V18.0763C35.8364 17.4549 36.3448 16.9465 36.9661 16.9465C37.5875 16.9465 38.0959 17.4549 38.0959 18.0763V22.4881C38.0959 23.1094 37.5875 23.6178 36.9661 23.6178Z" fill="white"/>
<path d="M36.9661 57.0534C36.3448 57.0534 35.8364 56.545 35.8364 55.9236V33.7858C35.8364 33.1644 36.3448 32.656 36.9661 32.656C37.5875 32.656 38.0959 33.1644 38.0959 33.7858V55.9236C38.0959 56.545 37.5875 57.0534 36.9661 57.0534Z" fill="white"/>
<path d="M37.0847 34.3506C33.5034 34.3506 30.5886 31.4358 30.5886 27.8545C30.5886 24.2731 33.5034 21.3583 37.0847 21.3583C40.6661 21.3583 43.5809 24.2731 43.5809 27.8545C43.5809 31.4358 40.6661 34.3506 37.0847 34.3506ZM37.0847 23.6178C34.7461 23.6178 32.8481 25.5158 32.8481 27.8545C32.8481 30.1931 34.7461 32.0911 37.0847 32.0911C39.4234 32.0911 41.3214 30.1931 41.3214 27.8545C41.3214 25.5158 39.4234 23.6178 37.0847 23.6178Z" fill="#F77C47"/>
<path d="M51.0883 38.8697C50.4669 38.8697 49.9585 38.3613 49.9585 37.74V18.0763C49.9585 17.4549 50.4669 16.9465 51.0883 16.9465C51.7096 16.9465 52.218 17.4549 52.218 18.0763V37.74C52.218 38.3613 51.7096 38.8697 51.0883 38.8697Z" fill="white"/>
<path d="M51.0883 57.0534C50.4669 57.0534 49.9585 56.545 49.9585 55.9236V49.6025C49.9585 48.9812 50.4669 48.4728 51.0883 48.4728C51.7096 48.4728 52.218 48.9812 52.218 49.6025V55.9236C52.218 56.545 51.7096 57.0534 51.0883 57.0534Z" fill="white"/>
<path d="M51.2069 50.7324C47.6255 50.7324 44.7107 47.8175 44.7107 44.2362C44.7107 40.6548 47.6255 37.74 51.2069 37.74C54.7883 37.74 57.7031 40.6548 57.7031 44.2362C57.7031 47.8175 54.7883 50.7324 51.2069 50.7324ZM51.2069 39.9995C48.8683 39.9995 46.9702 41.8975 46.9702 44.2362C46.9702 46.5748 48.8683 48.4728 51.2069 48.4728C53.5455 48.4728 55.4435 46.5748 55.4435 44.2362C55.4435 41.8975 53.5455 39.9995 51.2069 39.9995Z" fill="#F77C47"/>
<path d="M22.844 34.9155C22.2226 34.9155 21.7142 34.4071 21.7142 33.7858V18.0763C21.7142 17.4549 22.2226 16.9465 22.844 16.9465C23.4654 16.9465 23.9738 17.4549 23.9738 18.0763V33.7858C23.9738 34.4071 23.4654 34.9155 22.844 34.9155Z" fill="white"/>
<path d="M22.844 57.0534C22.2226 57.0534 21.7142 56.545 21.7142 55.9237V45.0835C21.7142 44.4621 22.2226 43.9537 22.844 43.9537C23.4654 43.9537 23.9738 44.4621 23.9738 45.0835V55.9237C23.9738 56.545 23.4654 57.0534 22.844 57.0534Z" fill="white"/>
<path d="M22.9626 45.6484C19.3812 45.6484 16.4664 42.7336 16.4664 39.1522C16.4664 35.5708 19.3812 32.656 22.9626 32.656C26.544 32.656 29.4588 35.5708 29.4588 39.1522C29.4588 42.7336 26.544 45.6484 22.9626 45.6484ZM22.9626 34.9155C20.624 34.9155 18.726 36.8136 18.726 39.1522C18.726 41.4908 20.624 43.3888 22.9626 43.3888C25.3012 43.3888 27.1993 41.4908 27.1993 39.1522C27.1993 36.8136 25.3012 34.9155 22.9626 34.9155Z" fill="#F77C47"/>
</svg>
