<svg width="74" height="74" viewBox="0 0 74 74" fill="none" xmlns="http://www.w3.org/2000/svg">
<g clip-path="url(#clip0_2210_2049)">
<path d="M48.3825 31.5658H44.626C44.2136 31.5658 43.8747 31.9047 43.8747 32.3171C43.8747 32.7295 44.2136 33.0684 44.626 33.0684H48.3825C48.7948 33.0684 49.1338 32.7295 49.1338 32.3171C49.1338 31.9047 48.7948 31.5658 48.3825 31.5658Z" fill="#FCF3E4"/>
<path d="M29.6113 31.5658H25.8548C25.4424 31.5658 25.1035 31.9047 25.1035 32.3171C25.1035 32.7295 25.4424 33.0684 25.8548 33.0684H29.6113C30.0237 33.0684 30.3626 32.7295 30.3626 32.3171C30.3626 31.9047 30.0237 31.5658 29.6113 31.5658Z" fill="#FCF3E4"/>
<path d="M29.6113 20.3076H25.8548C25.4424 20.3076 25.1035 20.6465 25.1035 21.0589C25.1035 21.4713 25.4424 21.8102 25.8548 21.8102H29.6113C30.0237 21.8102 30.3626 21.4713 30.3626 21.0589C30.3626 20.6465 30.0237 20.3076 29.6113 20.3076Z" fill="#FCF3E4"/>
<path d="M50.2579 27.8149H47.2583V22.9343C47.2583 21.4826 46.0777 20.3076 44.6316 20.3076H34.1191V19.1835C34.1191 17.7317 32.9385 16.5568 31.4924 16.5568H23.985C22.5333 16.5568 21.3583 17.7374 21.3583 19.1835V22.94C21.3583 24.3917 22.5389 25.5667 23.985 25.5667H26.9902V27.8149H23.985C22.5333 27.8149 21.3583 28.9955 21.3583 30.4416V34.1981C21.3583 35.6499 22.5389 36.8249 23.985 36.8249H31.4924C32.9441 36.8249 34.1191 35.6442 34.1191 34.1981V33.074H36.373L36.4408 41.9088H37.9829L37.8756 33.074H40.1238V34.1981C40.1238 35.6499 41.3044 36.8249 42.7505 36.8249H50.2579C51.7096 36.8249 52.8846 35.6442 52.8846 34.1981V30.4416C52.8846 28.9899 51.704 27.8149 50.2579 27.8149ZM32.6108 30.4416V34.1981C32.6108 34.8195 32.1081 35.3223 31.4867 35.3223H23.9794C23.358 35.3223 22.8553 34.8195 22.8553 34.1981V30.4416C22.8553 29.8203 23.358 29.3175 23.9794 29.3175H31.4867C32.1081 29.3175 32.6108 29.8203 32.6108 30.4416ZM32.6108 22.9343C32.6108 23.5557 32.1081 24.0584 31.4867 24.0584H23.9794C23.358 24.0584 22.8553 23.5557 22.8553 22.9343V19.1778C22.8553 18.5565 23.358 18.0537 23.9794 18.0537H31.4867C32.1081 18.0537 32.6108 18.5565 32.6108 19.1778V22.9343ZM31.4867 27.8149H28.4815V25.5667H31.4867C32.9385 25.5667 34.1134 24.3861 34.1134 22.94V21.8158H44.626C45.2473 21.8158 45.7501 22.3186 45.7501 22.94V27.8206H42.7449C41.2931 27.8206 40.1182 29.0012 40.1182 30.4473V31.5714H34.1134V30.4473C34.1134 28.9955 32.9328 27.8206 31.4867 27.8206V27.8149ZM41.6264 30.4416C41.6264 29.8203 42.1292 29.3175 42.7505 29.3175H50.2579C50.8792 29.3175 51.382 29.8203 51.382 30.4416V34.1981C51.382 34.8195 50.8792 35.3223 50.2579 35.3223H42.7505C42.1292 35.3223 41.6264 34.8195 41.6264 34.1981V30.4416Z" fill="#9a4a94"/>
<path d="M57.7765 40.5475C56.144 38.9884 53.6415 38.7059 51.6927 39.8583L44.8915 43.8972L44.7841 43.7052C44.1289 42.5133 42.8861 41.7733 41.5304 41.7733H34.8082C34.2151 41.7733 33.622 41.6208 33.1023 41.3214L28.8035 38.8811C27.3744 38.0733 25.6289 37.9998 24.1432 38.6947L23.2902 39.0901L23.2337 38.8359C23.036 37.9885 22.296 37.4011 21.4318 37.4011H17.3815C16.3591 37.4011 15.5287 38.2314 15.5287 39.2539V55.2006C15.5287 56.223 16.3591 57.0534 17.3815 57.0534H21.4318C22.4542 57.0534 23.2846 56.223 23.2846 55.2006V54.7543L25.3069 53.8505L35.0794 57.093C35.8194 57.3359 36.5876 57.4545 37.3615 57.4545C38.9658 57.4545 40.5701 56.9405 41.8524 55.9632L57.5844 43.982C58.1098 43.5809 58.4318 42.9708 58.4713 42.3099C58.5052 41.649 58.251 41.0107 57.7765 40.5531V40.5475ZM56.7766 42.8917L56.5959 42.6771L40.8638 54.6583C39.3895 55.7824 37.3728 56.1214 35.6047 55.5395L25.5328 52.1954C25.4481 52.1672 25.3577 52.1502 25.273 52.1502C25.16 52.1502 25.047 52.1728 24.934 52.2237L23.2959 52.9524V40.9034L24.8493 40.1803C25.8605 39.7114 27.0411 39.7566 28.007 40.3046L32.3058 42.7392C33.0684 43.1742 33.9327 43.4058 34.8195 43.4058H41.5473C42.6828 43.4058 43.6092 44.3322 43.6092 45.4676V46.4336C43.6092 46.62 43.4566 46.7782 43.2646 46.7782H33.6276C33.1757 46.7782 32.8085 47.1453 32.8085 47.5972C32.8085 48.0492 33.1757 48.4163 33.6276 48.4163H43.2646C44.3548 48.4163 45.2473 47.5295 45.2473 46.4336V45.6032L52.54 41.2649C53.8562 40.4853 55.5452 40.6717 56.6524 41.7224C56.7879 41.858 56.8614 42.0331 56.8444 42.2252C56.8331 42.389 56.7484 42.5585 56.6072 42.6658L56.7823 42.8861L56.7766 42.8917ZM21.6464 39.0392V55.4153H17.1669V39.0392H21.6464Z" fill="#FCF3E4"/>
<path d="M74 74H0V0H74V74ZM2.25954 71.7405H71.7405V2.25954H2.25954V71.7405Z" fill="#FCF3E4"/>
</g>
<defs>
<clipPath id="clip0_2210_2049">
<rect width="74" height="74" fill="#FCF3E4"/>
</clipPath>
</defs>
</svg>
