<?xml version="1.0" standalone="no"?>
<!DOCTYPE svg PUBLIC "-//W3C//DTD SVG 20010904//EN"
 "http://www.w3.org/TR/2001/REC-SVG-20010904/DTD/svg10.dtd">
<svg version="1.0" xmlns="http://www.w3.org/2000/svg"
 width="1418.000000pt" height="1418.000000pt" viewBox="0 0 1418.000000 1418.000000"
 preserveAspectRatio="xMidYMid meet">
<metadata>
Created by potrace 1.14, written by Peter Selinger 2001-2017
</metadata>
<g transform="translate(0.000000,1418.000000) scale(0.100000,-0.100000)"
fill="#000000" stroke="none">
<path d="M6665 14169 c-1580 -99 -3056 -705 -4245 -1743 -166 -144 -481 -457
-630 -626 -843 -951 -1405 -2079 -1654 -3320 -268 -1338 -138 -2755 371 -4025
644 -1607 1865 -2931 3418 -3707 831 -416 1746 -664 2688 -729 264 -18 953 -7
1197 20 1394 152 2640 663 3710 1522 1460 1170 2396 2861 2609 4714 37 317 43
473 38 921 -5 446 -16 596 -66 939 -370 2495 -2052 4616 -4402 5549 -701 278
-1430 438 -2209 486 -189 11 -633 11 -825 -1z m3515 -3854 l0 -715 -1925 0
-1925 0 0 -1455 c0 -1236 2 -1454 14 -1449 7 3 677 288 1487 633 l1474 628 6
-26 c8 -30 45 -1509 38 -1514 -2 -2 -682 -296 -1511 -653 l-1508 -649 0 -1337
0 -1338 -755 0 -755 0 0 4295 0 4295 2680 0 2680 0 0 -715z"/>
</g>
</svg>
