<svg width="27" height="19" viewBox="0 0 27 19" fill="none" xmlns="http://www.w3.org/2000/svg">
<path d="M21 2.5C21 1.67157 20.3284 1 19.5 1H2.5C1.67157 1 1 1.67157 1 2.5V15.5C1 16.3284 1.67157 17 2.5 17H19.5" stroke="#4F4F4F" stroke-linejoin="round"/>
<path d="M1 2.5C1 2.10218 1.15804 1.72064 1.43934 1.43934C1.72064 1.15804 2.10218 1 2.5 1H19.5C19.8978 1 20.2794 1.15804 20.5607 1.43934C20.842 1.72064 21 2.10218 21 2.5V7H1V2.5Z" fill="#55B1AB" stroke="#4F4F4F"/>
<path d="M3 4C3 3.44772 3.44772 3 4 3C4.55228 3 5 3.44772 5 4C5 4.55228 4.55228 5 4 5C3.44772 5 3 4.55228 3 4Z" fill="#4F4F4F"/>
<path d="M6 4C6 3.44772 6.44772 3 7 3C7.55228 3 8 3.44772 8 4C8 4.55228 7.55228 5 7 5C6.44772 5 6 4.55228 6 4Z" fill="#4F4F4F"/>
<path d="M25.3719 11.889H24.8886C24.7906 11.8774 24.6975 11.84 24.6188 11.7806C24.5401 11.7211 24.4786 11.6418 24.4407 11.5507C24.4028 11.4596 24.3899 11.3601 24.4032 11.2624C24.4165 11.1647 24.4555 11.0722 24.5164 10.9946L24.8497 10.6613C24.908 10.6035 24.9542 10.5347 24.9858 10.4589C25.0174 10.3831 25.0336 10.3018 25.0336 10.2197C25.0336 10.1376 25.0174 10.0563 24.9858 9.98046C24.9542 9.90467 24.908 9.83587 24.8497 9.77803L24.2053 9.11142C24.1475 9.05314 24.0787 9.00688 24.0029 8.97531C23.9271 8.94375 23.8458 8.92749 23.7637 8.92749C23.6816 8.92749 23.6003 8.94375 23.5245 8.97531C23.4487 9.00688 23.3799 9.05314 23.322 9.11142L22.9887 9.44473C22.9138 9.50096 22.8258 9.53732 22.7331 9.55044C22.6403 9.56355 22.5457 9.55298 22.4581 9.51972C22.3705 9.48645 22.2928 9.43158 22.2321 9.36019C22.1714 9.2888 22.1297 9.20322 22.111 9.11142V8.62257C22.1111 8.53896 22.0943 8.4562 22.0616 8.37923C22.029 8.30226 21.9812 8.23265 21.921 8.17458C21.8609 8.11651 21.7896 8.07115 21.7116 8.04122C21.6335 8.0113 21.5502 7.99741 21.4666 8.0004H20.5334C20.4498 7.99741 20.3665 8.0113 20.2884 8.04122C20.2104 8.07115 20.1391 8.11651 20.079 8.17458C20.0188 8.23265 19.971 8.30226 19.9384 8.37923C19.9057 8.4562 19.8889 8.53896 19.889 8.62257V9.11142C19.8774 9.20938 19.84 9.30249 19.7806 9.3812C19.7211 9.45991 19.6418 9.52137 19.5507 9.55926C19.4596 9.59716 19.3601 9.61013 19.2624 9.59683C19.1647 9.58354 19.0722 9.54446 18.9946 9.48361L18.678 9.11142C18.6201 9.05314 18.5513 9.00688 18.4755 8.97531C18.3997 8.94375 18.3184 8.92749 18.2363 8.92749C18.1542 8.92749 18.0729 8.94375 17.9971 8.97531C17.9213 9.00688 17.8525 9.05314 17.7947 9.11142L17.1114 9.7947C17.0531 9.85253 17.0069 9.92133 16.9753 9.99713C16.9437 10.0729 16.9275 10.1542 16.9275 10.2363C16.9275 10.3184 16.9437 10.3997 16.9753 10.4755C17.0069 10.5513 17.0531 10.6201 17.1114 10.678L17.4447 11.0113C17.501 11.0862 17.5373 11.1742 17.5504 11.2669C17.5635 11.3597 17.553 11.4543 17.5197 11.5419C17.4865 11.6295 17.4316 11.7072 17.3602 11.7679C17.2888 11.8286 17.2032 11.8702 17.1114 11.889H16.6281C16.5441 11.8882 16.4607 11.9044 16.3831 11.9367C16.3054 11.969 16.2352 12.0167 16.1765 12.077C16.1178 12.1372 16.072 12.2087 16.0417 12.2871C16.0114 12.3656 15.9974 12.4493 16.0004 12.5334V13.4666C15.9974 13.5502 16.0113 13.6335 16.0412 13.7115C16.0712 13.7896 16.1165 13.8609 16.1746 13.921C16.2327 13.9812 16.3023 14.029 16.3792 14.0616C16.4562 14.0943 16.539 14.1111 16.6226 14.111H17.1114C17.2094 14.1226 17.3025 14.16 17.3812 14.2194C17.4599 14.2789 17.5214 14.3582 17.5593 14.4493C17.5972 14.5403 17.6101 14.6399 17.5968 14.7376C17.5835 14.8353 17.5445 14.9278 17.4836 15.0054L17.1503 15.3387C17.092 15.3965 17.0458 15.4653 17.0142 15.5411C16.9826 15.6169 16.9664 15.6982 16.9664 15.7803C16.9664 15.8624 16.9826 15.9437 17.0142 16.0195C17.0458 16.0953 17.092 16.1641 17.1503 16.222L17.7947 16.8886C17.8525 16.9469 17.9213 16.9931 17.9971 17.0247C18.0729 17.0562 18.1542 17.0725 18.2363 17.0725C18.3184 17.0725 18.3997 17.0562 18.4755 17.0247C18.5513 16.9931 18.6201 16.9469 18.678 16.8886L19.0113 16.5553C19.0862 16.499 19.1742 16.4627 19.2669 16.4496C19.3597 16.4364 19.4543 16.447 19.5419 16.4803C19.6295 16.5135 19.7072 16.5684 19.7679 16.6398C19.8286 16.7112 19.8702 16.7968 19.889 16.8886V17.3552C19.8859 17.4407 19.9004 17.5258 19.9317 17.6054C19.963 17.685 20.0103 17.7573 20.0708 17.8178C20.1313 17.8782 20.2035 17.9256 20.2831 17.9569C20.3627 17.9882 20.4479 18.0027 20.5334 17.9996H21.4666C21.5502 18.0026 21.6335 17.9887 21.7116 17.9588C21.7896 17.9288 21.8609 17.8835 21.921 17.8254C21.9812 17.7673 22.029 17.6977 22.0616 17.6208C22.0943 17.5438 22.1111 17.461 22.111 17.3774V16.8886C22.1226 16.7906 22.16 16.6975 22.2194 16.6188C22.2789 16.5401 22.3582 16.4786 22.4493 16.4407C22.5403 16.4028 22.6399 16.3899 22.7376 16.4032C22.8353 16.4165 22.9278 16.4555 23.0054 16.5164L23.3387 16.8497C23.3965 16.908 23.4653 16.9542 23.5411 16.9858C23.6169 17.0174 23.6982 17.0336 23.7803 17.0336C23.8624 17.0336 23.9437 17.0174 24.0195 16.9858C24.0953 16.9542 24.1641 16.908 24.222 16.8497L24.8886 16.2053C24.9469 16.1475 24.9931 16.0787 25.0247 16.0029C25.0562 15.9271 25.0725 15.8458 25.0725 15.7637C25.0725 15.6816 25.0562 15.6003 25.0247 15.5245C24.9931 15.4487 24.9469 15.3799 24.8886 15.322L24.5553 14.9887C24.499 14.9138 24.4627 14.8258 24.4496 14.7331C24.4364 14.6403 24.447 14.5457 24.4803 14.4581C24.5135 14.3705 24.5684 14.2928 24.6398 14.2321C24.7112 14.1714 24.7968 14.1297 24.8886 14.111H25.3608C25.4458 14.1134 25.5303 14.0982 25.6093 14.0666C25.6882 14.035 25.7598 13.9875 25.8197 13.9271C25.8795 13.8667 25.9264 13.7947 25.9573 13.7155C25.9883 13.6363 26.0027 13.5516 25.9996 13.4666V12.5334C26.0026 12.4493 25.9885 12.3656 25.9583 12.2871C25.928 12.2087 25.8822 12.1372 25.8235 12.077C25.7648 12.0167 25.6946 11.969 25.6169 11.9367C25.5393 11.9044 25.4559 11.8882 25.3719 11.889Z" stroke="#4F4F4F" stroke-linecap="round" stroke-linejoin="round"/>
<path d="M20.9999 14.2498C21.6902 14.2498 22.2498 13.6902 22.2498 12.9999C22.2498 12.3096 21.6902 11.75 20.9999 11.75C20.3096 11.75 19.75 12.3096 19.75 12.9999C19.75 13.6902 20.3096 14.2498 20.9999 14.2498Z" stroke="#4F4F4F" stroke-linecap="round" stroke-linejoin="round"/>
</svg>
