<svg width="22" height="22" viewBox="0 0 22 22" fill="none" xmlns="http://www.w3.org/2000/svg">
<g clip-path="url(#clip0_2304_2177)">
<path d="M6.07145 14.7683C6.62225 15.0132 7.21103 15.1356 7.81881 15.1356C9.35092 15.1356 10.7817 14.3109 11.5731 12.9772L13.8966 14.1498L14.2891 13.512L11.9023 12.3072C12.1049 11.7917 12.2062 11.2441 12.2062 10.6771C12.2062 9.83956 11.9783 9.02776 11.5415 8.31904L12.9279 7.10778L12.662 6.29598L11.1046 7.71986C10.2689 6.75987 9.07868 6.21223 7.82514 6.21223C6.96412 6.21223 6.13476 6.4635 5.41302 6.94671L4.08984 5.23291L3.52005 5.70968L4.83057 7.4106C3.94422 8.25461 3.43141 9.43366 3.43141 10.6771C3.43141 12.1976 4.17214 13.5893 5.41935 14.414L4.44438 16.2502L5.05848 16.6754L6.07145 14.7683ZM4.16581 10.6707C4.16581 8.62186 5.79921 6.9596 7.81248 6.9596C8.95839 6.9596 10.0093 7.48791 10.7058 8.41568V8.50588H10.7691C11.2186 9.13728 11.4528 9.88466 11.4528 10.6707C11.4528 11.6629 11.073 12.5907 10.3829 13.2929C9.69279 13.9952 8.78113 14.3818 7.80615 14.3818C5.79288 14.3818 4.15948 12.7195 4.15948 10.6707H4.16581Z" fill="#717171"/>
<path d="M3.7353 20C2.64003 20 1.74736 19.0915 1.74736 17.9769C1.74736 16.8623 2.64003 15.9539 3.7353 15.9539C4.83057 15.9539 5.72324 16.8623 5.72324 17.9769C5.72324 19.0915 4.83057 20 3.7353 20ZM3.7353 16.6561C3.0199 16.6561 2.43744 17.2489 2.43744 17.9769C2.43744 18.705 3.0199 19.2977 3.7353 19.2977C4.45071 19.2977 5.03316 18.705 5.03316 17.9769C5.03316 17.2489 4.45071 16.6561 3.7353 16.6561Z" fill="#717171"/>
<path d="M17.1887 19.1173C15.0868 19.1173 13.3775 17.3777 13.3775 15.2387C13.3775 13.0997 15.0868 11.3601 17.1887 11.3601C19.2906 11.3601 21 13.0997 21 15.2387C21 17.3777 19.2906 19.1173 17.1887 19.1173ZM17.1887 12.0624C15.473 12.0624 14.0739 13.4863 14.0739 15.2323C14.0739 16.9783 15.473 18.4022 17.1887 18.4022C18.9044 18.4022 20.3036 16.9783 20.3036 15.2323C20.3036 13.4863 18.9044 12.0624 17.1887 12.0624Z" fill="#ff9a02"/>
<path d="M2.52608 6.14785C1.13325 6.14785 0 4.99457 0 3.57714C0 2.15972 1.13325 1 2.52608 1C3.9189 1 5.05216 2.15327 5.05216 3.5707C5.05216 4.98813 3.9189 6.1414 2.52608 6.1414V6.14785ZM2.52608 1.80536C1.57009 1.80536 0.791378 2.59783 0.791378 3.5707C0.791378 4.54357 1.57009 5.33605 2.52608 5.33605C3.48206 5.33605 4.26078 4.54357 4.26078 3.5707C4.26078 2.59783 3.48206 1.80536 2.52608 1.80536Z" fill="#717171"/>
<path d="M14.1498 7.72629C13.0862 7.72629 12.2189 6.84362 12.2189 5.76122C12.2189 4.67881 13.0862 3.79614 14.1498 3.79614C15.2134 3.79614 16.0808 4.67881 16.0808 5.76122C16.0808 6.84362 15.2134 7.72629 14.1498 7.72629ZM14.1498 4.49841C13.4661 4.49841 12.9153 5.06539 12.9153 5.75477C12.9153 6.44416 13.4724 7.01113 14.1498 7.01113C14.8273 7.01113 15.3844 6.44416 15.3844 5.75477C15.3844 5.06539 14.8273 4.49841 14.1498 4.49841Z" fill="#717171"/>
</g>
<defs>
<clipPath id="clip0_2304_2177">
<rect width="21" height="19" fill="#ff9a02" transform="translate(0 1)"/>
</clipPath>
</defs>
</svg>
