<svg width="20" height="16" viewBox="0 0 20 16" fill="none" xmlns="http://www.w3.org/2000/svg">
<g clip-path="url(#clip0_2304_2152)">
<path d="M15.6196 9.12367C14.9749 9.13702 14.3393 9.29279 13.7723 9.58653C13.5711 9.23048 13.3196 8.90114 13.0224 8.6163C12.0714 7.69947 10.727 7.27221 9.40103 7.45913C8.07501 7.65051 6.91817 8.43827 6.27803 9.58208C5.64245 9.26609 4.93829 9.10586 4.22499 9.11922C3.08187 9.15927 2.00276 9.63104 1.21173 10.4366C0.420689 11.2466 -0.00912404 12.3192 2.09074e-05 13.4319V15.448C2.09074e-05 15.7373 0.242362 15.9732 0.539573 15.9732C0.836784 15.9732 1.07912 15.7373 1.07912 15.448V13.4319C1.05169 11.6917 2.45544 10.2497 4.24328 10.174C4.81026 10.1607 5.3681 10.2942 5.8665 10.5657C5.76134 10.944 5.70647 11.3356 5.70647 11.7273V14.5579C5.70647 15.3367 6.35576 15.9732 7.16051 15.9732C7.96527 15.9732 8.61456 15.3412 8.61456 14.5579V13.3117C8.61456 12.1857 8.13445 11.1042 7.30226 10.3253L7.15137 10.1874C7.60862 9.29279 8.48196 8.6697 9.49705 8.51393C10.5121 8.35816 11.5409 8.68751 12.2588 9.39961C12.5103 9.63549 12.7206 9.91588 12.8807 10.2185C11.9342 11.0463 11.3992 12.2258 11.3992 13.4586V14.5846C11.3992 15.3634 12.0485 15.9999 12.8532 15.9999C13.658 15.9999 14.3073 15.3679 14.3073 14.5846V11.6071C14.3073 11.2511 14.2661 10.8995 14.1701 10.5568C14.6182 10.3075 15.1258 10.174 15.6379 10.1607C16.5021 10.1473 17.3388 10.4722 17.9561 11.0597C18.5734 11.6472 18.9209 12.4527 18.9163 13.2939V15.448C18.9163 15.7373 19.1587 15.9732 19.4559 15.9732C19.7531 15.9732 19.9954 15.7373 19.9954 15.448V13.3117C19.9954 12.1857 19.5336 11.1042 18.706 10.3164C17.883 9.52422 16.7673 9.08806 15.6104 9.10586V9.12812L15.6196 9.12367ZM7.5126 13.334V14.5801C7.5126 14.7804 7.34799 14.9451 7.13765 14.9451C6.92732 14.9451 6.76271 14.7849 6.76271 14.5801V11.3356C7.24739 11.8875 7.51717 12.5863 7.52631 13.3162L7.5126 13.3384V13.334ZM13.2465 14.5579C13.2465 14.7582 13.0819 14.9228 12.8715 14.9228C12.6612 14.9228 12.4966 14.7626 12.4966 14.5579V13.4319C12.4966 12.6842 12.7572 11.9543 13.2328 11.3712V11.6071L13.2419 14.5579H13.2465Z" fill="#18465E"/>
<path d="M9.9679 0C8.21207 0 6.78088 1.3886 6.78088 3.10209C6.78088 4.81558 8.2075 6.20417 9.9679 6.20417C11.7283 6.20417 13.1549 4.81558 13.1549 3.10209C13.1549 1.3886 11.7237 0 9.9679 0ZM12.2587 3.10209C12.2587 4.33046 11.2299 5.33185 9.9679 5.33185C8.70589 5.33185 7.67709 4.33046 7.67709 3.10209C7.67709 1.87371 8.70589 0.872323 9.9679 0.872323C11.2299 0.872323 12.2587 1.87371 12.2587 3.10209Z" fill="#F15A24"/>
<path d="M15.9213 3.73853C14.7004 3.73853 13.7128 4.70431 13.7128 5.88818C13.7128 7.07204 14.705 8.03783 15.9213 8.03783C17.1376 8.03783 18.1298 7.07204 18.1298 5.88818C18.1298 4.70431 17.1376 3.73853 15.9213 3.73853ZM17.4165 5.88818C17.4165 6.68929 16.7443 7.34353 15.9213 7.34353C15.0982 7.34353 14.4261 6.68929 14.4261 5.88818C14.4261 5.08706 15.0982 4.43282 15.9213 4.43282C16.7443 4.43282 17.4165 5.08706 17.4165 5.88818Z" fill="#F15A24"/>
<path d="M3.72193 3.67188C2.50108 3.67188 1.51343 4.63766 1.51343 5.82153C1.51343 7.00539 2.50565 7.97118 3.72193 7.97118C4.93821 7.97118 5.93044 7.00539 5.93044 5.82153C5.93044 4.63766 4.93821 3.67188 3.72193 3.67188ZM5.21713 5.82153C5.21713 6.62264 4.54498 7.27688 3.72193 7.27688C2.89889 7.27688 2.22673 6.62264 2.22673 5.82153C2.22673 5.02041 2.89889 4.36617 3.72193 4.36617C4.54498 4.36617 5.21713 5.02041 5.21713 5.82153Z" fill="#F15A24"/>
</g>
<defs>
<clipPath id="clip0_2304_2152">
<rect width="20" height="16" fill="#FCF3E4"/>
</clipPath>
</defs>
</svg>
