<svg xmlns="http://www.w3.org/2000/svg" width="47.711" height="38.863" viewBox="0 0 47.711 38.863">
  <path id="Path_84" data-name="Path 84" d="M563.3,86.1a9.824,9.824,0,0,1-6.344-2.51,9.719,9.719,0,0,1-2.8-4.306,9.632,9.632,0,0,0,4.339-.166,9.843,9.843,0,0,1-6.516-4.812,9.544,9.544,0,0,1-1.262-4.931,9.846,9.846,0,0,0,4.414,1.218,9.8,9.8,0,0,1-4.321-7.865,9.512,9.512,0,0,1,1.317-5.226,27.848,27.848,0,0,0,12.34,8.688,27.518,27.518,0,0,0,7.877,1.556c-.042-.237-.085-.456-.119-.675a9.824,9.824,0,0,1,7.641-11.142,9.725,9.725,0,0,1,9.049,2.709.363.363,0,0,0,.386.117,19.823,19.823,0,0,0,5.824-2.232c.044-.025.089-.048.177-.094a9.782,9.782,0,0,1-1.646,3.077,10.32,10.32,0,0,1-2.567,2.3,16.318,16.318,0,0,0,2.79-.528,19.28,19.28,0,0,0,2.721-.97c-.046.081-.068.128-.1.17a19.157,19.157,0,0,1-3.129,3.568c-.477.423-.983.814-1.483,1.21a.335.335,0,0,0-.154.319,22.668,22.668,0,0,1-.051,3.053,27.878,27.878,0,0,1-1.113,5.954,28.787,28.787,0,0,1-6.1,10.985,26.189,26.189,0,0,1-12.1,7.768,27.51,27.51,0,0,1-4.414.957,29.981,29.981,0,0,1-3.836.269,28.538,28.538,0,0,1-4.261-.282A27.747,27.747,0,0,1,549.022,90.3c-.033-.021-.065-.041-.1-.063a.369.369,0,0,1-.04-.042.493.493,0,0,1,.244,0,18.479,18.479,0,0,0,2.24.1,19.634,19.634,0,0,0,9.659-2.657,19,19,0,0,0,2.1-1.408c.045-.034.087-.072.164-.136" transform="translate(-548.885 -55.696)" fill="#00ff47"/>
</svg>
