<svg id="Group_286" data-name="Group 286" xmlns="http://www.w3.org/2000/svg" xmlns:xlink="http://www.w3.org/1999/xlink" width="38.978" height="38.973" viewBox="0 0 38.978 38.973">
  <defs>
    <clipPath id="clip-path">
      <rect id="Rectangle_189" data-name="Rectangle 189" width="38.978" height="38.973" fill="none"/>
    </clipPath>
  </defs>
  <g id="Group_285" data-name="Group 285" clip-path="url(#clip-path)">
    <path id="Path_85" data-name="Path 85" d="M38.66,8.227A10.577,10.577,0,0,0,30.217.214a10.476,10.476,0,0,0-2.191-.2C22.343,0,16.664-.014,10.981.018A10.564,10.564,0,0,0,1.39,5.545,10.261,10.261,0,0,0,.023,10.82c0,5.784-.061,11.568.02,17.349a10.5,10.5,0,0,0,6.5,9.929,9.55,9.55,0,0,0,3.073.809c.124.014.249.043.37.066H29.012c.584-.1,1.179-.159,1.749-.318A10.62,10.62,0,0,0,38.787,30.2c.087-.393.13-.795.191-1.194V9.979c-.1-.584-.159-1.182-.318-1.752M19.488,29.533A10.042,10.042,0,1,1,29.541,19.494,10.083,10.083,0,0,1,19.488,29.533M29.98,11.583a2.525,2.525,0,1,1,2.515-2.526,2.554,2.554,0,0,1-2.515,2.526" transform="translate(0 0)" fill="#00ff47"/>
    <path id="Path_86" data-name="Path 86" d="M57.87,51.24a6.576,6.576,0,1,1-6.6-6.558,6.585,6.585,0,0,1,6.6,6.558" transform="translate(-31.793 -31.766)" fill="#00ff47"/>
  </g>
</svg>
