<svg id="Group_282" data-name="Group 282" xmlns="http://www.w3.org/2000/svg" width="38.872" height="38.863" viewBox="0 0 38.872 38.863">
  <path id="Path_80" data-name="Path 80" d="M273.718,156.3a19.437,19.437,0,1,1,19.173,19.44,19.456,19.456,0,0,1-19.173-19.44m22.628-13.273c.126.02.227.031.326.052,1.251.268,2.5.546,3.755.8a.5.5,0,0,1,.46.415,2.613,2.613,0,0,0,2.918,1.9,2.545,2.545,0,0,0,1.882-3.735,2.6,2.6,0,0,0-4.209-.356.4.4,0,0,1-.451.151c-1.625-.356-3.252-.7-4.878-1.046a.866.866,0,0,0-1.2.7q-.88,2.794-1.761,5.587c-.051.161-.092.279-.309.277a15.225,15.225,0,0,0-3.252.375,14.807,14.807,0,0,0-5.341,2.243.317.317,0,0,1-.375,0,10.264,10.264,0,0,0-1.714-.741,3.292,3.292,0,0,0-4,3.8,3.511,3.511,0,0,0,1.675,2.448.288.288,0,0,1,.15.339,7.422,7.422,0,0,0,.51,4.279,9.986,9.986,0,0,0,4.034,4.433,15.763,15.763,0,0,0,6.565,2.2,17.533,17.533,0,0,0,6.075-.293,13.357,13.357,0,0,0,7.47-4.2,7.648,7.648,0,0,0,1.9-6.29.5.5,0,0,1,.24-.566,3.339,3.339,0,0,0,1.576-3.121,3.215,3.215,0,0,0-1.983-2.81,3.31,3.31,0,0,0-3.649.5.233.233,0,0,1-.335.023,14.873,14.873,0,0,0-6.812-2.374l-.836-.085,1.575-4.9" transform="translate(-273.718 -136.88)" fill="#00ff47"/>
  <path id="Path_81" data-name="Path 81" d="M350.288,258.614a8.234,8.234,0,0,1-4.858-1.436,1.727,1.727,0,0,1-.43-.432.647.647,0,0,1,.052-.846.846.846,0,0,1,1.021-.18,12.227,12.227,0,0,0,1.608.847,6.826,6.826,0,0,0,6.206-.618c.136-.082.262-.181.4-.258a.84.84,0,0,1,.989.235.567.567,0,0,1,.029.792,4.176,4.176,0,0,1-.962.833,7.468,7.468,0,0,1-3.211,1c-.325.03-.652.048-.846.063" transform="translate(-330.593 -231.789)" fill="#00ff47"/>
  <path id="Path_82" data-name="Path 82" d="M386.253,221.134a2.082,2.082,0,0,1,2.053,2.09,2.055,2.055,0,1,1-4.108-.092,2.079,2.079,0,0,1,2.055-2" transform="translate(-362.03 -204.229)" fill="#00ff47"/>
  <path id="Path_83" data-name="Path 83" d="M337.724,223.2a2.062,2.062,0,1,1,4.124.017,2.141,2.141,0,0,1-2,2.043,2.106,2.106,0,0,1-2.122-2.061" transform="translate(-324.881 -204.229)" fill="#00ff47"/>
</svg>
