<svg xmlns="http://www.w3.org/2000/svg" fill="none" viewBox="0 0 200 43"><g fill="#121212" stroke-width=".465"><path d="M59.172.001c-5.358 0-8.414 3.034-8.414 8.056l.001.001c0 4.865 3.056 8.004 8.309 8.004 4.834 0 7.655-2.484 8.126-6.434h-3.658c-.34 2.25-1.725 3.61-4.442 3.61-3.005 0-4.782-1.752-4.782-5.206s1.594-5.205 4.782-5.205c2.613 0 3.971 1.306 4.336 3.583h3.633C66.593 2.59 64.11 0 59.172 0z"/><path fill-rule="evenodd" d="M76.546 16.062c5.121 0 8.256-3.113 8.256-8.083 0-5.178-3.422-7.978-8.256-7.978-5.12 0-8.256 2.905-8.256 8.083 0 5.179 3.423 7.978 8.256 7.978zm0-13.237c2.822 0 4.704 1.648 4.704 5.258 0 3.505-1.725 5.153-4.704 5.153-2.822 0-4.703-1.753-4.703-5.258s1.725-5.153 4.703-5.153z" clip-rule="evenodd"/><path d="M90.21.262h-3.5V15.8h3.5V5.259c.916-1.753 2.169-2.564 4.181-2.564 2.508 0 3.789 1.152 3.789 3.662V15.8h3.5V5.86c0-3.715-2.036-5.86-5.642-5.86-3.187 0-4.939 1.649-5.827 4.395zm16.593 10.777h-3.659l.002.001c.39 3.113 2.717 5.022 7.733 5.022 5.017 0 7.133-2.066 7.133-4.839 0-2.353-1.123-3.975-4.52-4.367l-4.677-.55c-1.385-.157-1.881-.706-1.881-1.621 0-1.098.836-1.935 3.5-1.935s3.58.889 3.789 2.249h3.632c-.445-2.956-2.353-4.997-7.316-4.997-4.964 0-6.976 2.12-6.976 4.891 0 2.433 1.28 3.898 4.703 4.29l4.494.523c1.49.184 1.881.81 1.881 1.648 0 1.124-1.019 1.96-3.684 1.96s-3.867-.732-4.154-2.275z"/><path fill-rule="evenodd" d="M119.344 8.083c0 4.551 2.822 7.978 8.1 7.978 4.416 0 7.133-2.093 7.917-5.284h-3.58c-.523 1.544-1.855 2.459-4.233 2.459-2.64 0-4.337-1.544-4.65-4.316h12.567c.026-5.441-2.326-8.92-7.995-8.92-5.096 0-8.126 3.27-8.126 8.083zM131.78 6.54h-8.831c.445-2.485 2.064-3.793 4.494-3.793 2.77 0 4.102 1.49 4.337 3.793z" clip-rule="evenodd"/><path d="M140.69.262h-3.501V15.8h3.5V5.259c.916-1.753 2.17-2.564 4.182-2.564 2.507 0 3.788 1.152 3.788 3.662V15.8h3.5V5.86c0-3.714-2.036-5.859-5.643-5.859-3.187 0-4.938 1.649-5.826 4.395zm16.592 10.777h-3.659l.002.001c.391 3.113 2.717 5.022 7.734 5.022s7.133-2.066 7.133-4.839c0-2.353-1.124-3.975-4.52-4.367l-4.678-.55c-1.384-.157-1.881-.706-1.881-1.621 0-1.098.836-1.935 3.501-1.935s3.579.889 3.788 2.249h3.632c-.444-2.956-2.352-4.997-7.316-4.997s-6.976 2.12-6.976 4.891c0 2.433 1.28 3.898 4.704 4.29l4.494.523c1.49.184 1.88.81 1.88 1.648 0 1.124-1.018 1.96-3.683 1.96s-3.868-.732-4.155-2.275zm21.397 8.581L185.185.262h-3.66l-4.493 13.601-4.678-13.6h-3.866l5.095 13.837h3.37l-.861 2.642h-5.905v2.877zm10.111-8.58h-3.658l.001.001c.391 3.113 2.717 5.022 7.734 5.022 5.017 0 7.133-2.066 7.133-4.838 0-2.353-1.123-3.976-4.52-4.368l-4.678-.55c-1.384-.157-1.88-.706-1.88-1.62 0-1.1.835-1.936 3.5-1.936s3.58.889 3.788 2.249h3.633c-.445-2.956-2.353-4.996-7.317-4.996s-6.976 2.118-6.976 4.89c0 2.433 1.28 3.898 4.704 4.29l4.494.523c1.49.184 1.881.811 1.881 1.648 0 1.124-1.02 1.961-3.684 1.961s-3.868-.733-4.155-2.276z"/><path fill-rule="evenodd" d="M42.681 21.627V15.8h-.001.001V.262H21.34C9.554.263 0 9.827 0 21.626s9.555 21.365 21.341 21.365c11.786 0 21.34-9.565 21.34-21.364zm-26.19-10.683L27.16.263V15.8h15.52L32.009 26.487H16.49z" clip-rule="evenodd"/></g></svg>
