<svg fill="none" height="114" viewBox="0 0 334 114" width="334" xmlns="http://www.w3.org/2000/svg"><g fill="#000"><g clip-rule="evenodd" fill-rule="evenodd"><path d="m52.6903 10.216c0 5.6443-4.7756 10.216-10.663 10.216-5.8913 0-10.6592-4.5717-10.6592-10.216 0-5.64063 4.7679-10.216 10.6592-10.216 5.8874 0 10.663 4.57537 10.663 10.216z"/><path d="m162.068 10.216c0 5.6443-4.768 10.216-10.663 10.216-5.887 0-10.655-4.5717-10.655-10.216 0-5.64063 4.768-10.216 10.655-10.216 5.895 0 10.659 4.57537 10.659 10.216"/><path d="m223.324 10.216c0 5.6443-4.768 10.216-10.659 10.216-5.887 0-10.663-4.5717-10.663-10.216 0-5.64063 4.776-10.216 10.663-10.216 5.891 0 10.659 4.57537 10.659 10.216z"/><path d="m284.616 10.216c0 5.6443-4.771 10.216-10.655 10.216-5.891 0-10.667-4.5717-10.667-10.216 0-5.64063 4.776-10.216 10.663-10.216 5.888 0 10.655 4.57537 10.655 10.216"/><path d="m-.00003052 38.2044c0-3.9466 3.26608052-7.1904 7.49731052-7.1904h1.57512c3.2661 0 5.4435 1.6238 6.8989 3.8245l25.6422 38.4783 25.7657-38.5929c1.5713-2.4301 3.7525-3.7099 6.7715-3.7099h1.5751c4.2351 0 7.5012 3.2438 7.5012 7.1904v67.9096c0 3.943-3.2661 7.072-7.5012 7.072-3.9918 0-7.3814-3.24-7.3814-7.072v-48.676l-20.6813 29.7861c-1.579 2.3155-3.5132 3.7136-6.2928 3.7136-2.6639 0-4.5942-1.3981-6.1731-3.7136l-20.5617-29.5531v48.565c0 3.943-3.2622 6.95-7.38144 6.95-4.10769-.004-7.25409052-3.007-7.25409052-6.958v-68.0199z"/></g><path d="m139.696 77.7189c-.965-9.0398-6.536-16.1044-16.214-16.1044-8.957 0-15.242 6.6022-16.57 16.1044zm-14.516 36.2811c-18.511 0-32.7877-12.872-32.7877-31.7575v-.2331c0-17.4951 12.9447-31.8722 31.2127-31.8722 20.323 0 30.364 15.9971 30.364 30.1338 0 3.9429-3.15 6.7207-6.895 6.7207h-40.042c1.571 9.9718 8.952 15.5313 18.384 15.5313 6.169 0 11.007-2.083 15.126-5.3264 1.085-.8212 2.057-1.2761 3.745-1.2761 3.27 0 5.814 2.4301 5.814 5.6735 0 1.739-.85 3.248-1.942 4.291-5.803 4.986-13.061 8.115-22.979 8.115z"/><path clip-rule="evenodd" d="m151.773 40.6348c-.36-.8101-.603-1.8494-.603-2.7815 0-3.9392 3.51-6.9537 7.617-6.9537 3.633 0 6.417 2.2045 7.382 5.2153l19.48 55.7514 19.11-55.5184c1.209-3.3585 3.749-5.6776 7.498-5.6776h1.092c3.749 0 6.413 2.3191 7.501 5.6776l19.11 55.5184 19.477-55.8698c1.089-2.8924 3.629-5.0969 7.258-5.0969 3.992 0 7.382 3.0145 7.382 6.8427 0 .9247-.367 2.0824-.73 2.8925l-25.032 67.2212c-1.332 3.595-4.116 5.911-7.745 5.911h-1.451c-3.633 0-6.293-2.201-7.621-5.911l-18.875-52.9662-18.874 52.9662c-1.332 3.706-4.112 5.907-7.741 5.907h-1.451c-3.629 0-6.289-2.201-7.745-5.911z" fill-rule="evenodd"/><path d="m318.739 77.7189c-.969-9.0398-6.536-16.1044-16.214-16.1044-8.957 0-15.242 6.6022-16.574 16.1044zm-14.516 36.2811c-18.519 0-32.792-12.872-32.792-31.7575v-.2331c.004-17.4951 12.945-31.8722 31.213-31.8722 20.326 0 30.368 15.9971 30.368 30.1338 0 3.9429-3.15 6.7207-6.899 6.7207h-40.038c1.571 9.9718 8.952 15.5313 18.38 15.5313 6.177 0 11.014-2.083 15.122-5.3264 1.089-.8212 2.062-1.2761 3.756-1.2761 3.266 0 5.803 2.4301 5.803 5.6735 0 1.739-.846 3.248-1.934 4.291-5.807 4.986-13.061 8.115-22.983 8.115z"/></g></svg>