<svg xmlns="http://www.w3.org/2000/svg" fill-rule="evenodd" clip-rule="evenodd" image-rendering="optimizeQuality" shape-rendering="geometricPrecision" text-rendering="geometricPrecision" viewBox="0 0 3513.016 1162.35"><path fill="#28323b" d="M1157.016 671.075c49 46 111 70 186 70 57 0 103-15 138-46 34-31 52-67 52-109 0-50-15-89-49-121-33-33-63-52-120-80-42-22-72-40-90-56-17-15-26-35-26-59 0-52 42-85 111-85 45 0 85 18 122 55v-75c-32-28-72-41-121-41-109 0-178 60-178 146 0 43 14 76 45 104 16 13 32 24 46 34 15 9 35 20 62 34 51 26 86 49 104 67s28 44 28 77c0 48-46 94-129 94-69 0-130-31-181-91zm2008 58v-235h135l134 235h76l-144-248c69-26 114-90 114-169 0-50-17-93-52-126-35-34-77-51-126-51h-203v594zm0-533h134c66 0 114 51 114 116 0 35-11 63-34 86-22 23-50 35-84 35h-130zm-700 533c121-277 66-149 198-460 119 279 91 215 198 460h72l-260-594h-18l-260 594zm-701-76c61 59 134 88 220 88s160-29 220-88c60-58 90-133 90-220 0-88-30-162-90-221-60-58-134-88-220-88s-159 30-220 88c-59 59-89 133-89 221 0 87 30 162 89 220zm45-397c47-47 105-71 175-71s128 24 174 71 69 106 69 177c0 70-23 130-69 177s-104 70-174 70-128-23-175-70c-46-47-69-107-69-177 0-71 23-130 69-177z"/><g fill="#ee785a"><path d="M1285.016 903.075h-16v84c0 15-4 27-12 35s-18 12-32 12-24-4-32-12c-8-9-12-21-12-36v-83h-16v84c0 10 2 19 4 27 3 7 7 14 13 19 5 5 11 9 19 12 7 3 15 4 24 4s17-1 24-4c8-3 14-7 19-12 6-5 10-12 12-20 3-8 5-17 5-28zm177 46c0-7-1-14-4-19-2-6-6-11-11-15-4-3-10-7-17-9-6-2-14-3-22-3h-53v144h16v-51h35c7 0 15-1 21-3 7-2 13-5 18-9 6-4 10-9 13-15 3-5 4-12 4-20zm-16 1c0 4-1 9-3 13s-4 7-8 10c-3 2-8 5-12 6-5 2-11 2-17 2h-35v-63h36c12 0 21 3 28 8s11 13 11 24zm77 97h97v-15h-81v-129h-16zm160-144v144h16v-144zm193 0h-103v144h16v-63h78v-15h-78v-51h87zm117 15h48v-15h-112v15h48v129h16zm271 64v65h16v-144h-16v64h-83v-64h-16v144h16v-65zm206-79h-17v84c0 15-3 27-11 35s-19 12-32 12c-14 0-24-4-32-12-8-9-12-21-12-36v-83h-16v84c0 10 1 19 4 27 3 7 7 14 13 19 5 5 11 9 18 12 8 3 16 4 25 4s17-1 24-4c8-3 14-7 19-12s9-12 12-20 5-17 5-28zm191 27v117h16v-144h-16l-53 79-52-79h-17v144h16v-116l53 76zm156-28h-15l-65 145h16l17-38h79l16 38h18zm25 93h-65l33-74zm206 23-90-115h-15v144h15v-118l93 118h13v-144h-16zm90-115v144h16v-144zm144 15h48v-15h-113v15h48v129h17zm171 72 60-87h-19l-49 72-48-72h-20l60 87v57h16z"/><path fill-rule="nonzero" d="M562.016 438.075c-1-14-1-21 1-22s13 5 29 15c23 16 50 43 74 75 54 72 94 170 49 231-13 17-34 32-60 44-19 9-21 47-4 59 8 5 17 6 26 2 38-17 70-39 90-67 66-88 20-216-48-308-29-38-61-70-91-90-38-25-75-33-102-14-20 13-31 39-29 79 3 59 15 118 27 176 14 68 28 135 24 198-54 13-115 23-174 32-89 14-173 28-231 51-70 29-105 70-77 138 16 39 39 68 66 88 33 24 72 36 113 37 40 2 82-7 123-24 69-28 135-79 183-144 31-42 49-84 57-127 4-24 6-47 7-70 0-63-14-127-27-192-12-55-23-111-26-167zm-325 286c1 15 1 22-1 23s-13-5-29-15c-23-16-50-43-74-75-54-73-94-171-49-231 13-18 33-32 60-44 19-10 21-47 4-59-8-6-17-7-26-3-38 18-70 39-90 67-66 89-20 217 48 308 29 38 61 70 91 91 38 25 75 33 102 14 20-14 31-39 29-79-3-60-15-118-27-176-14-68-28-135-24-198 54-13 115-23 174-32 89-14 173-28 231-51 70-29 105-71 77-139-16-38-39-67-66-88-33-24-72-36-114-37-39-1-81 8-122 25-69 27-135 78-183 144-31 41-49 83-57 126-4 24-6 48-7 70 0 63 14 128 27 193 12 55 23 111 26 166zm178-474c-50 8-102 17-152 27 8-24 20-47 37-70 41-55 97-99 155-122 33-14 66-21 96-20 29 1 55 9 77 25 18 13 34 33 45 60 9 23-9 40-42 53-51 21-131 34-216 47zm-31 662c50-8 102-16 151-27-7 24-19 48-36 70-41 56-97 99-155 123-33 13-66 20-97 19-28 0-55-8-76-24-18-14-34-33-45-60-9-23 9-40 42-54 51-21 131-33 216-47z"/></g></svg>
