<svg viewBox="0 0 4628.46 1250" xmlns="http://www.w3.org/2000/svg"><g fill="#231f20"><path d="m624.98 391.76c-43.14 0-78.59 38.15-78.59 78.89 0 27.16 26.52 59.64 78.59 98.61 52.07-38.97 78.59-71.45 78.59-98.61 0-40.74-35.45-78.89-78.59-78.89z"/><path d="m624.98 680.74c-52.07 38.97-78.59 71.45-78.59 98.61 0 40.74 35.45 78.89 78.59 78.89s78.59-38.15 78.59-78.89c0-27.16-26.52-59.64-78.59-98.61z"/><path d="m993.54 11.98h-737.08c-135.02 0-244.48 109.46-244.48 244.48v737.07c0 135.03 109.46 244.49 244.49 244.49h737.07c135.03 0 244.49-109.46 244.49-244.49v-737.07c0-135.03-109.46-244.49-244.49-244.49zm-172.06 768.85c0 105.21-91.41 185.88-196.48 185.88s-196.48-80.67-196.48-185.88c0-60.34 32.08-108.48 86.39-155.83-54.31-47.35-86.39-95.48-86.39-155.83 0-105.21 91.42-185.88 196.48-185.88s196.48 80.67 196.48 185.88c0 60.34-32.08 108.48-86.39 155.83 54.31 47.35 86.39 95.48 86.39 155.83z"/><path d="m3759.74 938.97c-34.91-17.51-64.04-44.68-83.95-78.28-20.69-36.25-31.08-77.46-30.04-119.19v-10.55c-1.03-41.66 9.18-82.83 29.57-119.18 19.54-33.55 48.36-60.74 82.99-78.28 38.49-19.13 81.05-28.64 124.02-27.71 42.17-1.03 83.89 8.82 121.15 28.58 33.61 18.33 61.39 45.76 80.14 79.14 19.64 35.96 29.51 76.45 28.62 117.42v37.82h-344.39c.59 28.53 13.88 55.3 36.25 73.01 23.75 19.06 53.51 29.04 83.95 28.15 33.7 0 58.5-6.75 74.41-20.25 14.99-12.35 27.32-27.61 36.25-44.86l98.26 47.5c-10.99 17.95-23.96 34.62-38.65 49.69-19.21 19.51-42.06 35.05-67.26 45.74-27.98 12.61-63.6 18.91-106.85 18.91-43.11.9-85.8-8.59-124.47-27.67zm44.36-313.57c-18.98 15.07-31.58 36.74-35.29 60.69h221.32c-1.87-23.98-13.83-46.04-32.91-60.69-19.4-15.24-44.68-22.87-75.84-22.87-32.44 0-58.2 7.63-77.28 22.87zm-1502.98 313.57c-34.91-17.51-64.05-44.68-83.95-78.28-20.69-36.25-31.08-77.46-30.05-119.19v-10.55c-1.03-41.66 9.18-82.83 29.57-119.18 19.54-33.55 48.36-60.74 83-78.28 38.49-19.13 81.04-28.64 124.01-27.71 42.17-1.03 83.89 8.82 121.16 28.58 33.61 18.33 61.38 45.76 80.14 79.14 19.64 35.96 29.51 76.45 28.62 117.42v37.82h-344.39c.59 28.53 13.88 55.3 36.25 73.01 23.75 19.06 53.51 29.04 83.95 28.15 33.71 0 58.51-6.75 74.41-20.25 14.99-12.35 27.32-27.61 36.25-44.86l98.26 47.5c-10.99 17.95-23.96 34.62-38.65 49.69-19.2 19.51-42.05 35.05-67.25 45.74-27.98 12.61-63.6 18.91-106.85 18.91-43.11.9-85.8-8.59-124.47-27.67zm44.36-313.57c-18.98 15.07-31.59 36.74-35.3 60.69h221.33c-1.87-23.98-13.84-46.04-32.91-60.69-19.4-15.24-44.68-22.87-75.83-22.87-32.44 0-58.2 7.63-77.28 22.87zm981.64 328.98v-436.29h118.3v49.26h17.18c6.31-16.83 18.75-30.65 34.82-38.7 17.68-8.54 37.13-12.76 56.76-12.31h57.23v98.51h-59.14c-30.53 0-55.65 7.48-75.36 22.44s-29.57 37.97-29.57 69.04v248.06h-120.22zm-194.6 0-36.25-135.46h-238.47l-36.25 135.46h-129.77l175.53-615.72h219.41l175.53 615.72zm-245.17-242.76h179.34l-81.09-299.94h-17.18l-81.08 299.94zm-1053.19 242.76-85.89-547.1h-17.18l-85.82 547.1h-217.5l-87.77-615.72h124.98l64.87 534.79h17.18l83.94-534.79h217.51l83.95 534.79h17.18l64.87-534.79h124.98l-87.78 615.72h-217.5z"/><path d="m4398.41 283.29c-104.97 0-196.31 80.6-196.31 185.72 0 60.29 32.05 108.39 86.31 155.69-54.26 47.31-86.31 95.4-86.31 155.69 0 105.11 91.34 185.72 196.31 185.72s196.31-80.6 196.31-185.72c0-60.29-32.05-108.39-86.31-155.69 54.26-47.31 86.31-95.4 86.31-155.69 0-105.12-91.34-185.72-196.31-185.72zm-.02 108.37c43.1 0 78.52 38.12 78.52 78.82 0 27.14-26.5 59.59-78.52 98.53-52.03-38.94-78.52-71.39-78.52-98.53 0-40.7 35.42-78.82 78.52-78.82zm0 466.07c43.1 0 78.52-38.12 78.52-78.82 0-27.13-26.49-59.59-78.52-98.53-52.03 38.94-78.52 71.39-78.52 98.53 0 40.7 35.42 78.82 78.52 78.82z" fill-rule="evenodd"/></g></svg>