<svg width="22" height="22" viewBox="0 0 22 22" fill="none" xmlns="http://www.w3.org/2000/svg">
<path d="M18.077 10.9258H15.6411" stroke="#4F4F4F" stroke-miterlimit="10"/>
<path d="M16.8589 16.8475L14.1794 14.5698" stroke="#4F4F4F" stroke-miterlimit="10"/>
<path d="M9.79498 6.82595L9.06421 4.09277" stroke="#4F4F4F" stroke-miterlimit="10"/>
<path d="M7.84607 15.0253L6.17797 17.4442" stroke="#4F4F4F" stroke-miterlimit="10"/>
<path d="M7.35899 9.55883L3.94873 8.87598" stroke="#4F4F4F" stroke-miterlimit="10"/>
<path d="M16.1574 5.68799L14.1794 8.19251" stroke="#4F4F4F" stroke-miterlimit="10"/>
<path d="M16.6445 5.91492C17.1826 5.91492 17.6189 5.50702 17.6189 5.00385C17.6189 4.50067 17.1826 4.09277 16.6445 4.09277C16.1064 4.09277 15.6702 4.50067 15.6702 5.00385C15.6702 5.50702 16.1064 5.91492 16.6445 5.91492Z" stroke="#4F4F4F" stroke-miterlimit="10"/>
<path d="M2.97436 9.55896C3.51248 9.55896 3.94872 9.15106 3.94872 8.64789C3.94872 8.14472 3.51248 7.73682 2.97436 7.73682C2.43624 7.73682 2 8.14472 2 8.64789C2 9.15106 2.43624 9.55896 2.97436 9.55896Z" stroke="#4F4F4F" stroke-miterlimit="10"/>
<path d="M17.5897 19.1248C18.3969 19.1248 19.0513 18.513 19.0513 17.7582C19.0513 17.0035 18.3969 16.3916 17.5897 16.3916C16.7825 16.3916 16.1282 17.0035 16.1282 17.7582C16.1282 18.513 16.7825 19.1248 17.5897 19.1248Z" stroke="#4F4F4F" stroke-miterlimit="10"/>
<path d="M5.42627 20.7564C6.49287 20.622 7.24097 19.7045 7.0972 18.7072C6.95342 17.7098 5.97222 17.0103 4.90562 17.1448C3.83902 17.2792 3.09092 18.1967 3.23469 19.194C3.37847 20.1913 4.35967 20.8908 5.42627 20.7564Z" stroke="#4F4F4F" stroke-miterlimit="10"/>
<path d="M19.5384 12.2923C20.3456 12.2923 21 11.6804 21 10.9257C21 10.1709 20.3456 9.55908 19.5384 9.55908C18.7313 9.55908 18.0769 10.1709 18.0769 10.9257C18.0769 11.6804 18.7313 12.2923 19.5384 12.2923Z" stroke="#4F4F4F" stroke-miterlimit="10"/>
<path d="M7.8756 4.02378C8.64214 4.26026 9.46857 3.87093 9.72149 3.15418C9.97441 2.43743 9.55804 1.66468 8.79151 1.4282C8.02497 1.19171 7.19853 1.58104 6.94561 2.29779C6.69269 3.01454 7.10906 3.78729 7.8756 4.02378Z" stroke="#4F4F4F" stroke-miterlimit="10"/>
<path d="M15.3719 10.2835H14.8886C14.7906 10.272 14.6975 10.2345 14.6188 10.1751C14.5401 10.1156 14.4786 10.0363 14.4407 9.94524C14.4028 9.85418 14.3899 9.75467 14.4032 9.65693C14.4165 9.5592 14.4555 9.46676 14.5164 9.38913L14.8497 9.05582C14.908 8.99799 14.9542 8.92919 14.9858 8.85339C15.0174 8.7776 15.0336 8.6963 15.0336 8.61419C15.0336 8.53209 15.0174 8.45079 14.9858 8.37499C14.9542 8.2992 14.908 8.2304 14.8497 8.17256L14.2053 7.50595C14.1475 7.44767 14.0787 7.40141 14.0029 7.36984C13.9271 7.33828 13.8458 7.32202 13.7637 7.32202C13.6816 7.32202 13.6003 7.33828 13.5245 7.36984C13.4487 7.40141 13.3799 7.44767 13.322 7.50595L12.9887 7.83926C12.9138 7.89549 12.8258 7.93185 12.7331 7.94497C12.6403 7.95808 12.5457 7.94751 12.4581 7.91425C12.3705 7.88098 12.2928 7.82611 12.2321 7.75472C12.1714 7.68333 12.1297 7.59775 12.111 7.50595V7.0171C12.1111 6.93349 12.0943 6.85073 12.0616 6.77376C12.029 6.69679 11.9812 6.62719 11.921 6.56911C11.8609 6.51104 11.7896 6.46568 11.7116 6.43575C11.6335 6.40583 11.5502 6.39194 11.4666 6.39493H10.5334C10.4498 6.39194 10.3665 6.40583 10.2884 6.43575C10.2104 6.46568 10.1391 6.51104 10.079 6.56911C10.0188 6.62719 9.97101 6.69679 9.93837 6.77376C9.90572 6.85073 9.88892 6.93349 9.88897 7.0171V7.50595C9.87743 7.60391 9.84001 7.69702 9.78056 7.77573C9.72111 7.85444 9.64178 7.9159 9.55071 7.95379C9.45965 7.99169 9.36014 8.00466 9.2624 7.99136C9.16467 7.97807 9.07223 7.93899 8.9946 7.87814L8.67796 7.50595C8.62013 7.44767 8.55133 7.40141 8.47553 7.36984C8.39973 7.33828 8.31844 7.32202 8.23633 7.32202C8.15422 7.32202 8.07293 7.33828 7.99713 7.36984C7.92133 7.40141 7.85253 7.44767 7.7947 7.50595L7.11142 8.18923C7.05314 8.24706 7.00688 8.31586 6.97531 8.39166C6.94375 8.46746 6.92749 8.54875 6.92749 8.63086C6.92749 8.71297 6.94375 8.79426 6.97531 8.87006C7.00688 8.94586 7.05314 9.01465 7.11142 9.07249L7.44473 9.4058C7.50096 9.48074 7.53732 9.56869 7.55044 9.66146C7.56355 9.75424 7.55298 9.84882 7.51972 9.93641C7.48645 10.024 7.43158 10.1018 7.36019 10.1624C7.2888 10.2231 7.20323 10.2648 7.11142 10.2835H6.62813C6.54405 10.2827 6.46068 10.2989 6.38306 10.3313C6.30544 10.3636 6.23517 10.4113 6.1765 10.4715C6.11784 10.5317 6.07198 10.6032 6.04171 10.6817C6.01145 10.7601 5.99739 10.8439 6.0004 10.9279V11.8612C5.99741 11.9447 6.0113 12.028 6.04122 12.1061C6.07115 12.1841 6.11651 12.2554 6.17458 12.3155C6.23266 12.3757 6.30226 12.4235 6.37923 12.4562C6.4562 12.4888 6.53896 12.5056 6.62257 12.5055H7.11142C7.20938 12.5171 7.30249 12.5545 7.3812 12.614C7.45991 12.6734 7.52137 12.7527 7.55926 12.8438C7.59716 12.9349 7.61013 13.0344 7.59683 13.1321C7.58354 13.2299 7.54446 13.3223 7.48361 13.3999L7.15031 13.7332C7.09202 13.7911 7.04577 13.8599 7.0142 13.9357C6.98263 14.0115 6.96638 14.0927 6.96638 14.1749C6.96638 14.257 6.98263 14.3383 7.0142 14.4141C7.04577 14.4899 7.09202 14.5587 7.15031 14.6165L7.7947 15.2831C7.85253 15.3414 7.92133 15.3876 7.99713 15.4192C8.07293 15.4508 8.15422 15.467 8.23633 15.467C8.31844 15.467 8.39973 15.4508 8.47553 15.4192C8.55133 15.3876 8.62013 15.3414 8.67796 15.2831L9.01127 14.9498C9.08621 14.8936 9.17416 14.8572 9.26694 14.8441C9.35971 14.831 9.45429 14.8415 9.54188 14.8748C9.62948 14.9081 9.70723 14.9629 9.76792 15.0343C9.8286 15.1057 9.87025 15.1913 9.88897 15.2831V15.7497C9.88586 15.8352 9.9004 15.9204 9.93169 16C9.96297 16.0795 10.0103 16.1518 10.0708 16.2123C10.1313 16.2728 10.2035 16.3201 10.2831 16.3514C10.3627 16.3827 10.4479 16.3972 10.5334 16.3941H11.4666C11.5502 16.3971 11.6335 16.3832 11.7116 16.3533C11.7896 16.3234 11.8609 16.278 11.921 16.2199C11.9812 16.1619 12.029 16.0923 12.0616 16.0153C12.0943 15.9383 12.1111 15.8556 12.111 15.7719V15.2831C12.1226 15.1851 12.16 15.092 12.2194 15.0133C12.2789 14.9346 12.3582 14.8732 12.4493 14.8353C12.5403 14.7974 12.6399 14.7844 12.7376 14.7977C12.8353 14.811 12.9278 14.8501 13.0054 14.9109L13.3387 15.2442C13.3965 15.3025 13.4653 15.3488 13.5411 15.3803C13.6169 15.4119 13.6982 15.4281 13.7803 15.4281C13.8624 15.4281 13.9437 15.4119 14.0195 15.3803C14.0953 15.3488 14.1641 15.3025 14.222 15.2442L14.8886 14.5998C14.9469 14.542 14.9931 14.4732 15.0247 14.3974C15.0562 14.3216 15.0725 14.2403 15.0725 14.1582C15.0725 14.0761 15.0562 13.9948 15.0247 13.919C14.9931 13.8432 14.9469 13.7744 14.8886 13.7166L14.5553 13.3833C14.499 13.3083 14.4627 13.2204 14.4496 13.1276C14.4364 13.0348 14.447 12.9402 14.4803 12.8526C14.5135 12.765 14.5684 12.6873 14.6398 12.6266C14.7112 12.5659 14.7968 12.5243 14.8886 12.5055H15.3608C15.4458 12.5079 15.5303 12.4928 15.6093 12.4611C15.6882 12.4295 15.7598 12.382 15.8197 12.3216C15.8795 12.2613 15.9264 12.1892 15.9573 12.11C15.9883 12.0308 16.0027 11.9461 15.9996 11.8612V10.9279C16.0026 10.8439 15.9885 10.7601 15.9583 10.6817C15.928 10.6032 15.8822 10.5317 15.8235 10.4715C15.7648 10.4113 15.6946 10.3636 15.6169 10.3313C15.5393 10.2989 15.4559 10.2827 15.3719 10.2835Z" stroke="#2F80ED" stroke-linecap="round" stroke-linejoin="round"/>
<path d="M10.9999 12.6443C11.6902 12.6443 12.2498 12.0847 12.2498 11.3944C12.2498 10.7041 11.6902 10.1445 10.9999 10.1445C10.3096 10.1445 9.75 10.7041 9.75 11.3944C9.75 12.0847 10.3096 12.6443 10.9999 12.6443Z" stroke="#2F80ED" stroke-linecap="round" stroke-linejoin="round"/>
</svg>
