<svg width="413" height="506" fill="none" xmlns="http://www.w3.org/2000/svg">
    <rect width="413" height="506" rx="20" fill="#790E70"/>
    <path d="M370.4 45L368 42.6L377.6 33L368 23.4L370.4 21L380 30.6L389.6 21L392 23.4L382.4 33L392 42.6L389.6 45L380 35.4L370.4 45Z" fill="black"/>
    <path d="M124.206 62.9521C124.593 62.9521 124.787 63.1458 124.787 63.5332V73.6504C124.787 74.0378 124.593 74.2314 124.206 74.2314H115.49C115.103 74.2314 114.909 74.4365 114.909 74.8467V111.419C114.909 111.806 114.704 112 114.294 112H103.015C102.604 112 102.399 111.806 102.399 111.419V74.8467C102.399 74.4365 102.206 74.2314 101.818 74.2314H93.0342C92.6468 74.2314 92.4531 74.0378 92.4531 73.6504V63.5332C92.4531 63.1458 92.6468 62.9521 93.0342 62.9521H124.206ZM155.344 78.1621C157.144 79.9622 158.329 81.7396 158.898 83.4941C159.468 85.2487 159.753 87.5957 159.753 90.5352V111.419C159.753 111.806 159.559 112 159.172 112H148.098C147.71 112 147.517 111.806 147.517 111.419V91.1162C147.517 89.2249 147.3 87.8122 146.867 86.8779C146.617 86.3538 146.263 85.9095 145.808 85.5449C145.147 85.0208 144.235 84.7588 143.073 84.7588C142.002 84.7588 141.079 84.9297 140.305 85.2715C139.53 85.6133 139.017 86.0804 138.767 86.6729C138.379 87.4932 138.186 88.9743 138.186 91.1162V111.419C138.186 111.806 137.98 112 137.57 112H126.496C126.109 112 125.915 111.806 125.915 111.419V63.8066C125.915 63.4193 126.109 63.2256 126.496 63.2256H136.887C137.274 63.2256 137.468 63.4193 137.468 63.8066V76.4873C137.468 76.6012 137.513 76.6924 137.604 76.7607C137.718 76.8063 137.832 76.7949 137.946 76.7266C139.519 75.6556 141.159 74.9492 142.868 74.6074C144.6 74.2656 146.104 74.2201 147.38 74.4707C148.679 74.6986 149.909 75.0518 151.071 75.5303C152.233 76.0088 153.065 76.4189 153.566 76.7607C154.09 77.1025 154.41 77.3304 154.523 77.4443C154.842 77.695 155.116 77.9342 155.344 78.1621ZM202.17 74.8809C202.58 74.8809 202.785 75.0745 202.785 75.4619V111.385C202.785 111.772 202.58 111.966 202.17 111.966H191.813C191.426 111.966 191.232 111.772 191.232 111.385V110.838C191.232 110.724 191.187 110.644 191.096 110.599C191.005 110.553 190.902 110.553 190.788 110.599C187.757 112.308 184.499 113.162 181.013 113.162C177.458 113.162 174.165 112.296 171.135 110.564C168.104 108.81 165.7 106.44 163.923 103.455C162.168 100.47 161.291 97.223 161.291 93.7139C161.291 90.2048 162.168 86.9577 163.923 83.9727C165.7 80.9876 168.104 78.6292 171.135 76.8975C174.165 75.1657 177.458 74.2998 181.013 74.2998C184.499 74.2998 187.757 75.1543 190.788 76.8633C190.902 76.9089 191.005 76.9089 191.096 76.8633C191.187 76.7949 191.232 76.7038 191.232 76.5898V75.4619C191.232 75.0745 191.426 74.8809 191.813 74.8809H202.17ZM182.79 102.635C185.251 102.635 187.268 101.78 188.84 100.071C190.435 98.3395 191.232 96.2204 191.232 93.7139C191.232 91.2074 190.435 89.0996 188.84 87.3906C187.268 85.6589 185.251 84.793 182.79 84.793C180.284 84.793 178.142 85.6702 176.364 87.4248C174.61 89.1566 173.732 91.2529 173.732 93.7139C173.732 96.1748 174.61 98.2826 176.364 100.037C178.142 101.769 180.284 102.635 182.79 102.635ZM235.461 78.1621C237.261 79.9622 238.446 81.7396 239.016 83.4941C239.585 85.2487 239.87 87.5957 239.87 90.5352V111.419C239.87 111.806 239.676 112 239.289 112H228.215C227.827 112 227.634 111.806 227.634 111.419V91.1162C227.634 89.2249 227.417 87.8122 226.984 86.8779C226.734 86.3538 226.381 85.9095 225.925 85.5449C225.264 85.0208 224.353 84.7588 223.19 84.7588C222.119 84.7588 221.197 84.9297 220.422 85.2715C219.647 85.6133 219.134 86.0804 218.884 86.6729C218.496 87.4932 218.303 88.9743 218.303 91.1162V111.419C218.303 111.806 218.098 112 217.688 112H206.613C206.226 112 206.032 111.806 206.032 111.419V75.4961C206.032 75.0859 206.226 74.8809 206.613 74.8809H217.004C217.391 74.8809 217.585 75.0859 217.585 75.4961V76.4873C217.585 76.6012 217.631 76.6924 217.722 76.7607C217.836 76.8063 217.95 76.7949 218.063 76.7266C219.636 75.6556 221.276 74.9492 222.985 74.6074C224.717 74.2656 226.221 74.2201 227.497 74.4707C228.796 74.6986 230.026 75.0518 231.188 75.5303C232.351 76.0088 233.182 76.4189 233.684 76.7607C234.208 77.1025 234.527 77.3304 234.641 77.4443C234.732 77.5127 234.823 77.5924 234.914 77.6836C235.005 77.752 235.096 77.8431 235.188 77.957C235.301 78.0482 235.393 78.1165 235.461 78.1621ZM264.001 93.748L274.426 111.111C274.54 111.316 274.54 111.521 274.426 111.727C274.312 111.909 274.141 112 273.913 112H261.882C261.631 112 261.46 111.897 261.369 111.692L255.422 100.584C255.285 100.311 255.057 100.219 254.738 100.311C254.442 100.379 254.294 100.561 254.294 100.857V111.419C254.294 111.806 254.1 112 253.713 112H243.322C242.935 112 242.741 111.806 242.741 111.419V63.8066C242.741 63.4193 242.935 63.2256 243.322 63.2256H253.713C254.1 63.2256 254.294 63.4193 254.294 63.8066V86.0234C254.294 86.3197 254.442 86.5133 254.738 86.6045C255.057 86.6729 255.285 86.5703 255.422 86.2969L261.369 75.2227C261.483 74.9948 261.654 74.8809 261.882 74.8809H273.913C274.141 74.8809 274.312 74.9834 274.426 75.1885C274.54 75.3936 274.54 75.5986 274.426 75.8037L264.001 93.1328C263.887 93.3151 263.887 93.5202 264.001 93.748ZM131.623 132.986C131.851 132.986 132.022 133.089 132.136 133.294C132.25 133.476 132.261 133.659 132.17 133.841L118.498 162.244C118.452 162.335 118.43 162.415 118.43 162.483V181.419C118.43 181.806 118.236 182 117.849 182H106.535C106.148 182 105.954 181.806 105.954 181.419V162.483C105.954 162.415 105.931 162.335 105.886 162.244L92.0771 133.841C91.986 133.636 91.9974 133.442 92.1113 133.26C92.2253 133.077 92.3962 132.986 92.624 132.986H104.826C105.054 132.986 105.236 133.112 105.373 133.362L111.628 148.162C111.742 148.39 111.924 148.504 112.175 148.504C112.425 148.504 112.596 148.39 112.688 148.162L119.011 133.362C119.125 133.112 119.307 132.986 119.558 132.986H131.623ZM137.502 146.932C140.533 145.177 143.825 144.3 147.38 144.3C150.935 144.3 154.227 145.177 157.258 146.932C160.288 148.663 162.681 151.022 164.436 154.007C166.19 156.992 167.067 160.239 167.067 163.748C167.067 166.368 166.543 168.886 165.495 171.302C164.47 173.694 163.068 175.757 161.291 177.488C159.536 179.22 157.44 180.599 155.002 181.624C152.587 182.649 150.046 183.162 147.38 183.162C143.825 183.162 140.533 182.296 137.502 180.564C134.471 178.833 132.067 176.474 130.29 173.489C128.535 170.504 127.658 167.257 127.658 163.748C127.658 160.239 128.535 156.992 130.29 154.007C132.067 151.022 134.471 148.663 137.502 146.932ZM141.296 169.729C142.982 171.37 145.01 172.19 147.38 172.19C149.75 172.19 151.766 171.37 153.43 169.729C155.116 168.089 155.959 166.095 155.959 163.748C155.959 161.401 155.116 159.407 153.43 157.767C151.766 156.103 149.75 155.271 147.38 155.271C145.01 155.271 142.982 156.103 141.296 157.767C139.61 159.407 138.767 161.401 138.767 163.748C138.767 166.095 139.61 168.089 141.296 169.729ZM201.828 144.881C202.215 144.881 202.409 145.086 202.409 145.496V181.419C202.409 181.806 202.215 182 201.828 182H191.438C191.05 182 190.856 181.806 190.856 181.419V180.394C190.856 180.28 190.799 180.2 190.686 180.154C190.594 180.086 190.503 180.086 190.412 180.154C188.088 181.749 185.593 182.547 182.927 182.547C179.691 182.547 176.683 181.533 173.903 179.505L173.835 179.471C173.539 179.22 173.254 178.969 172.98 178.719C171.18 176.919 169.995 175.153 169.426 173.421C168.856 171.666 168.571 169.319 168.571 166.38V145.496C168.571 145.086 168.765 144.881 169.152 144.881H180.227C180.614 144.881 180.808 145.086 180.808 145.496V165.799C180.808 167.667 181.024 169.069 181.457 170.003C181.708 170.527 182.061 170.971 182.517 171.336C183.2 171.883 184.112 172.156 185.251 172.156C186.322 172.156 187.245 171.985 188.02 171.644C188.794 171.302 189.307 170.835 189.558 170.242C189.968 169.376 190.173 167.895 190.173 165.799V145.496C190.173 145.086 190.367 144.881 190.754 144.881H201.828ZM217.312 169.832C217.699 169.832 217.893 170.037 217.893 170.447V181.385C217.893 181.795 217.699 182 217.312 182H206.374C206.215 182 206.066 181.943 205.93 181.829C205.816 181.715 205.759 181.567 205.759 181.385V170.447C205.759 170.265 205.816 170.117 205.93 170.003C206.066 169.889 206.215 169.832 206.374 169.832H217.312ZM217.312 132.952C217.699 132.952 217.893 133.146 217.893 133.533V165.525C217.893 165.936 217.699 166.141 217.312 166.141H206.34C205.952 166.141 205.759 165.936 205.759 165.525V133.533C205.759 133.146 205.952 132.952 206.34 132.952H217.312Z" fill="#FCF3E4"/>
    <path d="M413 337C409.551 337 406.32 336.68 403.398 336.055C400.806 335.499 398.411 334.706 396.057 333.622C391.71 331.62 388.189 328.909 384.771 326.296C378.009 321.096 371.019 315.73 357.575 315.73C344.132 315.73 337.142 321.096 330.379 326.296C326.972 328.909 323.441 331.62 319.094 333.622C316.74 334.706 314.334 335.499 311.753 336.055C308.821 336.68 305.589 337 302.151 337C297.876 337 293.88 335.985 290.246 333.969C287.035 332.19 284.061 329.646 281.15 326.185C275.77 319.79 271.403 311.129 267.17 302.76C258.786 286.162 250.123 268.993 233.49 268.993C216.846 268.993 208.183 286.162 199.809 302.76C195.586 311.129 191.219 319.79 185.829 326.185C182.918 329.646 179.944 332.204 176.733 333.969C173.233 335.916 169.371 336.93 165.272 337C165.221 337 165.159 337 165.107 337C165.014 337 164.921 337 164.839 337C159.862 336.875 155.195 334.845 150.952 330.939C147.09 327.38 143.507 322.278 140.007 315.355C133.533 302.566 128.267 285.258 123.188 268.52C113.1 235.323 102.672 201 82.6413 201C62.6108 201 52.1826 235.323 42.095 268.52C37.0048 285.258 31.7494 302.566 25.2756 315.355C21.7651 322.278 18.1823 327.38 14.3311 330.939C9.9533 334.956 5.14185 337 0 337" stroke="#5E69FF" stroke-width="5" stroke-miterlimit="10"/>
    <path d="M0 226C3.44864 226 6.68044 226.383 9.60249 227.133C12.1941 227.799 14.5896 228.749 16.9437 230.049C21.2907 232.448 24.8116 235.697 28.2293 238.829C34.9923 245.061 41.9825 251.492 55.426 251.492C68.8592 251.492 75.8597 245.061 82.6227 238.829C86.0301 235.697 89.5613 232.448 93.9082 230.049C96.2624 228.749 98.6682 227.799 101.249 227.133C104.182 226.383 107.414 226 110.852 226C115.127 226 119.123 227.216 122.757 229.632C125.968 231.765 128.942 234.814 131.854 238.963C137.233 246.627 141.601 257.007 145.834 267.037C154.218 286.931 162.881 307.508 179.515 307.508C196.159 307.508 204.822 286.931 213.196 267.037C217.419 257.007 221.787 246.627 227.176 238.963C230.088 234.814 233.062 231.748 236.273 229.632C239.773 227.3 243.635 226.083 247.734 226C247.786 226 247.848 226 247.899 226C247.992 226 248.085 226 248.168 226C253.144 226.15 257.811 228.583 262.055 233.264C265.917 237.53 269.5 243.645 273 251.942C279.474 267.271 284.74 288.014 289.82 308.075C299.907 347.863 310.336 389 330.367 389C350.398 389 360.827 347.863 370.914 308.075C376.005 288.014 381.26 267.271 387.734 251.942C391.245 243.645 394.828 237.53 398.679 233.264C403.046 228.449 407.868 226 413 226" stroke="#FFD647" stroke-width="2" stroke-miterlimit="10"/>
    <path d="M110.154 430.454L106.518 443H104.682L101.766 432.902L98.742 443L96.924 443.018L93.414 430.454H95.16L97.896 441.092L100.92 430.454H102.756L105.636 441.056L108.39 430.454H110.154ZM120.947 437.69C120.947 438.002 120.929 438.332 120.893 438.68H113.009C113.069 439.652 113.399 440.414 113.999 440.966C114.611 441.506 115.349 441.776 116.213 441.776C116.921 441.776 117.509 441.614 117.977 441.29C118.457 440.954 118.793 440.51 118.985 439.958H120.749C120.485 440.906 119.957 441.68 119.165 442.28C118.373 442.868 117.389 443.162 116.213 443.162C115.277 443.162 114.437 442.952 113.693 442.532C112.961 442.112 112.385 441.518 111.965 440.75C111.545 439.97 111.335 439.07 111.335 438.05C111.335 437.03 111.539 436.136 111.947 435.368C112.355 434.6 112.925 434.012 113.657 433.604C114.401 433.184 115.253 432.974 116.213 432.974C117.149 432.974 117.977 433.178 118.697 433.586C119.417 433.994 119.969 434.558 120.353 435.278C120.749 435.986 120.947 436.79 120.947 437.69ZM119.255 437.348C119.255 436.724 119.117 436.19 118.841 435.746C118.565 435.29 118.187 434.948 117.707 434.72C117.239 434.48 116.717 434.36 116.141 434.36C115.313 434.36 114.605 434.624 114.017 435.152C113.441 435.68 113.111 436.412 113.027 437.348H119.255ZM123.361 430.454H125.179L123.451 434.54H122.299L123.361 430.454ZM128.684 429.68V443H127.046V429.68H128.684ZM133.114 429.68V443H131.476V429.68H133.114ZM142.342 434.972C142.678 434.384 143.17 433.904 143.818 433.532C144.466 433.16 145.204 432.974 146.032 432.974C146.92 432.974 147.718 433.184 148.426 433.604C149.134 434.024 149.692 434.618 150.1 435.386C150.508 436.142 150.712 437.024 150.712 438.032C150.712 439.028 150.508 439.916 150.1 440.696C149.692 441.476 149.128 442.082 148.408 442.514C147.7 442.946 146.908 443.162 146.032 443.162C145.18 443.162 144.43 442.976 143.782 442.604C143.146 442.232 142.666 441.758 142.342 441.182V443H140.704V429.68H142.342V434.972ZM149.038 438.032C149.038 437.288 148.888 436.64 148.588 436.088C148.288 435.536 147.88 435.116 147.364 434.828C146.86 434.54 146.302 434.396 145.69 434.396C145.09 434.396 144.532 434.546 144.016 434.846C143.512 435.134 143.104 435.56 142.792 436.124C142.492 436.676 142.342 437.318 142.342 438.05C142.342 438.794 142.492 439.448 142.792 440.012C143.104 440.564 143.512 440.99 144.016 441.29C144.532 441.578 145.09 441.722 145.69 441.722C146.302 441.722 146.86 441.578 147.364 441.29C147.88 440.99 148.288 440.564 148.588 440.012C148.888 439.448 149.038 438.788 149.038 438.032ZM161.868 437.69C161.868 438.002 161.85 438.332 161.814 438.68H153.93C153.99 439.652 154.32 440.414 154.92 440.966C155.532 441.506 156.27 441.776 157.134 441.776C157.842 441.776 158.43 441.614 158.898 441.29C159.378 440.954 159.714 440.51 159.906 439.958H161.67C161.406 440.906 160.878 441.68 160.086 442.28C159.294 442.868 158.31 443.162 157.134 443.162C156.198 443.162 155.358 442.952 154.614 442.532C153.882 442.112 153.306 441.518 152.886 440.75C152.466 439.97 152.256 439.07 152.256 438.05C152.256 437.03 152.46 436.136 152.868 435.368C153.276 434.6 153.846 434.012 154.578 433.604C155.322 433.184 156.174 432.974 157.134 432.974C158.07 432.974 158.898 433.178 159.618 433.586C160.338 433.994 160.89 434.558 161.274 435.278C161.67 435.986 161.868 436.79 161.868 437.69ZM160.176 437.348C160.176 436.724 160.038 436.19 159.762 435.746C159.486 435.29 159.108 434.948 158.628 434.72C158.16 434.48 157.638 434.36 157.062 434.36C156.234 434.36 155.526 434.624 154.938 435.152C154.362 435.68 154.032 436.412 153.948 437.348H160.176ZM169.675 431.534C169.363 431.534 169.099 431.426 168.883 431.21C168.667 430.994 168.559 430.73 168.559 430.418C168.559 430.106 168.667 429.842 168.883 429.626C169.099 429.41 169.363 429.302 169.675 429.302C169.975 429.302 170.227 429.41 170.431 429.626C170.647 429.842 170.755 430.106 170.755 430.418C170.755 430.73 170.647 430.994 170.431 431.21C170.227 431.426 169.975 431.534 169.675 431.534ZM170.467 433.136V443H168.829V433.136H170.467ZM178.065 432.956C179.265 432.956 180.237 433.322 180.981 434.054C181.725 434.774 182.097 435.818 182.097 437.186V443H180.477V437.42C180.477 436.436 180.231 435.686 179.739 435.17C179.247 434.642 178.575 434.378 177.723 434.378C176.859 434.378 176.169 434.648 175.653 435.188C175.149 435.728 174.897 436.514 174.897 437.546V443H173.259V433.136H174.897V434.54C175.221 434.036 175.659 433.646 176.211 433.37C176.775 433.094 177.393 432.956 178.065 432.956ZM191.57 434.486V440.3C191.57 440.78 191.672 441.122 191.876 441.326C192.08 441.518 192.434 441.614 192.938 441.614H194.144V443H192.668C191.756 443 191.072 442.79 190.616 442.37C190.16 441.95 189.932 441.26 189.932 440.3V434.486H188.654V433.136H189.932V430.652H191.57V433.136H194.144V434.486H191.57ZM200.43 443.162C199.506 443.162 198.666 442.952 197.91 442.532C197.166 442.112 196.578 441.518 196.146 440.75C195.726 439.97 195.516 439.07 195.516 438.05C195.516 437.042 195.732 436.154 196.164 435.386C196.608 434.606 197.208 434.012 197.964 433.604C198.72 433.184 199.566 432.974 200.502 432.974C201.438 432.974 202.284 433.184 203.04 433.604C203.796 434.012 204.39 434.6 204.822 435.368C205.266 436.136 205.488 437.03 205.488 438.05C205.488 439.07 205.26 439.97 204.804 440.75C204.36 441.518 203.754 442.112 202.986 442.532C202.218 442.952 201.366 443.162 200.43 443.162ZM200.43 441.722C201.018 441.722 201.57 441.584 202.086 441.308C202.602 441.032 203.016 440.618 203.328 440.066C203.652 439.514 203.814 438.842 203.814 438.05C203.814 437.258 203.658 436.586 203.346 436.034C203.034 435.482 202.626 435.074 202.122 434.81C201.618 434.534 201.072 434.396 200.484 434.396C199.884 434.396 199.332 434.534 198.828 434.81C198.336 435.074 197.94 435.482 197.64 436.034C197.34 436.586 197.19 437.258 197.19 438.05C197.19 438.854 197.334 439.532 197.622 440.084C197.922 440.636 198.318 441.05 198.81 441.326C199.302 441.59 199.842 441.722 200.43 441.722ZM216.39 433.136V443H214.752V441.542C214.44 442.046 214.002 442.442 213.438 442.73C212.886 443.006 212.274 443.144 211.602 443.144C210.834 443.144 210.144 442.988 209.532 442.676C208.92 442.352 208.434 441.872 208.074 441.236C207.726 440.6 207.552 439.826 207.552 438.914V433.136H209.172V438.698C209.172 439.67 209.418 440.42 209.91 440.948C210.402 441.464 211.074 441.722 211.926 441.722C212.802 441.722 213.492 441.452 213.996 440.912C214.5 440.372 214.752 439.586 214.752 438.554V433.136H216.39ZM218.544 438.05C218.544 437.03 218.748 436.142 219.156 435.386C219.564 434.618 220.128 434.024 220.848 433.604C221.58 433.184 222.414 432.974 223.35 432.974C224.562 432.974 225.558 433.268 226.338 433.856C227.13 434.444 227.652 435.26 227.904 436.304H226.14C225.972 435.704 225.642 435.23 225.15 434.882C224.67 434.534 224.07 434.36 223.35 434.36C222.414 434.36 221.658 434.684 221.082 435.332C220.506 435.968 220.218 436.874 220.218 438.05C220.218 439.238 220.506 440.156 221.082 440.804C221.658 441.452 222.414 441.776 223.35 441.776C224.07 441.776 224.67 441.608 225.15 441.272C225.63 440.936 225.96 440.456 226.14 439.832H227.904C227.64 440.84 227.112 441.65 226.32 442.262C225.528 442.862 224.538 443.162 223.35 443.162C222.414 443.162 221.58 442.952 220.848 442.532C220.128 442.112 219.564 441.518 219.156 440.75C218.748 439.982 218.544 439.082 218.544 438.05ZM234.985 432.956C235.729 432.956 236.401 433.118 237.001 433.442C237.601 433.754 238.069 434.228 238.405 434.864C238.753 435.5 238.927 436.274 238.927 437.186V443H237.307V437.42C237.307 436.436 237.061 435.686 236.569 435.17C236.077 434.642 235.405 434.378 234.553 434.378C233.689 434.378 232.999 434.648 232.483 435.188C231.979 435.728 231.727 436.514 231.727 437.546V443H230.089V429.68H231.727V434.54C232.051 434.036 232.495 433.646 233.059 433.37C233.635 433.094 234.277 432.956 234.985 432.956ZM249.894 443.162C249.138 443.162 248.46 443.036 247.86 442.784C247.26 442.52 246.786 442.16 246.438 441.704C246.09 441.236 245.898 440.702 245.862 440.102H247.554C247.602 440.594 247.83 440.996 248.238 441.308C248.658 441.62 249.204 441.776 249.876 441.776C250.5 441.776 250.992 441.638 251.352 441.362C251.712 441.086 251.892 440.738 251.892 440.318C251.892 439.886 251.7 439.568 251.316 439.364C250.932 439.148 250.338 438.938 249.534 438.734C248.802 438.542 248.202 438.35 247.734 438.158C247.278 437.954 246.882 437.66 246.546 437.276C246.222 436.88 246.06 436.364 246.06 435.728C246.06 435.224 246.21 434.762 246.51 434.342C246.81 433.922 247.236 433.592 247.788 433.352C248.34 433.1 248.97 432.974 249.678 432.974C250.77 432.974 251.652 433.25 252.324 433.802C252.996 434.354 253.356 435.11 253.404 436.07H251.766C251.73 435.554 251.52 435.14 251.136 434.828C250.764 434.516 250.26 434.36 249.624 434.36C249.036 434.36 248.568 434.486 248.22 434.738C247.872 434.99 247.698 435.32 247.698 435.728C247.698 436.052 247.8 436.322 248.004 436.538C248.22 436.742 248.484 436.91 248.796 437.042C249.12 437.162 249.564 437.3 250.128 437.456C250.836 437.648 251.412 437.84 251.856 438.032C252.3 438.212 252.678 438.488 252.99 438.86C253.314 439.232 253.482 439.718 253.494 440.318C253.494 440.858 253.344 441.344 253.044 441.776C252.744 442.208 252.318 442.55 251.766 442.802C251.226 443.042 250.602 443.162 249.894 443.162ZM260.702 432.956C261.446 432.956 262.118 433.118 262.718 433.442C263.318 433.754 263.786 434.228 264.122 434.864C264.47 435.5 264.644 436.274 264.644 437.186V443H263.024V437.42C263.024 436.436 262.778 435.686 262.286 435.17C261.794 434.642 261.122 434.378 260.27 434.378C259.406 434.378 258.716 434.648 258.2 435.188C257.696 435.728 257.444 436.514 257.444 437.546V443H255.806V429.68H257.444V434.54C257.768 434.036 258.212 433.646 258.776 433.37C259.352 433.094 259.994 432.956 260.702 432.956ZM271.622 443.162C270.698 443.162 269.858 442.952 269.102 442.532C268.358 442.112 267.77 441.518 267.338 440.75C266.918 439.97 266.708 439.07 266.708 438.05C266.708 437.042 266.924 436.154 267.356 435.386C267.8 434.606 268.4 434.012 269.156 433.604C269.912 433.184 270.758 432.974 271.694 432.974C272.63 432.974 273.476 433.184 274.232 433.604C274.988 434.012 275.582 434.6 276.014 435.368C276.458 436.136 276.68 437.03 276.68 438.05C276.68 439.07 276.452 439.97 275.996 440.75C275.552 441.518 274.946 442.112 274.178 442.532C273.41 442.952 272.558 443.162 271.622 443.162ZM271.622 441.722C272.21 441.722 272.762 441.584 273.278 441.308C273.794 441.032 274.208 440.618 274.52 440.066C274.844 439.514 275.006 438.842 275.006 438.05C275.006 437.258 274.85 436.586 274.538 436.034C274.226 435.482 273.818 435.074 273.314 434.81C272.81 434.534 272.264 434.396 271.676 434.396C271.076 434.396 270.524 434.534 270.02 434.81C269.528 435.074 269.132 435.482 268.832 436.034C268.532 436.586 268.382 437.258 268.382 438.05C268.382 438.854 268.526 439.532 268.814 440.084C269.114 440.636 269.51 441.05 270.002 441.326C270.494 441.59 271.034 441.722 271.622 441.722ZM280.471 434.738C280.759 434.174 281.167 433.736 281.695 433.424C282.235 433.112 282.889 432.956 283.657 432.956V434.648H283.225C281.389 434.648 280.471 435.644 280.471 437.636V443H278.833V433.136H280.471V434.738ZM287.546 434.486V440.3C287.546 440.78 287.648 441.122 287.852 441.326C288.056 441.518 288.41 441.614 288.914 441.614H290.12V443H288.644C287.732 443 287.048 442.79 286.592 442.37C286.136 441.95 285.908 441.26 285.908 440.3V434.486H284.63V433.136H285.908V430.652H287.546V433.136H290.12V434.486H287.546ZM293.743 429.68V443H292.105V429.68H293.743ZM305.03 433.136L299.09 447.644H297.398L299.342 442.892L295.364 433.136H297.182L300.278 441.128L303.338 433.136H305.03ZM307.199 443.108C306.887 443.108 306.623 443 306.407 442.784C306.191 442.568 306.083 442.304 306.083 441.992C306.083 441.68 306.191 441.416 306.407 441.2C306.623 440.984 306.887 440.876 307.199 440.876C307.499 440.876 307.751 440.984 307.955 441.2C308.171 441.416 308.279 441.68 308.279 441.992C308.279 442.304 308.171 442.568 307.955 442.784C307.751 443 307.499 443.108 307.199 443.108Z" fill="#FCF3E4"/>
</svg>
