<svg fill="none" height="106" viewBox="0 0 253 106" width="253" xmlns="http://www.w3.org/2000/svg" xmlns:xlink="http://www.w3.org/1999/xlink"><clipPath id="a"><path d="m0 0h253v106h-253z"/></clipPath><g clip-path="url(#a)"><rect fill="#eb5757" height="64" rx="30" transform="matrix(.99788862 -.06494839 .06494839 .99788862 -1.874932 .182509)" width="246" x="1.87" y="28.929"/><rect fill="#FCF3E4" height="64" rx="30" transform="matrix(.98480775 -.17364818 .17364818 .98480775 -7.417799 .648973)" width="246" y="42.717"/><g fill="#000"><path d="m202.476 26.2007 4.183-.7377c1.702-.3 3.75-.2956 5.099.3073 1.747.7885 3.061 2.0191 4.17 5.406.463 1.3806.859 3.2117 1.253 5.4452.743 4.2189.822 6.3252.643 8.0019-.401 3.3241-2.282 5.3008-5.969 5.9509l-4.928.869zm5.296 3.0871 3.076 17.443c1.737-.3064 2.146-.8902 2.338-1.8745s-.046-2.953-.833-7.4201c-.901-5.1052-1.313-6.8237-2.126-7.7038-.586-.6278-1.314-.6091-2.455-.4446z"/><path d="m195.062 27.5083 4.609-.8127 4.451 25.2426-4.609.8127z"/><path d="m180.802 30.0225 5.708-1.0065c1.737-.3063 3.433-.0204 4.803.9078 1.364.8928 2.208 2.5717 2.527 4.3798.5 2.8362-.389 5.2593-3.119 6.3622l.013.0709c3.286.1881 5.121 2.0944 5.69 5.3207.375 2.1272.043 3.9769-.973 5.472-1.015 1.4951-2.646 2.4041-4.419 2.7167l-5.779 1.019zm5.259 2.8744 1.176 6.6652c2.304-.4064 2.719-1.5762 2.313-3.8807-.138-.7799-.325-1.8435-.911-2.4713-.407-.4401-1.124-.5695-2.117-.3945zm1.863 10.565 1.288 7.3034c1.383-.2438 1.906-.592 2.327-1.105.422-.5129.526-1.3721.207-3.1802-.5-2.8363-1.659-3.3995-3.822-3.0182z"/><path d="m179.585 37.658-4.112.7252-.069-.39c-.438-2.4817-1.238-3.291-2.444-3.0784-1.099.1937-1.574 1.2281-1.331 2.6107.275 1.56 1.51 2.5486 3.747 3.8356 1.75 1.0075 3.191 1.9232 4.235 2.8723 1.571 1.4412 2.379 3.1263 2.692 4.899.731 4.148-1.256 7.3864-5.121 8.0678-3.829.6751-6.389-1.615-7.296-6.7557l4.113-.7252.069.39c.431 2.4463 1.257 3.3973 2.604 3.1598 1.312-.2313 1.856-1.4971 1.625-2.8089-.288-1.6308-1.481-2.5903-3.753-3.871-1.625-.9199-2.88-1.6125-3.871-2.4614-1.76-1.4809-2.669-3.1118-3.037-5.2035-.707-4.0062 1.02-7.2717 4.743-7.9281 3.687-.6502 6.145 1.4752 7.206 6.6618z"/><path d="m155.216 34.5342 10.424-1.8379.687 3.8998-5.814 1.0252 1.138 6.4525 4.289-.7564.726 4.1125-4.29.7565 1.213 6.8779 6.062-1.069.688 3.8998-10.672 1.8817z"/><path d="m142.752 36.7319 4.609-.8126 3.764 21.3427 5.885-1.0377.688 3.8998-10.495 1.8504z"/><path d="m128.973 39.1616 4.715-.8314c4.964-.8752 8.185.6038 9.167 6.17.45 2.5526.439 5.8079-1.959 7.5468-.747.5338-1.383.8653-3.298 1.2029l-1.347.2375 1.782 10.1041-4.609.8127zm5.332 3.0809 1.331 7.5515.426-.075c2.233-.3938 2.653-1.7472 2.203-4.2998s-1.23-3.658-3.357-3.2829z"/><path d="m128.902 52.1879c1.575 8.9342.221 13.4865-4.423 14.3054-4.645.819-7.474-2.9957-9.05-11.9299-1.575-8.9341-.221-13.4864 4.424-14.3054 4.644-.8189 7.473 2.9958 9.049 11.9299zm-8.97-1.5257 1.063 6.0271c.331 1.879.719 3.4556 1.161 4.5109.455 1.1262.961 1.5121 1.635 1.3933.78-.1375 1.022-.8382 1.076-1.981.055-1.1428-.187-2.928-.468-4.5234l-1.063-6.027c-.269-1.5245-.565-2.7883-.894-3.8269-.488-1.5224-1.051-2.2273-1.902-2.0773-.78.1375-1.057.8444-1.068 2.2354-.004 1.4264.204 2.8154.46 4.2689z"/><path d="m101.414 44.021 10.423-1.8379.687 3.8998-5.814 1.0253 1.138 6.4524 4.29-.7564.725 4.1126-4.29.7564 1.213 6.8779 6.062-1.069.688 3.8998-10.671 1.8817z"/><path d="m87.634 46.4507 4.7153-.8314c4.9634-.8752 8.1857.6038 9.1667 6.1699.45 2.5526.439 5.808-1.9593 7.5469-.7467.5338-1.3828.8653-3.2972 1.2028l-1.3472.2376 1.7816 10.1041-4.6089.8127zm5.332 3.0809 1.3316 7.5515.4254-.075c2.2335-.3938 2.6529-1.7472 2.2028-4.2999-.4501-2.5526-1.2299-3.658-3.3571-3.2829z"/><path d="m75.1699 48.6484 10.4232-1.8379.6877 3.8999-5.8143 1.0252 1.1377 6.4525 4.2898-.7564.7252 4.1125-4.2898.7564 1.2127 6.8779 6.0625-1.069.6876 3.8999-10.6713 1.8816z"/><path d="m60.0747 51.3101 4.6089-.8127 1.7879 10.1396 2.9071-.5126-1.7878-10.1396 4.6089-.8127 4.4509 25.2426-4.6089.8127-1.8879-10.7069-2.9071.5126 1.8879 10.7069-4.6089.8127z"/><path d="m46.3906 53.7231 12.5504-2.2129.6877 3.8998-3.9708.7002 3.7633 21.3427-4.6089.8127-3.7633-21.3428-3.9707.7002z"/><path d="m38.3168 63.2252-.247-8.0352 2.1626-.3813.318 8.0227 2.7653-.4876-.247-8.0352 2.269-.4001.247 8.0352 2.5526-.4501.3751 2.1272-2.8008.4938.1161 5.4263 2.588-.4563.3751 2.1272-2.9071.5126.3951 8.0456-2.2336.3938-.3596-8.0518-2.8008.4938.3242 8.0581-2.269.4001-.3242-8.0581-2.5526.4501-.3751-2.1272 2.8008-.4938-.1515-5.4201-2.5526.4501-.3751-2.1272zm2.2896 1.7896.1869 5.4138 2.8008-.4938-.1515-5.4201z"/></g></g></svg>