<svg width="22" height="22" viewBox="0 0 22 22" fill="none" xmlns="http://www.w3.org/2000/svg">
<path d="M5.87759 13.841C6.83834 15.3784 8.54722 16.4095 10.4976 16.4095C12.448 16.4095 14.1568 15.3784 15.1176 13.841C15.1438 13.8149 15.1622 13.781 15.1753 13.7471C15.6557 12.9405 15.9366 12.0034 15.9366 11.0011C15.9366 9.99881 15.6557 9.06174 15.1753 8.25519C15.1622 8.21864 15.1438 8.18732 15.1176 8.16122C14.1568 6.62381 12.448 5.59277 10.4976 5.59277C8.54722 5.59277 6.83834 6.62381 5.87759 8.16122C5.85134 8.18732 5.83297 8.22125 5.81984 8.25519C5.33947 9.06174 5.05859 9.99881 5.05859 11.0011C5.05859 12.0034 5.33947 12.9405 5.81984 13.7471C5.83297 13.7836 5.85134 13.8149 5.87759 13.841ZM6.21359 8.59451H7.96184C7.79647 9.24446 7.69672 9.97009 7.68097 10.7453H5.58622C5.62559 9.96748 5.84609 9.23662 6.21359 8.59451ZM15.4116 10.7479H13.3168C13.2985 9.9727 13.2013 9.24707 13.036 8.59712H14.7842C15.1517 9.23662 15.3722 9.96748 15.4116 10.7479ZM14.7842 13.4077H13.036C13.2013 12.7578 13.3011 12.0322 13.3168 11.2569H15.4116C15.3722 12.0348 15.1517 12.7656 14.7842 13.4077ZM10.243 13.9193V15.8718C9.60247 15.7152 9.03284 14.9765 8.65484 13.9193H10.243ZM8.49734 13.4077C8.32147 12.763 8.21384 12.0295 8.19284 11.2569H10.2456V13.4077H8.49734ZM10.7575 15.8666V13.9141H12.3456C11.965 14.9713 11.398 15.7099 10.7575 15.8666ZM10.7575 13.4077V11.2569H12.8102C12.7892 12.0295 12.6816 12.763 12.5057 13.4077H10.7575ZM12.805 10.7479H10.7522V8.59712H12.5005C12.679 9.24185 12.7866 9.9727 12.805 10.7479ZM10.7575 8.08552V6.13309C11.398 6.2897 11.9676 7.02839 12.3456 8.08552H10.7575ZM10.243 6.1357V8.08813H8.65484C9.03547 7.031 9.60247 6.29231 10.243 6.1357ZM10.243 8.59451V10.7453H8.19022C8.21122 9.9727 8.31884 9.23923 8.49472 8.59451H10.243ZM7.68097 11.2569C7.69934 12.0322 7.79647 12.7578 7.96184 13.4077H6.21359C5.84872 12.7656 5.62822 12.0348 5.58622 11.2569H7.68097ZM6.54697 13.9167H8.10622C8.34772 14.6502 8.67847 15.2584 9.07222 15.6917C8.05109 15.3837 7.16909 14.7494 6.54697 13.9167ZM11.923 15.6917C12.3167 15.2584 12.6475 14.6502 12.889 13.9167H14.4482C13.8261 14.7494 12.9441 15.3837 11.923 15.6917ZM14.4508 8.08552H12.8916C12.6501 7.35205 12.3193 6.74388 11.9256 6.31058C12.9467 6.6212 13.8287 7.25287 14.4508 8.08552ZM9.07484 6.31319C8.68109 6.74649 8.35034 7.35466 8.10884 8.08813H6.54959C7.17172 7.25287 8.05372 6.6212 9.07484 6.31319Z" fill="black"/>
<mask id="path-2-inside-1_2248_605" fill="#FCF3E4">
<path d="M20.892 8.02275C20.7765 7.94183 20.6164 7.96793 20.535 8.08278L19.4955 9.53145C18.8078 5.80668 15.9203 2.88847 12.1272 2.16805C9.3368 1.63557 6.49655 2.38209 4.33617 4.21445C4.22855 4.30581 4.21542 4.46764 4.3073 4.57466C4.39917 4.68168 4.56192 4.69473 4.66955 4.60337C6.7118 2.8702 9.39455 2.16544 12.0327 2.66921C15.6499 3.35569 18.393 6.16167 19.0073 9.72983L17.4192 8.60221C17.3037 8.5213 17.1435 8.5474 17.0622 8.66225C16.9808 8.7771 17.007 8.93632 17.1225 9.01724L19.359 10.6042L19.5323 10.3615C19.5323 10.3615 19.5428 10.3484 19.548 10.3406L20.955 8.38035C21.0338 8.26289 21.0075 8.10366 20.892 8.02275Z"/>
</mask>
<path d="M20.892 8.02275C20.7765 7.94183 20.6164 7.96793 20.535 8.08278L19.4955 9.53145C18.8078 5.80668 15.9203 2.88847 12.1272 2.16805C9.3368 1.63557 6.49655 2.38209 4.33617 4.21445C4.22855 4.30581 4.21542 4.46764 4.3073 4.57466C4.39917 4.68168 4.56192 4.69473 4.66955 4.60337C6.7118 2.8702 9.39455 2.16544 12.0327 2.66921C15.6499 3.35569 18.393 6.16167 19.0073 9.72983L17.4192 8.60221C17.3037 8.5213 17.1435 8.5474 17.0622 8.66225C16.9808 8.7771 17.007 8.93632 17.1225 9.01724L19.359 10.6042L19.5323 10.3615C19.5323 10.3615 19.5428 10.3484 19.548 10.3406L20.955 8.38035C21.0338 8.26289 21.0075 8.10366 20.892 8.02275Z" fill="#790E70"/>
<path d="M20.535 8.08278L21.7538 8.95729L21.759 8.94998L20.535 8.08278ZM19.4955 9.53145L18.0205 9.80381L18.6602 13.2685L20.7143 10.4059L19.4955 9.53145ZM12.1272 2.16805L11.846 3.64146L11.8473 3.64171L12.1272 2.16805ZM4.33617 4.21445L3.36591 3.07051L3.36546 3.07089L4.33617 4.21445ZM4.66955 4.60337L3.69896 3.45971L3.69884 3.45982L4.66955 4.60337ZM12.0327 2.66921L11.7513 4.14259L11.753 4.14291L12.0327 2.66921ZM19.0073 9.72983L18.1389 10.9529L21.1021 13.0568L20.4856 9.47535L19.0073 9.72983ZM17.4192 8.60221L18.2876 7.37913L18.2798 7.3737L17.4192 8.60221ZM17.1225 9.01724L17.9906 7.79391L17.9832 7.78872L17.1225 9.01724ZM19.359 10.6042L18.491 11.8276L19.711 12.6932L20.58 11.4756L19.359 10.6042ZM19.5323 10.3615L18.3636 9.42126L18.3365 9.45493L18.3114 9.49011L19.5323 10.3615ZM19.548 10.3406L18.3295 9.46596L18.3155 9.48541L18.3021 9.50531L19.548 10.3406ZM20.955 8.38035L22.1736 9.25501L22.1876 9.23555L22.2009 9.21565L20.955 8.38035ZM21.7527 6.79423C20.9765 6.25044 19.8803 6.41226 19.3111 7.21559L21.759 8.94998C21.3525 9.52361 20.5766 9.63322 20.0314 9.25126L21.7527 6.79423ZM19.3163 7.20829L18.2768 8.65695L20.7143 10.4059L21.7538 8.95728L19.3163 7.20829ZM20.9706 9.25909C20.1699 4.92256 16.8052 1.52971 12.4071 0.694393L11.8473 3.64171C15.0354 4.24722 17.4457 6.6908 18.0205 9.80381L20.9706 9.25909ZM12.4083 0.694637C9.17362 0.0773615 5.87307 0.944018 3.36591 3.07051L5.30643 5.35839C7.12002 3.82016 9.49997 3.19377 11.846 3.64146L12.4083 0.694637ZM3.36546 3.07089C2.62702 3.69772 2.53278 4.81045 3.16917 5.55174L5.44542 3.59759C5.89806 4.12484 5.83008 4.9139 5.30688 5.35801L3.36546 3.07089ZM3.16917 5.55174C3.79744 6.28356 4.90226 6.37338 5.64025 5.74693L3.69884 3.45982C4.22158 3.01609 5.0009 3.0798 5.44542 3.59759L3.16917 5.55174ZM5.64013 5.74704C7.33535 4.30837 9.55752 3.72366 11.7513 4.14259L12.314 1.19583C9.23158 0.607215 6.08824 1.43202 3.69896 3.45971L5.64013 5.74704ZM11.753 4.14291C14.7578 4.71316 17.0213 7.035 17.529 9.9843L20.4856 9.47535C19.7648 5.28834 16.5421 1.99823 12.3124 1.19551L11.753 4.14291ZM19.8757 8.50677L18.2876 7.37916L16.5508 9.82527L18.1389 10.9529L19.8757 8.50677ZM18.2798 7.3737C17.5036 6.82991 16.4074 6.99172 15.8383 7.79506L18.2861 9.52944C17.8796 10.1031 17.1037 10.2127 16.5585 9.83073L18.2798 7.3737ZM15.8383 7.79506C15.2839 8.57744 15.4544 9.68004 16.2619 10.2458L17.9832 7.78872C18.5597 8.1926 18.6777 8.97676 18.2861 9.52944L15.8383 7.79506ZM16.2545 10.2405L18.491 11.8276L20.2271 9.38094L17.9906 7.79393L16.2545 10.2405ZM20.58 11.4756L20.7532 11.2329L18.3114 9.49011L18.1381 9.73286L20.58 11.4756ZM19.5323 10.3615C20.701 11.3017 20.7011 11.3017 20.7011 11.3017C20.7011 11.3017 20.7011 11.3016 20.7011 11.3016C20.7012 11.3016 20.7012 11.3015 20.7012 11.3015C20.7013 11.3014 20.7013 11.3014 20.7014 11.3013C20.7015 11.3011 20.7017 11.3009 20.7018 11.3008C20.7021 11.3004 20.7024 11.3001 20.7027 11.2997C20.7033 11.299 20.7039 11.2981 20.7046 11.2972C20.7061 11.2954 20.7078 11.2933 20.7097 11.2908C20.7135 11.2861 20.7186 11.2796 20.7247 11.2718C20.7294 11.2657 20.7606 11.2257 20.7939 11.1759L18.3021 9.50531C18.3195 9.47939 18.3335 9.46049 18.3382 9.45414C18.3445 9.44566 18.3493 9.43938 18.3518 9.43621C18.3545 9.43267 18.3567 9.42984 18.3583 9.42782C18.3592 9.42673 18.36 9.42566 18.3609 9.42461C18.3613 9.42408 18.3617 9.42353 18.3622 9.42298C18.3624 9.4227 18.3626 9.42242 18.3629 9.42213C18.363 9.42199 18.3631 9.42185 18.3632 9.4217C18.3633 9.42163 18.3633 9.42156 18.3634 9.42148C18.3634 9.42145 18.3634 9.42141 18.3635 9.42137C18.3635 9.42135 18.3635 9.42133 18.3635 9.42132C18.3635 9.42129 18.3636 9.42126 19.5323 10.3615ZM20.7666 11.2153L22.1736 9.25501L19.7365 7.50569L18.3295 9.46596L20.7666 11.2153ZM22.2009 9.21565C22.7131 8.45173 22.5677 7.36519 21.7527 6.79423L20.0314 9.25126C19.4474 8.84214 19.3545 8.07405 19.7091 7.54504L22.2009 9.21565Z" fill="#790E70" mask="url(#path-2-inside-1_2248_605)"/>
<mask id="path-4-inside-2_2248_605" fill="#FCF3E4">
<path d="M16.3301 17.4016C14.2878 19.1348 11.6051 19.8395 8.96694 19.3357C5.35231 18.6519 2.60919 15.8433 1.99494 12.2777L3.58307 13.4054C3.69857 13.4863 3.85869 13.4602 3.94007 13.3453C4.02144 13.2305 3.99519 13.0712 3.87969 12.9903L1.64319 11.4033L1.46994 11.6435C1.46994 11.6435 1.45944 11.6591 1.45419 11.667L0.0471898 13.6272C-0.0341852 13.7421 -0.00793518 13.9013 0.107565 13.9822C0.15219 14.0135 0.20469 14.0292 0.25719 14.0292C0.33594 14.0292 0.41469 13.9926 0.46719 13.9222L1.50669 12.4735C2.19181 16.1983 5.07669 19.1191 8.86982 19.8369C9.46044 19.9491 10.0511 20.004 10.6391 20.004C12.8309 20.004 14.9572 19.2339 16.6608 17.7879C16.7684 17.6965 16.7816 17.5347 16.6897 17.4277C16.5978 17.3233 16.4351 17.3102 16.3274 17.4016H16.3301Z"/>
</mask>
<path d="M16.3301 17.4016C14.2878 19.1348 11.6051 19.8395 8.96694 19.3357C5.35231 18.6519 2.60919 15.8433 1.99494 12.2777L3.58307 13.4054C3.69857 13.4863 3.85869 13.4602 3.94007 13.3453C4.02144 13.2305 3.99519 13.0712 3.87969 12.9903L1.64319 11.4033L1.46994 11.6435C1.46994 11.6435 1.45944 11.6591 1.45419 11.667L0.0471898 13.6272C-0.0341852 13.7421 -0.00793518 13.9013 0.107565 13.9822C0.15219 14.0135 0.20469 14.0292 0.25719 14.0292C0.33594 14.0292 0.41469 13.9926 0.46719 13.9222L1.50669 12.4735C2.19181 16.1983 5.07669 19.1191 8.86982 19.8369C9.46044 19.9491 10.0511 20.004 10.6391 20.004C12.8309 20.004 14.9572 19.2339 16.6608 17.7879C16.7684 17.6965 16.7816 17.5347 16.6897 17.4277C16.5978 17.3233 16.4351 17.3102 16.3274 17.4016H16.3301Z" fill="#790E70"/>
<path d="M16.3301 17.4016L17.3006 18.5452L20.4157 15.9016H16.3301V17.4016ZM8.96694 19.3357L9.24829 17.8624L9.24579 17.8619L8.96694 19.3357ZM1.99494 12.2777L2.86334 11.0547L-0.100376 8.95036L0.516715 12.5324L1.99494 12.2777ZM3.58307 13.4054L2.71464 14.6284L2.7224 14.6339L3.58307 13.4054ZM3.87969 12.9903L3.01162 14.2137L3.01902 14.2188L3.87969 12.9903ZM1.64319 11.4033L2.51124 10.18L1.2975 9.31874L0.42673 10.5257L1.64319 11.4033ZM1.46994 11.6435L0.25348 10.7658L0.238396 10.7867L0.224039 10.8082L1.46994 11.6435ZM1.45419 11.667L2.67278 12.5416L2.68675 12.5222L2.70009 12.5023L1.45419 11.667ZM0.0471898 13.6272L-1.17143 12.7525L-1.17673 12.76L0.0471898 13.6272ZM0.107565 13.9822L0.969328 12.7545L0.968233 12.7537L0.107565 13.9822ZM0.46719 13.9222L1.67011 14.8183L1.6781 14.8075L1.6859 14.7967L0.46719 13.9222ZM1.50669 12.4735L2.98194 12.2022L2.34397 8.73374L0.287978 11.599L1.50669 12.4735ZM8.86982 19.8369L9.14986 18.3633L9.14872 18.3631L8.86982 19.8369ZM16.6608 17.7879L17.6315 18.9315L17.6315 18.9314L16.6608 17.7879ZM16.6897 17.4277L17.8278 16.4506L17.8218 16.4437L17.8158 16.4368L16.6897 17.4277ZM16.3274 17.4016L15.3567 16.258L12.2424 18.9016H16.3274V17.4016ZM15.3595 16.2579C13.6643 17.6966 11.4421 18.2813 9.24829 17.8624L8.68559 20.8091C11.768 21.3977 14.9114 20.5729 17.3006 18.5452L15.3595 16.2579ZM9.24579 17.8619C6.24507 17.2942 3.98096 14.9707 3.47316 12.0231L0.516715 12.5324C1.23742 16.7159 4.45956 20.0096 8.68809 20.8096L9.24579 17.8619ZM1.12654 13.5008L2.71466 14.6284L4.45147 12.1823L2.86334 11.0547L1.12654 13.5008ZM2.7224 14.6339C3.4986 15.1777 4.59479 15.0158 5.16398 14.2125L2.71615 12.4781C3.12259 11.9045 3.89853 11.7949 4.44373 12.1768L2.7224 14.6339ZM5.16398 14.2125C5.71833 13.4301 5.54786 12.3275 4.74036 11.7618L3.01902 14.2188C2.44252 13.815 2.32455 13.0308 2.71615 12.4781L5.16398 14.2125ZM4.74774 11.767L2.51124 10.18L0.775138 12.6266L3.01164 14.2136L4.74774 11.767ZM0.42673 10.5257L0.25348 10.7658L2.6864 12.5211L2.85965 12.2809L0.42673 10.5257ZM1.46994 11.6435C0.224039 10.8082 0.224039 10.8082 0.224039 10.8082C0.224039 10.8082 0.224039 10.8082 0.224039 10.8082C0.224038 10.8082 0.224038 10.8082 0.224038 10.8082C0.224036 10.8082 0.224034 10.8082 0.224032 10.8082C0.224027 10.8082 0.224019 10.8082 0.224009 10.8082C0.223989 10.8082 0.223959 10.8083 0.22392 10.8083C0.223842 10.8084 0.223727 10.8086 0.223578 10.8088C0.223281 10.8093 0.22285 10.8099 0.222317 10.8107C0.221251 10.8123 0.219774 10.8145 0.218134 10.817C0.214852 10.8219 0.210915 10.8277 0.208291 10.8316L2.70009 12.5023C2.70271 12.4983 2.70665 12.4925 2.70993 12.4876C2.71157 12.4851 2.71305 12.4829 2.71412 12.4813C2.71465 12.4805 2.71508 12.4799 2.71538 12.4795C2.71553 12.4792 2.71564 12.4791 2.71572 12.4789C2.71576 12.4789 2.71579 12.4788 2.71581 12.4788C2.71582 12.4788 2.71583 12.4788 2.71583 12.4788C2.71584 12.4788 2.71584 12.4788 2.71584 12.4788C2.71584 12.4788 2.71584 12.4788 2.71584 12.4788C2.71584 12.4788 2.71584 12.4788 2.71584 12.4788C2.71584 12.4788 2.71584 12.4788 1.46994 11.6435ZM0.235595 10.7923L-1.17141 12.7526L1.26578 14.5019L2.67278 12.5416L0.235595 10.7923ZM-1.17673 12.76C-1.73107 13.5424 -1.56061 14.645 -0.753103 15.2107L0.968233 12.7537C1.54474 13.1576 1.6627 13.9417 1.27111 14.4944L-1.17673 12.76ZM-0.754198 15.21C-0.44785 15.425 -0.092177 15.5292 0.25719 15.5292V12.5292C0.501557 12.5292 0.75223 12.6021 0.969327 12.7545L-0.754198 15.21ZM0.25719 15.5292C0.801086 15.5292 1.32937 15.2757 1.67011 14.8183L-0.735726 13.0261C-0.499988 12.7096 -0.129206 12.5292 0.25719 12.5292V15.5292ZM1.6859 14.7967L2.7254 13.348L0.287978 11.599L-0.751522 13.0477L1.6859 14.7967ZM0.0314384 12.7449C0.829017 17.081 4.1908 20.4781 8.59091 21.3107L9.14872 18.3631C5.96259 17.7601 3.55461 15.3155 2.98194 12.2022L0.0314384 12.7449ZM8.58978 21.3105C9.27302 21.4404 9.95741 21.504 10.6391 21.504V18.504C10.1447 18.504 9.64786 18.4579 9.14986 18.3633L8.58978 21.3105ZM10.6391 21.504C13.1852 21.504 15.6558 20.6085 17.6315 18.9315L15.6901 16.6443C14.2586 17.8594 12.4767 18.504 10.6391 18.504V21.504ZM17.6315 18.9314C18.37 18.3046 18.4642 17.1919 17.8278 16.4506L15.5516 18.4048C15.0989 17.8775 15.1669 17.0884 15.6901 16.6443L17.6315 18.9314ZM17.8158 16.4368C17.1868 15.722 16.0918 15.6341 15.3567 16.258L17.2981 18.5451C16.7784 18.9864 16.0088 18.9246 15.5636 18.4186L17.8158 16.4368ZM16.3274 18.9016H16.3301V15.9016H16.3274V18.9016Z" fill="#790E70" mask="url(#path-4-inside-2_2248_605)"/>
</svg>
