<svg width="23" height="23" viewBox="0 0 23 23" fill="none" xmlns="http://www.w3.org/2000/svg">
<g clip-path="url(#clip0_15_7631)">
<path d="M11.5 23C17.8513 23 23 17.8513 23 11.5C23 5.14873 17.8513 0 11.5 0C5.14873 0 0 5.14873 0 11.5C0 17.8513 5.14873 23 11.5 23Z" fill="black"/>
<path d="M6.67715 9.35828H8.90444V16.5132H6.67715V9.35828ZM7.79118 5.80274C8.50349 5.80274 9.08066 6.38053 9.08066 7.0913C9.08066 7.80206 8.50349 8.38171 7.79118 8.38171C7.07887 8.38171 6.5 7.80299 6.5 7.0913C6.5 6.3796 7.07702 5.80274 7.79118 5.80274Z" fill="white"/>
<path d="M10.3 9.35828H12.4333V10.337H12.4625C12.7599 9.7739 13.4854 9.18128 14.5685 9.18128C16.8202 9.18128 17.2354 10.6621 17.2354 12.5892V16.5134H15.013V13.0347C15.013 12.2043 14.9968 11.1374 13.8571 11.1374C12.7175 11.1374 12.5229 12.0412 12.5229 12.974V16.5132H10.3V9.35828Z" fill="white"/>
</g>
<defs>
<clipPath id="clip0_15_7631">
<rect width="23" height="23" fill="white"/>
</clipPath>
</defs>
</svg>
