<svg width="667" height="73" viewBox="0 0 667 73" fill="none" xmlns="http://www.w3.org/2000/svg">
<path d="M667 71C661.43 71 656.211 70.8426 651.492 70.5172C647.306 70.2338 643.438 69.835 639.636 69.2787C632.615 68.2606 626.929 66.8856 621.409 65.5631C610.487 62.9287 599.198 60.2102 577.486 60.2102C555.792 60.2102 544.486 62.9392 533.563 65.5631C528.06 66.8961 522.357 68.2606 515.337 69.2787C511.535 69.8245 507.65 70.2338 503.481 70.5172C498.745 70.8321 493.526 71 487.973 71C481.069 71 474.616 70.4857 468.746 69.4571C463.56 68.5544 458.757 67.2635 454.055 65.5002C445.367 62.2569 438.313 57.8696 431.476 53.6188C417.936 45.2011 403.945 36.4895 377.081 36.4895C350.217 36.4895 336.21 45.2011 322.686 53.6188C315.866 57.8591 308.812 62.2569 300.107 65.5001C295.405 67.253 290.602 68.5544 285.416 69.4571C279.763 70.4437 273.527 70.958 266.907 70.9895C266.823 70.9895 266.723 70.9895 266.64 70.9895C266.49 70.9895 266.34 70.9895 266.206 70.9895C258.169 70.9265 250.632 69.8979 243.778 67.9142C237.541 66.1089 231.755 63.5269 226.102 60.0108C215.647 53.5243 207.142 44.7393 198.938 36.2481C182.646 19.4127 165.804 2.00001 133.453 2C101.103 2 84.2608 19.4127 67.969 36.2481C59.748 44.7393 51.2603 53.5243 40.8048 60.0108C35.1351 63.5269 29.3488 66.1089 23.1289 67.9142C16.0752 69.9504 8.28771 70.9895 2.63469e-05 70.9895" stroke="#F77C47" stroke-width="3" stroke-miterlimit="10"/>
</svg>
