<svg fill="none" viewBox="0 0 657 492" xmlns="http://www.w3.org/2000/svg" xmlns:xlink="http://www.w3.org/1999/xlink"><clipPath id="a"><path d="m0 0h657v492h-657z"/></clipPath><g clip-path="url(#a)"><path d="m129.257 427.198c-31.3501 0-47.5934-55.217-63.3132-108.618-7.8535-26.701-15.9752-54.283-25.9421-74.606-5.3761-10.966-10.8672-19.032-16.7797-24.662-6.685-6.365-14.07245-9.592-21.95149-9.592v-3.292c8.03867 0 15.57929 3.298 22.41119 9.804 6.0402 5.751 11.6462 13.983 17.1373 25.173 10.0946 20.585 18.261 48.34 26.1592 75.175 15.5282 52.775 31.58 107.32 62.2788 107.32 30.699 0 46.751-54.545 62.273-107.301 7.898-26.854 16.071-54.609 26.165-75.194 5.485-11.19 11.091-19.428 17.137-25.173 6.449-6.135 13.543-9.42 21.09-9.759v-.025l.651-.02h.428.9v.026c6.168.204 11.972 1.84 17.253 4.863 5.012 2.87 9.666 6.985 14.225 12.584 8.403 10.308 15.196 24.202 21.767 37.641 12.891 26.369 26.223 53.625 51.762 53.625 25.54 0 38.872-27.256 51.763-53.612 6.577-13.446 13.37-27.346 21.773-37.654 4.559-5.599 9.214-9.714 14.226-12.584 5.663-3.246 11.914-4.889 18.574-4.889 5.357 0 10.382.512 14.934 1.521 4.029.895 7.771 2.173 11.436 3.918 6.768 3.214 12.246 7.56 17.539 11.759 10.433 8.27 21.217 16.814 41.924 16.814 20.706 0 31.49-8.544 41.917-16.814 5.3-4.199 10.778-8.545 17.546-11.759 3.665-1.745 7.406-3.023 11.435-3.918 4.732-1.048 25.061-1.521 29.754-1.521v3.292c-5.682 0-25.252.536-29.639 1.508-3.984.882-7.687 2.153-11.308 3.873-6.691 3.182-12.137 7.496-17.399 11.669-10.522 8.34-21.402 16.961-42.306 16.961-20.905 0-31.785-8.621-42.307-16.961-5.268-4.173-10.708-8.487-17.399-11.669-3.62-1.726-7.324-2.991-11.308-3.873-4.514-1.004-9.501-1.508-14.819-1.508-6.564 0-12.719 1.616-18.287 4.805-4.916 2.819-9.482 6.851-13.951 12.335-8.269 10.142-14.998 23.92-21.517 37.239-13.07 26.726-26.581 54.353-52.581 54.353-25.999 0-39.51-27.627-52.573-54.347-6.519-13.331-13.256-27.103-21.518-37.252-4.469-5.483-9.028-9.522-13.951-12.334-5.37-3.074-11.301-4.691-17.616-4.799h-.223-.026-.153l-.262.012c-7.636.179-14.8 3.4-21.287 9.574-5.913 5.624-11.398 13.689-16.78 24.662-9.967 20.322-18.089 47.911-25.936 74.593-15.713 53.408-31.963 108.63-63.313 108.63z" stroke="#39b54a" stroke-miterlimit="10" stroke-width="4"/><g stroke="#231f20" stroke-miterlimit="5" stroke-width="3"><path d="m188.567 368.319h-122.6168v122.729h122.6168z"/><path d="m311.312 245.591h-122.617v122.728h122.617z"/><path d="m188.567 122.869h-122.6168v122.728h122.6168z"/><path d="m311.312.958618h-122.617v122.728382h122.617z"/><path d="m434.107 245.591h-122.617v122.728h122.617z"/><path d="m555.818 122.869h-122.617v122.728h122.617z"/><path d="m311.312 368.319h-122.617v122.729h122.617z"/></g><path d="m640.571 206.454c-4.795-.901-9.692-1.566-14.96-2.026-5.938-.524-12.495-.786-19.48-.786-8.754 0-16.971.856-24.423 2.544-6.589 1.495-12.699 3.629-18.676 6.531-10.937 5.311-19.742 12.436-28.266 19.332-16.524 13.369-33.61 27.193-66.071 27.193-32.462 0-49.548-13.824-66.078-27.199-8.518-6.89-17.323-14.015-28.26-19.326-5.977-2.902-12.087-5.036-18.676-6.531-6.717-1.522-14.066-2.365-21.875-2.518v-.026h-1.992-.556-1.679v.032c-9.667.256-18.753 1.962-27.028 5.074-7.904 2.978-15.221 7.222-22.366 12.993-13.077 10.544-23.637 24.745-33.86 38.485-19.972 26.848-40.621 54.609-79.627 54.609-38.999 0-59.654-27.761-79.6264-54.616-10.2159-13.733-20.7767-27.934-33.8531-38.478-7.1447-5.765-14.4619-10.015-22.3665-12.993-9.0156-3.393-18.9633-5.112-29.57514-5.112v1.981c9.96054 0 19.30814 1.617 27.76824 4.799 7.547 2.838 14.5705 6.928 21.4662 12.488 12.8593 10.372 23.3434 24.47 33.4891 38.108 20.4066 27.429 41.5026 55.791 82.6976 55.791 41.196 0 62.292-28.362 82.699-55.797 10.145-13.638 20.629-27.736 33.489-38.109 6.895-5.566 13.919-9.65 21.466-12.487 8.211-3.093 17.271-4.704 26.925-4.793h.422.408c8.026.051 15.554.862 22.367 2.409 6.251 1.412 12.055 3.445 17.744 6.212 10.605 5.151 19.289 12.174 27.685 18.968 17.022 13.772 34.619 28.01 68.785 28.01s51.769-14.238 68.792-28.01c8.396-6.794 17.073-13.817 27.685-18.962 5.695-2.761 11.499-4.793 17.744-6.212 7.068-1.604 14.883-2.415 23.222-2.415 6.819 0 13.204.255 18.982.767 5.089.447 9.814 1.086 14.437 1.955 6.008 1.131 11.237 2.55 16.173 4.033v-2.218c-4.616-1.355-9.533-2.639-15.152-3.694z" stroke="#f5a0c5" stroke-miterlimit="10" stroke-width="4"/><path d="m525.597 23.8504c31.223 0 47.402 46.2564 63.052 90.9916 7.821 22.368 15.905 45.471 25.833 62.496 5.357 9.189 10.823 15.945 16.71 20.655 6.659 5.329 14.015 8.033 21.862 8.033v2.754c-8.007 0-15.515-2.761-22.322-8.212-6.021-4.819-11.601-11.714-17.067-21.09-10.056-17.242-18.184-40.491-26.051-62.974-15.464-44.2116-31.452-89.9056-62.023-89.9056s-46.559 45.694-62.017 89.8866c-7.867 22.495-16.001 45.745-26.057 62.993-5.466 9.376-11.046 16.271-17.067 21.09-6.424 5.138-13.485 7.893-21 8.18v.019l-.645.013h-.422-.894v-.019c-6.142-.173-11.92-1.54-17.182-4.071-4.993-2.403-9.628-5.854-14.168-10.538-8.364-8.634-15.132-20.278-21.677-31.532-12.84-22.087-26.114-44.921-51.552-44.921s-38.712 22.834-51.552 44.914c-6.551 11.267-13.313 22.905-21.683 31.539-4.54 4.69-9.176 8.135-14.169 10.538-5.638 2.716-11.863 4.097-18.497 4.097-5.338 0-10.344-.429-14.871-1.279-4.016-.747-7.738-1.821-11.39-3.284-6.736-2.697-12.196-6.334-17.47-9.849-10.388-6.927-21.127-14.085-41.751-14.085-20.6233 0-31.3628 7.158-41.7511 14.085-5.2804 3.522-10.7331 7.158-17.4757 9.855-3.6522 1.457-7.3746 2.537-11.3907 3.285-4.7121.882-24.95885 1.278-29.63264 1.278v-2.755c5.66346 0 25.15034-.447 29.52404-1.265 3.9715-.741 7.6556-1.802 11.2631-3.246 6.6659-2.665 12.0867-6.283 17.3288-9.778 10.4777-6.985 21.313-14.207 42.1342-14.207 20.822 0 31.657 7.222 42.135 14.207 5.248 3.495 10.662 7.106 17.328 9.778 3.608 1.444 7.292 2.505 11.263 3.246 4.495.837 9.463 1.265 14.762 1.265 6.539 0 12.668-1.354 18.21-4.026 4.898-2.358 9.444-5.739 13.894-10.334 8.23-8.499 14.941-20.035 21.428-31.193 13.019-22.393 26.472-45.534 52.369-45.534 25.898 0 39.351 23.141 52.364 45.528 6.493 11.164 13.197 22.706 21.434 31.206 4.45 4.595 8.996 7.976 13.894 10.334 5.35 2.575 11.25 3.93 17.545 4.019h.224.025.154l.261-.006c7.605-.147 14.737-2.85 21.199-8.02 5.887-4.71 11.352-11.472 16.709-20.655 9.929-17.025 18.012-40.134 25.834-62.489 15.649-44.742 31.835-90.9985 63.057-90.9985z" opacity=".9" stroke="#f27200" stroke-miterlimit="10" stroke-width="4"/><path d="m223.863 247.911h-32.41v32.439h32.41z" fill="#fef15f"/><path d="m308.241 371.496h-32.41v32.439h32.41z" fill="#fef15f"/><path d="m468.439 125.425h-32.41v32.44h32.41z" fill="#fef15f"/><path d="m223.863 88.5633h-32.41v32.4397h32.41z" fill="#fef15f"/></g></svg>
