<?xml version="1.0" encoding="UTF-8"?>
<svg id="Layer_2" data-name="Layer 2" xmlns="http://www.w3.org/2000/svg" viewBox="0 0 1566 1056">
  <defs>
    <style>
      .cls-1 {
        fill: none;
        stroke: #445bc3;
        stroke-miterlimit: 10;
        stroke-width: 12px;
      }

      .cls-2 {
        fill: #fff;
        stroke-width: 0px;
      }
    </style>
  </defs>
  <g id="Layer_1-2" data-name="Layer 1">
    <path class="cls-2" d="m0,1056h1566c-6.51-4.37-16.86-12.11-27-24-20.73-24.32-27.23-50.37-30-62-41.19-173.18-55-288-55-288-13.71-114.04-13.2-104.93-23-190-7.85-68.16-13.96-124.27-18-162-5.65-35.71-17.7-108.3-35-185-23.4-103.75-14.2-27.93-30-89-4.23-16.37-11.57-38.25-27-46-7.42-3.72-15.22-3.73-20-3-27.16,4.16-42.56,45.37-49,64-36.55,105.65-50,249-50,249-9.34,99.61-11.84,68.46-27,208-3.84,35.39-15.02,141.72-29,247-2.59,19.49-7.91,58.54-21,108-11.59,43.79-12.49,32.43-24,76-9.92,37.54-12.09,56.62-30,72-7.21,6.19-19.82,17.02-34,15-33.16-4.72-50.55-76.28-76-181-2.58-10.62-4.29-18.01-5.39-23.51-6.72-33.67-8.54-67.13-34.61-241.49-5.73-38.34-9.8-64.49-15-106-9.21-73.44-7.38-78.46-15-137-10.23-78.54-12.63-62.69-26-157-5.26-37.09-15.87-73.23-23-110-2.49-12.83-7.17-37.38-26-59-6.02-6.91-21.51-24.7-39-22-6.66,1.03-13.02,4.94-22,16-22.76,28.03-27.94,59.63-28,60-9.94,60.65-33.05,118.93-40,180-9.84,86.47-22.41,172.62-33,259-9.79,79.81-15.83,126.56-24,183-14.8,102.19-7.5,35.29-28,162,0,0-2.42,14.96-27,108-9.64,36.49-16.93,62.06-37,69-14.66,5.07-29.31-2.18-33-4-37.66-18.62-45.33-75.78-50-109-11.23-79.94-28.79-158.93-39-239-11.94-93.64-12.67-77.81-29-202-14.14-107.49-21.2-161.23-23-177-4.01-35.19-9.74-88.55-25-154-7.01-30.08-2.93-6.48-22-73-11.91-41.53-16.47-61.11-35-73-3.43-2.2-17.94-11.52-34-7-16.33,4.59-28.59,21.9-31,44-23.94,71.77-37.9,131-46,170-18.26,87.88-14.57,110.38-43,328-9.9,75.82-8.03,55.3-21,153-.96,7.2-8.64,58.13-24,160-9.54,63.26,2.26-15.35-27,113-3.32,14.58-8.81,39.01-29,60-9.74,10.13-19.9,16.34-27,20Z"/>
    <path class="cls-1" d="m1566,1050c-130.5,0-130.5-1044-261-1044s-130.5,1044-261,1044"/>
    <path class="cls-1" d="m522,1050c-130.5,0-130.5-1044-261-1044S130.5,1050,0,1050"/>
    <path class="cls-1" d="m1044,1050c-130.5,0-130.5-1044-261-1044s-130.5,1044-261,1044"/>
  </g>
</svg>