<?xml version="1.0" encoding="UTF-8"?>
<svg id="Layer_2" data-name="Layer 2" xmlns="http://www.w3.org/2000/svg" viewBox="0 0 1779.01 79.53">
  <defs>
    <style>
      .cls-1 {
        stroke: #a06b87;
        stroke-width: 5px;
      }

      .cls-1, .cls-2 {
        fill: none;
        stroke-miterlimit: 10;
      }

      .cls-2 {
        stroke: #f77c47;
        stroke-width: 4px;
      }
    </style>
  </defs>
  <g id="Layer_1-2" data-name="Layer 1">
    <path class="cls-2" d="M1779.01,4.61c-9.49,0-660.11.17-668.17.51-7.13.3-13.74.73-20.22,1.31-11.96,1.07-21.67,2.52-31.07,3.93-18.63,2.78-37.89,5.66-74.88,5.66s-56.25-2.88-74.88-5.66c-9.39-1.4-19.1-2.86-31.07-3.93-6.48-.58-13.09-1.01-20.22-1.31-8.06-.34-16.96-.51-26.45-.51-11.76,0-22.78.55-32.77,1.63-8.83.95-17.02,2.32-25.05,4.18-14.82,3.43-26.85,8.07-38.48,12.56-23.07,8.9-46.93,18.1-92.76,18.1s-69.69-9.2-92.76-18.1c-11.63-4.49-23.66-9.13-38.48-12.56-8.03-1.86-16.22-3.22-25.05-4.18-9.65-1.04-20.26-1.59-31.57-1.62h-1.2c-13.7.07-26.56,1.16-38.24,3.25-10.63,1.91-20.49,4.64-30.15,8.35-17.84,6.86-32.32,16.14-46.32,25.11-27.77,17.8-56.49,36.2-111.65,36.2s-83.88-18.4-111.65-36.2c-14-8.97-28.48-18.25-46.32-25.11-9.66-3.72-19.52-6.45-30.15-8.35C27.42,5.71,14.15,4.61,0,4.61"/>
    <path class="cls-1" d="M1779.01,2.5c-9.49,0-660.11.11-668.17.34-7.13.2-13.74.49-20.22.88-11.96.72-21.67,1.7-31.07,2.64-18.63,1.87-37.89,3.8-74.88,3.8s-56.25-1.93-74.88-3.8c-9.39-.94-19.1-1.92-31.07-2.64-6.48-.39-13.09-.68-20.22-.88-8.06-.23-16.96-.34-26.45-.34-11.76,0-22.78.37-32.77,1.09-8.83.64-17.02,1.56-25.05,2.81-14.82,2.3-26.85,5.42-38.48,8.44-23.07,5.98-46.93,12.16-92.76,12.16s-69.69-6.18-92.76-12.16c-11.63-3.01-23.66-6.13-38.48-8.44-8.03-1.25-16.22-2.17-25.05-2.81-9.65-.7-20.26-1.07-31.57-1.09h-1.2c-13.7.04-26.56.78-38.24,2.18-10.63,1.28-20.49,3.12-30.15,5.61-17.84,4.61-32.32,10.84-46.32,16.87-27.77,11.96-56.49,24.32-111.65,24.32s-83.88-12.36-111.65-24.32c-14-6.03-28.48-12.26-46.32-16.87-9.66-2.5-19.52-4.33-30.15-5.61C27.42,3.23,14.15,2.5,0,2.5"/>
  </g>
</svg>