<?xml version="1.0" encoding="UTF-8"?>
<svg id="Layer_2" data-name="Layer 2" xmlns="http://www.w3.org/2000/svg" viewBox="0 0 1094.01 162.28">
  <defs>
    <style>
      .cls-1 {
        stroke: #a06b87;
        stroke-width: 5px;
      }

      .cls-1, .cls-2, .cls-3 {
        fill: none;
        stroke-miterlimit: 10;
      }

      .cls-2 {
        stroke: #f77c47;
        stroke-width: 2px;
      }

      .cls-3 {
        stroke: #544974;
        stroke-width: 4px;
      }
    </style>
  </defs>
  <g id="Layer_1-2" data-name="Layer 1">
    <path class="cls-1" d="M1094.01,2.88c-3.34,0-693.42.37-696.26,1.09-2.51.64-4.83,1.55-7.11,2.8-4.21,2.3-7.62,6.3-10.93,9.31-6.55,5.96-13.33,12.11-26.34,12.11s-19.79-6.16-26.34-12.11c-3.3-3-6.72-6.11-10.93-8.4-2.28-1.24-4.61-2.16-7.11-2.8-2.84-.72-5.97-1.09-9.3-1.09-4.14,0-8.01,1.17-11.53,3.48-3.11,2.04-5.99,4.96-8.81,8.94-5.21,7.34-9.44,17.26-13.54,26.86-8.12,19.04-16.51,38.72-32.63,38.72s-24.51-19.68-32.63-38.72c-4.09-9.6-8.32-19.52-13.54-26.86-2.82-3.97-5.71-6.9-8.81-8.94-3.39-2.23-7.13-3.39-11.1-3.47h-.42c-4.82.14-9.34,2.47-13.45,6.95-3.74,4.08-7.21,9.93-10.6,17.87-6.27,14.67-11.37,34.52-16.29,53.72-9.77,38.07-19.87,77.44-39.27,77.44s-29.5-39.37-39.27-77.44c-4.93-19.2-10.02-39.05-16.29-53.72-3.4-7.95-6.87-14.42-10.6-18.49C7.97-.71,4.97,3.18,0,3.18"/>
    <path class="cls-3" d="M407.06,2.88c-3.34,0-6.47.25-9.31.73-2.51.43-4.83,1.04-7.11,1.88-4.21,1.54-7.62,3.63-10.93,5.65-6.55,4-13.33,8.14-26.34,8.14s-19.79-4.14-26.34-8.14c-3.3-2.02-6.72-4.1-10.93-5.65-2.28-.84-4.61-1.45-7.11-1.88-2.84-.48-5.97-.73-9.3-.73-4.14,0-8.01.79-11.53,2.34-3.11,1.37-5.99,3.33-8.81,6-5.21,4.93-9.44,11.6-13.54,18.05-8.12,12.79-16.51,26.02-32.63,26.02s-24.51-13.23-32.63-26.02c-4.09-6.45-8.32-13.12-13.54-18.05-2.82-2.67-5.71-4.63-8.81-6-3.39-1.5-7.13-2.28-11.1-2.33h-.42c-4.82.1-9.34,1.66-13.45,4.67-3.74,2.74-7.21,6.67-10.6,12.01-6.27,9.86-11.37,23.2-16.29,36.09-9.77,25.58-19.87,52.03-39.27,52.03s-29.5-26.45-39.27-52.03c-4.93-12.9-10.02-26.24-16.29-36.09-3.4-5.34-6.87-9.27-10.6-12.01-4.23-3.1-8.9-4.67-13.87-4.67"/>
    <path class="cls-2" d="M407.06,1.03c-3.34,0-6.47.12-9.31.37-2.51.21-4.83.52-7.11.94-4.21.77-7.62,1.81-10.93,2.82-6.55,2-13.33,4.07-26.34,4.07s-19.79-2.07-26.34-4.07c-3.3-1.01-6.72-2.05-10.93-2.82-2.28-.42-4.61-.72-7.11-.94-2.84-.24-5.97-.37-9.3-.37-4.14,0-8.01.39-11.53,1.17-3.11.69-5.99,1.67-8.81,3-5.21,2.46-9.44,5.8-13.54,9.02-8.12,6.39-16.51,13.01-32.63,13.01s-24.51-6.61-32.63-13.01c-4.09-3.22-8.32-6.56-13.54-9.02-2.82-1.33-5.71-2.32-8.81-3-3.39-.75-7.13-1.14-11.1-1.17h-.42c-4.82.05-9.34.83-13.45,2.34-3.74,1.37-7.21,3.33-10.6,6-6.27,4.93-11.37,11.6-16.29,18.05-9.77,12.79-19.87,26.02-39.27,26.02s-29.5-13.23-39.27-26.02c-4.93-6.45-10.02-13.12-16.29-18.05-3.4-2.67-6.87-4.63-10.6-6C16.69,1.82,12.03,1.03,7.04,1.03"/>
  </g>
</svg>