<?xml version="1.0" encoding="UTF-8"?>
<svg id="Layer_2" data-name="Layer 2" xmlns="http://www.w3.org/2000/svg" viewBox="0 0 401.11 60.53">
  <defs>
    <style>
      .cls-1 {
        stroke: #ffd647;
      }

      .cls-1, .cls-2, .cls-3 {
        fill: none;
        stroke-miterlimit: 10;
        stroke-width: 3px;
      }

      .cls-2 {
        stroke: #f77c47;
      }

      .cls-3 {
        stroke: #5565ea;
      }
    </style>
  </defs>
  <g id="Layer_1-2" data-name="Layer 1">
    <path class="cls-2" d="M401.1,59.03c-16.59,0-25.03-5.81-33.19-11.43-8.27-5.69-16.83-11.58-33.66-11.58s-25.39,5.89-33.66,11.58c-8.16,5.62-16.6,11.43-33.19,11.43s-25.03-5.81-33.19-11.43c-8.27-5.69-16.83-11.58-33.66-11.58s-25.39,5.89-33.66,11.58c-8.16,5.62-16.6,11.43-33.19,11.43s-25.03-5.81-33.19-11.43c-8.27-5.69-16.83-11.58-33.66-11.58s-25.39,5.89-33.66,11.58c-8.16,5.62-16.6,11.43-33.19,11.43"/>
    <path class="cls-3" d="M401.1,59.03c-16.5,0-24.54-10.24-33.06-21.09-8.29-10.56-16.87-21.49-33.79-21.49s-25.5,10.92-33.79,21.49c-8.51,10.84-16.56,21.09-33.06,21.09s-24.54-10.24-33.06-21.09c-8.29-10.56-16.87-21.49-33.79-21.49s-25.5,10.92-33.79,21.49c-8.51,10.84-16.56,21.09-33.06,21.09s-24.54-10.24-33.06-21.09c-8.29-10.56-16.87-21.49-33.79-21.49s-25.5,10.92-33.79,21.49C24.55,48.78,16.5,59.03,0,59.03"/>
    <path class="cls-1" d="M.01,59.03c7.38,0,13.76-2.89,19.52-8.84,5.17-5.33,9.39-12.61,13.48-19.64C41.31,16.27,49.89,1.5,66.86,1.5s25.55,14.77,33.85,29.05c4.09,7.03,8.31,14.3,13.48,19.64,5.76,5.95,12.15,8.84,19.52,8.84s13.76-2.89,19.52-8.84c5.17-5.33,9.39-12.61,13.48-19.64,8.3-14.28,16.88-29.05,33.85-29.05s25.55,14.77,33.85,29.05c4.09,7.03,8.31,14.3,13.48,19.64,5.76,5.95,12.15,8.84,19.52,8.84s13.76-2.89,19.52-8.84c5.17-5.33,9.39-12.61,13.48-19.64,8.3-14.28,16.88-29.05,33.85-29.05s25.55,14.77,33.85,29.05c4.09,7.03,8.31,14.3,13.48,19.64,5.76,5.95,12.15,8.84,19.52,8.84"/>
  </g>
</svg>