<?xml version="1.0" encoding="UTF-8"?>
<svg id="Layer_2" data-name="Layer 2" xmlns="http://www.w3.org/2000/svg" viewBox="0 0 1779.04 323.16">
  <defs>
    <style>
      .cls-1 {
        stroke: #5e69ff;
      }

      .cls-1, .cls-2, .cls-3 {
        fill: none;
        stroke-miterlimit: 10;
        stroke-width: 12px;
      }

      .cls-2 {
        stroke: #4ba0a5;
      }

      .cls-3 {
        stroke: #a0c9cb;
      }

      .cls-4 {
        fill: #19455e;
      }

      .cls-4, .cls-5, .cls-6 {
        stroke-width: 0px;
      }

      .cls-5 {
        fill: #ffd188;
      }

      .cls-6 {
        fill: #fefaf3;
      }
    </style>
  </defs>
  <g id="Layer_1-2" data-name="Layer 1">
    <path class="cls-5" d="m1701.35,316.94c4.35-2.21,6.49-4.26,13.64-6.04,1.19-.3,2.34-.58,3.47-.87"/>
    <path class="cls-6" d="m1762,316.58c-14.94,1.31-38.55,2.37-67-1-85.66-10.15-116.66-48.82-197-57-28.09-2.86-23.4,1.96-85,4-97,3.22-168.59-6.74-189-9-73.04-8.09-350.64-12.95-1157-4-.75,26.33-1.42,52.66-2,73,571.33,2,1142.67-2,1714,0v-2c.03-3.98-1.01-5.43-2-6-1.55-.89-3.36.13-7,1-3.29.79-6.09.97-8,1Z"/>
    <path class="cls-4" d="m0,259.58v57c52,6,151.02.33,174-8,17.85-6.47,34.55-16.12,78-33,17.26-6.7,31.58-11.76,41-15,18.05-.35,30.62,3.84,39,8,12.72,6.32,25.81,17.57,38,17,1.41-.07,5.56-.42,10.41,1.36,4.43,1.62,6.72,4.43,9.52,6.19,5.35,3.36,10.92,7.09,17.14,9.55.47-1.02,1.5-1.69,2.87-1.17,13.43,5.05,28.21,6.55,42.75,6.14.34-.88,1.1-1.61,2.29-1.7,4.17-.32,7.88-1.14,11.74-.61,11.43-2.59,22.85-5.17,34.28-7.76,8.79-8.26,36.89-32.53,80-36,28.43-2.29,50.82,5.49,62.38,10.49.23.1.45.2.67.31.78.4,1.39.96,1.81,1.6,4.39,2.75,8.8,5.47,13.68,7.7,1.78.81,2.46,2.05,2.37,3.27,5.12,2.8,9.55,5.95,15.13,8.35,12.91,5.54,26.09,12.4,41.46,12.64,2.08.03,3.48.85,4.21,1.93h24.13c.72-1.1,2.14-1.93,4.26-1.93,1.2,0,2.17.26,2.92.69.62-.52,1.43-.93,2.35-1.18,1.75-.47,3.52-.68,5.3-.79,5.05-3.36,10.9-6.11,16.55-8.72,8.69-4,16.61-8.04,24.18-13.23,11.2-7.66,23.69-14.35,37.61-18.82.66-.6,1.69-1.47,3.03-2.42,8.79-6.19,18.92-6.7,45.25-3.42,23.09,2.88,34.83,4.41,44.49,9.1,10.2,4.95,19.65,11.85,19.65,11.85,6.86,5.01,9.38,7.9,16.09,12.63,7.52,5.31,14.23,8.66,18.57,10.61,2.24.84,4.49,1.71,6.76,2.6,2.64,1.03,5.24,2.07,7.8,3.12,9.57,1.65,20.77,2.92,33.28,3.12,15.76.26,29.61-1.24,40.97-3.23,17.04-9.64,34.07-19.31,51.08-29.01,8.5-4.85,16.99-9.7,25.48-14.56,4.99-2.07,11.1-4.16,18.2-5.72.56-.12,10.42-2.24,21.65-2.51,28.8-.68,57.7,10.51,57.7,10.51,27.67,10.71,26.88,18.55,54,32,16.21,8.04,40.46,20.06,70,19,37.91-1.36,71.27-23.79,82-31,17.57-11.81,25.89-21.67,43-23,15.5-1.2,26.31,5.53,39,12,51.26,26.14,102.07,32.19,134,36,19.27,2.3,36.26,2.79,44,3,25.07.68,63,14.55,63-2,0-24-.33-49.83,0-75.5-1412.49,6.65-1690.18,6.48-1691,6.5,0,0,0,0,0,0C45.03,251.07,11.08,257.48,0,259.58Z"/>
    <path class="cls-1" d="m296,262.28c74.1,0,74.1,47.42,148.2,47.42,74.1,0,74.1-47.42,148.2-47.42"/>
    <path class="cls-2" d="m459.29,261.68c-114.82,0-114.82-73.49-229.64-73.49S114.82,261.68,0,261.68"/>
    <path class="cls-2" d="m898.33,261.76c-109.6,0-109.6-131.52-219.2-131.52s-109.6,131.52-219.2,131.52"/>
    <path class="cls-2" d="m1517,261.33c-156.25,0-156.25-187.5-312.5-187.5-156.25,0-156.25,187.5-312.5,187.5"/>
    <path class="cls-3" d="m459.29,261.62c-114.82,0-114.82-36.74-229.64-36.74S114.82,261.62,0,261.62"/>
    <path class="cls-3" d="m896.25,261.92c-109.6,0-109.6-87.68-219.2-87.68s-109.6,87.68-219.2,87.68"/>
    <path class="cls-3" d="m1515,261.73c-156.17,0-156.17-124.94-312.35-124.94-156.17,0-156.17,124.94-312.35,124.94"/>
    <path class="cls-1" d="m459.29,261.74c-114.82,0-114.82-110.23-229.64-110.23S114.82,261.74,0,261.74"/>
    <path class="cls-1" d="m896.52,261.6c-109.6,0-109.6-175.36-219.2-175.36s-109.6,175.36-219.2,175.36"/>
    <path class="cls-1" d="m1525,261.48c-159.67,0-159.67-255.48-319.35-255.48-159.67,0-159.67,255.48-319.35,255.48"/>
    <path class="cls-1" d="m588.24,262.22c71.24,0,71.24,45.59,142.48,45.59,71.24,0,71.24-45.59,142.48-45.59"/>
    <path class="cls-1" d="m0,316.58h151c6.32.04,15.84-3.39,27-6,1.7-.4,3.32-.82,5.02-1.33,10.91-3.29,19.19-7.39,36.98-16.67,19.84-10.35,25.39-13.33,32-17,7.38-4.1,7.08-4.06,9-5,8.46-4.16,20.73-8.13,38-8"/>
    <path class="cls-1" d="m870.9,261.79c83.96-1.1,84.58,45.91,168.54,44.81,83.96-1.1,83.35-48.11,167.31-49.21"/>
    <path class="cls-1" d="m1205.82,257.52c83.5-.5,83.86,59.62,167.36,59.12s83.14-60.62,166.64-61.12"/>
    <path class="cls-1" d="m1779,316.58c-19.17.13-35.74.09-49,0-30.08-.21-34.92-.64-42-3-4.46-1.49-15.7-8.34-38-22-17.38-10.64-20.06-12.43-27-16-7.62-3.92-17.4-8.88-31-13-5.9-1.79-22.21-6.39-44-7-12.13-.34-21.16.65-24,1-4.95.61-6.99,1.6-12,2-11.23.91-18.86-1.58-19-1-.19.79,14.6,3.76,31,11,10.44,4.6,16.74,8.82,22,12,34.01,20.54,73.11,26.9,86,29,8.65,1.41,18.1,2.27,37,4,17.01,1.56,31.15,2.46,41,3"/>
  </g>
</svg>