<?xml version="1.0" encoding="UTF-8"?>
<svg id="Layer_2" data-name="Layer 2" xmlns="http://www.w3.org/2000/svg" viewBox="0 0 2221.9 168.6">
  <defs>
    <style>
      .cls-1 {
        stroke: #544974;
      }

      .cls-1, .cls-2, .cls-3 {
        fill: none;
        stroke-miterlimit: 10;
        stroke-width: 12px;
      }

      .cls-2 {
        stroke: #5e69ff;
      }

      .cls-3 {
        stroke: #ffd747;
      }
    </style>
  </defs>
  <g id="Layer_2-2" data-name="Layer 2">
    <g id="Layer_1-2" data-name="Layer 1-2">
      <path class="cls-1" d="M2221.9,162.4c-130.5,0-130.5-52.2-261-52.2s-130.5,52.2-261,52.2"/>
      <path class="cls-2" d="M2221.9,162.5c-130.5,0-130.5-104.4-261-104.4s-130.5,104.4-261,104.4"/>
      <path class="cls-1" d="M1177.9,162.4c-130.5,0-130.5-52.2-261-52.2s-130.5,52.2-261,52.2"/>
      <path class="cls-1" d="M1699.9,162.4c-130.5,0-130.5-52.2-261-52.2s-130.5,52.2-261,52.2"/>
      <path class="cls-2" d="M1699.9,162.5c-130.5,0-130.5-104.4-261-104.4s-130.5,104.4-261,104.4"/>
      <path class="cls-2" d="M1177.9,162.5c-130.5,0-130.5-104.4-261-104.4s-130.5,104.4-261,104.4"/>
      <path class="cls-3" d="M2221.9,162.6c-130.5,0-130.5-156.6-261-156.6s-130.5,156.6-261,156.6"/>
      <path class="cls-3" d="M1699.9,162.6c-130.5,0-130.5-156.6-261-156.6s-130.5,156.6-261,156.6"/>
      <path class="cls-3" d="M1177.9,162.6c-130.5,0-130.5-156.6-261-156.6s-130.5,151.5-254.7,156.5c-2.1.1-660.1.1-662.2.1"/>
    </g>
  </g>
</svg>