<?xml version="1.0" encoding="UTF-8"?>
<svg id="Layer_2" data-name="Layer 2" xmlns="http://www.w3.org/2000/svg" viewBox="0 0 1566 325.24">
  <defs>
    <style>
      .cls-1 {
        stroke: #544974;
      }

      .cls-1, .cls-2, .cls-3 {
        fill: none;
        stroke-miterlimit: 10;
        stroke-width: 12px;
      }

      .cls-2 {
        stroke: #5e69ff;
      }

      .cls-3 {
        stroke: #ffd747;
      }
    </style>
  </defs>
  <g id="Layer_1-2" data-name="Layer 1">
    <path class="cls-1" d="m1566,319.24c-130.5,0-130.5-125.28-261-125.28-130.5,0-130.5,125.28-261,125.28"/>
    <path class="cls-2" d="m1566,319c-130.5,0-130.5-208.8-261-208.8s-130.5,208.8-261,208.8"/>
    <path class="cls-1" d="m522,319.24c-130.5,0-130.5-125.28-261-125.28C130.5,193.96,130.5,319.24,0,319.24"/>
    <path class="cls-1" d="m1044,319.24c-130.5,0-130.5-125.28-261-125.28s-130.5,125.28-261,125.28"/>
    <path class="cls-2" d="m1044,319c-130.5,0-130.5-208.8-261-208.8s-130.5,208.8-261,208.8"/>
    <path class="cls-2" d="m522,319c-130.5,0-130.5-208.8-261-208.8S130.5,319,0,319"/>
    <path class="cls-3" d="m1566,319.2c-130.5,0-130.5-313.2-261-313.2s-130.5,313.2-261,313.2"/>
    <path class="cls-3" d="m1044,319.2c-130.5,0-130.5-313.2-261-313.2s-130.5,313.2-261,313.2"/>
    <path class="cls-3" d="m522,319.2c-130.5,0-130.5-313.2-261-313.2S130.5,319.2,0,319.2"/>
  </g>
</svg>