<?xml version="1.0" encoding="UTF-8"?>
<svg id="Layer_1" data-name="Layer 1" xmlns="http://www.w3.org/2000/svg" viewBox="0 0 1779.01 204.51">
  <defs>
    <style>
      .cls-1 {
        fill: #fefaf3;
      }

      .cls-2 {
        fill: #ffd188;
      }

      .cls-3 {
        stroke: #5e69ff;
        stroke-width: 5px;
      }

      .cls-3, .cls-4, .cls-5, .cls-6, .cls-7 {
        fill: none;
        stroke-miterlimit: 10;
      }

      .cls-4 {
        stroke: #f77c47;
        stroke-width: 2px;
      }

      .cls-5 {
        stroke: #00b6af;
      }

      .cls-5, .cls-6 {
        stroke-width: 4px;
      }

      .cls-6 {
        stroke: #a06b87;
      }

      .cls-7 {
        stroke: #18465e;
        stroke-width: 7px;
      }
    </style>
  </defs>
  <rect class="cls-1" y="121.8" width="1779.01" height="82.71"/>
  <path class="cls-2" d="m1701.35,195.04c4.35-2.21,6.49-4.26,13.64-6.04,1.19-.3,2.34-.58,3.47-.87"/>
  <path class="cls-3" d="m907.17,122.14c-7.57,0-14.67-.26-21.1-.78-5.68-.46-10.96-1.11-16.13-2-9.54-1.64-17.29-3.87-24.78-6.02-14.86-4.26-30.22-8.67-59.73-8.67-29.51,0-44.87,4.41-59.73,8.67-7.49,2.15-15.24,4.37-24.78,6.02-5.17.89-10.44,1.54-16.13,2-6.43.52-13.53.78-21.1.78-9.38,0-18.17-.84-26.14-2.49-7.04-1.46-13.58-3.55-19.98-6.4-11.82-5.25-21.42-12.36-30.7-19.23-18.4-13.63-37.43-27.72-73.99-27.72-36.56,0-55.59,14.09-73.99,27.72-9.28,6.87-18.88,13.98-30.7,19.23-6.4,2.84-12.94,4.94-19.98,6.4-7.69,1.6-16.16,2.43-25.18,2.48h0c-.12,0-.24,0-.36,0-.2,0-.4,0-.6,0h0c-10.93-.1-21.19-1.77-30.51-4.98-8.48-2.92-16.34-7.11-24.05-12.8-14.23-10.51-25.78-24.72-36.95-38.46-22.15-27.26-45.06-55.45-89.06-55.45-44,0-66.9,28.19-89.06,55.45-11.17,13.75-22.72,27.96-36.95,38.46-7.71,5.69-15.57,9.88-24.05,12.8C21.87,120.46,11.29,122.14,0,122.14"/>
  <path class="cls-4" d="m0,124.25c9.49,0,18.39.17,26.45.51,7.13.3,13.74.73,20.22,1.31,11.96,1.07,21.67,2.52,31.07,3.93,18.63,2.78,37.89,5.66,74.88,5.66,37,0,56.25-2.88,74.88-5.66,9.39-1.4,19.1-2.86,31.07-3.93,6.48-.58,13.09-1.01,20.22-1.31,8.06-.34,16.96-.51,26.45-.51,11.76,0,22.78.55,32.77,1.63,8.83.95,17.02,2.32,25.05,4.18,14.82,3.43,26.85,8.07,38.48,12.56,23.07,8.9,46.93,18.1,92.76,18.1s69.69-9.2,92.76-18.1c11.63-4.49,23.66-9.13,38.48-12.56,8.03-1.86,16.22-3.22,25.05-4.18,9.65-1.04,20.26-1.59,31.57-1.62h0c.15,0,.3,0,.45,0,.25,0,.5,0,.75,0h0c13.7.07,26.56,1.16,38.24,3.25,10.63,1.91,20.49,4.64,30.15,8.35,17.84,6.86,32.32,16.14,46.32,25.11,27.77,17.8,56.49,36.2,111.65,36.2,55.16,0,83.88-18.4,111.65-36.2,14-8.97,28.48-18.25,46.32-25.11,9.66-3.72,19.52-6.45,30.15-8.35,12.02-2.16,25.29-3.25,39.44-3.25"/>
  <path class="cls-5" d="m907.17,122.78c-7.57,0-14.67-.18-21.1-.52-5.68-.31-10.96-.75-16.13-1.34-9.54-1.1-17.29-2.6-24.78-4.04-14.86-2.86-30.22-5.83-59.73-5.83-29.51,0-44.87,2.96-59.73,5.83-7.49,1.44-15.24,2.94-24.78,4.04-5.17.6-10.44,1.04-16.13,1.34-6.43.35-13.53.52-21.1.52-9.38,0-18.17-.56-26.14-1.67-7.04-.98-13.58-2.39-19.98-4.3-11.82-3.53-21.42-8.3-30.7-12.92-18.4-9.16-37.43-18.63-73.99-18.63-36.56,0-55.59,9.47-73.99,18.63-9.28,4.62-18.88,9.39-30.7,12.92-6.4,1.91-12.94,3.32-19.98,4.3-7.69,1.07-16.16,1.63-25.18,1.67h0c-.12,0-.24,0-.36,0-.2,0-.4,0-.6,0h0c-10.93-.07-21.19-1.19-30.51-3.35-8.48-1.96-16.34-4.77-24.05-8.6-14.23-7.06-25.78-16.61-36.95-25.84-22.15-18.31-45.06-37.25-89.06-37.25s-66.9,18.94-89.06,37.25c-11.17,9.23-22.72,18.78-36.95,25.84-7.71,3.82-15.57,6.64-24.05,8.6C21.87,121.66,11.29,122.78,0,122.78"/>
  <path class="cls-6" d="m0,122.14c9.49,0,18.39.11,26.45.34,7.13.2,13.74.49,20.22.88,11.96.72,21.67,1.7,31.07,2.64,18.63,1.87,37.89,3.8,74.88,3.8,37,0,56.25-1.93,74.88-3.8,9.39-.94,19.1-1.92,31.07-2.64,6.48-.39,13.09-.68,20.22-.88,8.06-.23,16.96-.34,26.45-.34,11.76,0,22.78.37,32.77,1.09,8.83.64,17.02,1.56,25.05,2.81,14.82,2.3,26.85,5.42,38.48,8.44,23.07,5.98,46.93,12.16,92.76,12.16,45.83,0,69.69-6.18,92.76-12.16,11.63-3.01,23.66-6.13,38.48-8.44,8.03-1.25,16.22-2.17,25.05-2.81,9.65-.7,20.26-1.07,31.57-1.09h0c.15,0,.3,0,.45,0,.25,0,.5,0,.75,0h0c13.7.04,26.56.78,38.24,2.18,10.63,1.28,20.49,3.12,30.15,5.61,17.84,4.61,32.32,10.84,46.32,16.87,27.77,11.96,56.49,24.32,111.65,24.32,55.16,0,83.88-12.36,111.65-24.32,14-6.03,28.48-12.26,46.32-16.87,9.66-2.5,19.52-4.33,30.15-5.61,12.02-1.45,25.29-2.18,39.44-2.18"/>
  <path class="cls-7" d="m1779.01,122.78c-7.57,0-886.51-.09-892.94-.26-5.68-.15-10.96-.37-16.13-.67-9.54-.55-17.29-1.3-24.78-2.02-14.86-1.43-30.22-2.91-59.73-2.91-29.51,0-44.87,1.48-59.73,2.91-7.49.72-15.24,1.47-24.78,2.02-5.17.3-10.44.52-16.13.67-6.43.17-13.53.26-21.1.26-9.38,0-18.17-.28-26.14-.84-7.04-.49-13.58-1.19-19.98-2.15-11.82-1.76-21.42-4.15-30.7-6.46-18.4-4.58-37.43-9.31-73.99-9.31-36.56,0-55.59,4.73-73.99,9.31-9.28,2.31-18.88,4.7-30.7,6.46-6.4.96-12.94,1.66-19.98,2.15-7.69.54-16.16.82-25.18.83h0c-.12,0-.24,0-.36,0-.2,0-.4,0-.6,0h0c-10.93-.03-21.19-.59-30.51-1.67-8.48-.98-16.34-2.39-24.05-4.3-14.23-3.53-25.78-8.3-36.95-12.92-22.15-9.16-45.06-18.63-89.06-18.63s-66.9,9.47-89.06,18.63c-11.17,4.62-22.72,9.39-36.95,12.92-7.71,1.91-15.57,3.32-24.05,4.3-9.59,1.11-20.17,1.67-31.46,1.67"/>
</svg>