<?xml version="1.0" encoding="UTF-8"?>
<svg id="Layer_2" data-name="Layer 2" xmlns="http://www.w3.org/2000/svg" viewBox="0 0 919.71 200.93">
  <defs>
    <style>
      .cls-1 {
        stroke: #ffd647;
        stroke-width: 6px;
      }

      .cls-1, .cls-2, .cls-3 {
        fill: none;
        stroke-miterlimit: 10;
      }

      .cls-2 {
        stroke: #00b6af;
        stroke-width: 5px;
      }

      .cls-3 {
        stroke: #5565ea;
        stroke-width: 4px;
      }
    </style>
  </defs>
  <g id="Layer_1-2" data-name="Layer 1">
    <path class="cls-2" d="M.12,120.72c8.76-.4,17.96-.6,27.65-.6,94.62,0,142.68,19.91,189.16,39.17,45.86,19,93.28,38.64,186.49,38.64"/>
    <path class="cls-3" d="M403.42,197.93c-92.74,0-137.92-34.63-185.77-71.3C171.05,90.91,122.86,53.98,27.77,53.98c-8.95,0-19.45-.27-27.65,0"/>
    <path class="cls-1" d="M919.71,197.93c-1.1,0-518.49,0-519.59-.02-40.07-.51-74.9-10.29-106.41-29.87-29.03-18.04-52.77-42.63-75.73-66.41C171.35,53.33,122.77,11.74,27.77,3.4c-7.99-.7-19.45-.32-27.65,0"/>
  </g>
</svg>