<?xml version="1.0" encoding="UTF-8"?>
<svg id="Layer_2" data-name="Layer 2" xmlns="http://www.w3.org/2000/svg" viewBox="0 0 400 102.89">
  <defs>
    <style>
      .cls-1 {
        stroke: #5e69ff;
        stroke-width: 5px;
      }

      .cls-1, .cls-2, .cls-3 {
        fill: none;
        stroke-miterlimit: 10;
      }

      .cls-2 {
        stroke: #18465e;
      }

      .cls-2, .cls-3 {
        stroke-width: 4px;
      }

      .cls-3 {
        stroke: #00b6af;
      }
    </style>
  </defs>
  <g id="Layer_1-2" data-name="Layer 1">
    <path class="cls-1" d="M400,100.33c-3.34,0-6.47-.23-9.3-.68-2.51-.4-4.83-.97-7.11-1.75-4.21-1.44-7.62-3.39-10.93-5.27-6.55-3.74-13.32-7.6-26.34-7.6s-19.79,3.86-26.34,7.6c-3.3,1.88-6.72,3.83-10.93,5.27-2.28.78-4.61,1.35-7.11,1.75-2.84.45-5.97.68-9.3.68-4.14,0-8.01-.73-11.53-2.18-3.11-1.28-5.99-3.11-8.81-5.6-5.21-4.6-9.44-10.83-13.54-16.85-8.12-11.94-16.51-24.29-32.62-24.29s-24.51,12.35-32.62,24.29c-4.09,6.02-8.32,12.25-13.54,16.85-2.82,2.49-5.7,4.33-8.81,5.6-3.39,1.4-7.13,2.13-11.1,2.18h-.42c-4.82-.09-9.34-1.55-13.45-4.36-3.74-2.56-7.21-6.23-10.6-11.21-6.27-9.2-11.37-21.65-16.29-33.69C109.54,27.19,99.44,2.5,80.04,2.5s-29.5,24.69-39.27,48.57c-4.93,12.04-10.02,24.49-16.29,33.69-3.4,4.98-6.87,8.65-10.6,11.21-4.24,2.89-8.9,4.36-13.88,4.36"/>
    <path class="cls-3" d="M400,100.89c-3.34,0-6.47-.15-9.3-.46-2.51-.27-4.83-.65-7.11-1.18-4.21-.97-7.62-2.28-10.93-3.54-6.55-2.51-13.32-5.1-26.34-5.1s-19.79,2.6-26.34,5.1c-3.3,1.27-6.72,2.57-10.93,3.54-2.28.52-4.61.91-7.11,1.18-2.84.3-5.97.46-9.3.46-4.14,0-8.01-.49-11.53-1.47-3.11-.86-5.99-2.09-8.81-3.77-5.21-3.09-9.44-7.27-13.54-11.32-8.12-8.02-16.51-16.32-32.62-16.32s-24.51,8.3-32.62,16.32c-4.09,4.04-8.32,8.23-13.54,11.32-2.82,1.67-5.7,2.91-8.81,3.77-3.39.94-7.13,1.43-11.1,1.46h-.42c-4.82-.06-9.34-1.04-13.45-2.93-3.74-1.72-7.21-4.18-10.6-7.53-6.27-6.18-11.37-14.55-16.29-22.64-9.77-16.04-19.87-32.63-39.27-32.63s-29.5,16.59-39.27,32.63c-4.93,8.09-10.02,16.46-16.29,22.64-3.4,3.35-6.87,5.81-10.6,7.53-4.23,1.94-8.9,2.93-13.87,2.93"/>
    <path class="cls-2" d="M400,100.89c-3.34,0-6.47-.08-9.3-.23-2.51-.13-4.83-.33-7.11-.59-4.21-.48-7.62-1.14-10.93-1.77-6.55-1.25-13.32-2.55-26.34-2.55s-19.79,1.3-26.34,2.55c-3.3.63-6.72,1.29-10.93,1.77-2.28.26-4.61.45-7.11.59-2.84.15-5.97.23-9.3.23-4.14,0-8.01-.25-11.53-.73-3.11-.43-5.99-1.05-8.81-1.88-5.21-1.55-9.44-3.64-13.54-5.66-8.12-4.01-16.51-8.16-32.62-8.16s-24.51,4.15-32.62,8.16c-4.09,2.02-8.32,4.11-13.54,5.66-2.82.84-5.7,1.45-8.81,1.88-3.39.47-7.13.71-11.1.73h-.42c-4.82-.03-9.34-.52-13.45-1.47-3.74-.86-7.21-2.09-10.6-3.77-6.27-3.09-11.37-7.27-16.29-11.32-9.77-8.02-19.87-16.32-39.27-16.32s-29.5,8.3-39.27,16.32c-4.93,4.04-10.02,8.23-16.29,11.32-3.4,1.67-6.87,2.91-10.6,3.77-4.23.97-8.9,1.47-13.87,1.47"/>
  </g>
</svg>