<?xml version="1.0" encoding="UTF-8"?>
<svg id="Layer_2" data-name="Layer 2" xmlns="http://www.w3.org/2000/svg" viewBox="0 0 1779.03 118.84">
  <defs>
    <style>
      .cls-1 {
        stroke: #00b6af;
        stroke-width: 6px;
      }

      .cls-1, .cls-2, .cls-3 {
        fill: none;
        stroke-miterlimit: 10;
      }

      .cls-2 {
        stroke: #ffd647;
        stroke-width: 5px;
      }

      .cls-3 {
        stroke: #5e69ff;
        stroke-width: 8px;
      }
    </style>
  </defs>
  <g id="Layer_2-2" data-name="Layer 2">
    <path class="cls-2" d="M907.19,114.2c-7.57,0-14.67-.26-21.1-.78-5.68-.46-10.96-1.11-16.13-2-9.54-1.64-17.29-3.87-24.78-6.02-14.86-4.26-30.22-8.67-59.73-8.67s-44.87,4.41-59.73,8.67c-7.49,2.15-15.24,4.37-24.78,6.02-5.17.89-10.44,1.54-16.13,2-6.43.52-13.53.78-21.1.78-9.38,0-18.17-.84-26.14-2.49-7.04-1.46-13.58-3.55-19.98-6.4-11.82-5.25-21.42-12.36-30.7-19.23-18.4-13.63-37.43-27.72-73.99-27.72s-55.59,14.09-73.99,27.72c-9.28,6.87-18.88,13.98-30.7,19.23-6.4,2.84-12.94,4.94-19.98,6.4-7.69,1.6-16.16,2.43-25.18,2.48h-.96c-10.93-.1-21.19-1.77-30.51-4.98-8.48-2.92-16.34-7.11-24.05-12.8-14.23-10.51-25.78-24.72-36.95-38.46C248.43,30.69,225.52,2.5,181.52,2.5s-66.9,28.19-89.06,55.45c-11.17,13.75-22.72,27.96-36.95,38.46-7.71,5.69-15.57,9.88-24.05,12.8-9.57,3.31-20.15,4.99-31.44,4.99"/>
    <path class="cls-1" d="M907.19,114.84c-7.57,0-14.67-.18-21.1-.52-5.68-.31-10.96-.75-16.13-1.34-9.54-1.1-17.29-2.6-24.78-4.04-14.86-2.86-30.22-5.83-59.73-5.83s-44.87,2.96-59.73,5.83c-7.49,1.44-15.24,2.94-24.78,4.04-5.17.6-10.44,1.04-16.13,1.34-6.43.35-13.53.52-21.1.52-9.38,0-18.17-.56-26.14-1.67-7.04-.98-13.58-2.39-19.98-4.3-11.82-3.53-21.42-8.3-30.7-12.92-18.4-9.16-37.43-18.63-73.99-18.63s-55.59,9.47-73.99,18.63c-9.28,4.62-18.88,9.39-30.7,12.92-6.4,1.91-12.94,3.32-19.98,4.3-7.69,1.07-16.16,1.63-25.18,1.67h-.96c-10.93-.07-21.19-1.19-30.51-3.35-8.48-1.96-16.34-4.77-24.05-8.6-14.23-7.06-25.78-16.61-36.95-25.84-22.15-18.31-45.06-37.25-89.06-37.25s-66.9,18.94-89.06,37.25c-11.17,9.23-22.72,18.78-36.95,25.84-7.71,3.82-15.57,6.64-24.05,8.6-9.57,2.23-20.15,3.35-31.44,3.35"/>
    <path class="cls-3" d="M1779.03,114.84c-7.57,0-886.51-.09-892.94-.26-5.68-.15-10.96-.37-16.13-.67-9.54-.55-17.29-1.3-24.78-2.02-14.86-1.43-30.22-2.91-59.73-2.91s-44.87,1.48-59.73,2.91c-7.49.72-15.24,1.47-24.78,2.02-5.17.3-10.44.52-16.13.67-6.43.17-13.53.26-21.1.26-9.38,0-18.17-.28-26.14-.84-7.04-.49-13.58-1.19-19.98-2.15-11.82-1.76-21.42-4.15-30.7-6.46-18.4-4.58-37.43-9.31-73.99-9.31s-55.59,4.73-73.99,9.31c-9.28,2.31-18.88,4.7-30.7,6.46-6.4.96-12.94,1.66-19.98,2.15-7.69.54-16.16.82-25.18.83h-.96c-10.93-.03-21.19-.59-30.51-1.67-8.48-.98-16.34-2.39-24.05-4.3-14.23-3.53-25.78-8.3-36.95-12.92-22.15-9.16-45.06-18.63-89.06-18.63s-66.9,9.47-89.06,18.63c-11.17,4.62-22.72,9.39-36.95,12.92-7.71,1.91-15.57,3.32-24.05,4.3-9.59,1.11-20.17,1.67-31.46,1.67"/>
  </g>
</svg>