<?xml version="1.0" encoding="UTF-8"?>
<svg id="Layer_2" data-name="Layer 2" xmlns="http://www.w3.org/2000/svg" viewBox="0 0 399.99 103.67">
  <defs>
    <style>
      .cls-1 {
        stroke: #f77c47;
        stroke-width: 2px;
      }

      .cls-1, .cls-2 {
        fill: none;
        stroke-miterlimit: 10;
      }

      .cls-2 {
        stroke: #a06b87;
        stroke-width: 4px;
      }
    </style>
  </defs>
  <g id="Layer_1-2" data-name="Layer 1">
    <path class="cls-1" d="M0,4.84c3.34,0,6.47.23,9.3.68,2.51.4,4.83.97,7.11,1.75,4.21,1.44,7.62,3.39,10.93,5.27,6.55,3.74,13.32,7.6,26.34,7.6s19.79-3.86,26.34-7.6c3.3-1.88,6.72-3.83,10.93-5.27,2.28-.78,4.61-1.35,7.11-1.75,2.84-.45,5.97-.68,9.3-.68,4.14,0,8.01.73,11.53,2.18,3.11,1.28,5.99,3.11,8.81,5.6,5.21,4.6,9.44,10.83,13.54,16.85,8.12,11.94,16.51,24.29,32.62,24.29s24.51-12.35,32.62-24.29c4.09-6.02,8.32-12.25,13.54-16.85,2.82-2.49,5.7-4.33,8.81-5.6,3.39-1.4,7.13-2.13,11.1-2.18h.42c4.82.09,9.34,1.55,13.45,4.36,3.74,2.56,7.21,6.23,10.6,11.21,6.27,9.2,11.37,21.65,16.29,33.69,9.77,23.88,19.87,48.57,39.27,48.57s29.5-24.69,39.27-48.57c4.93-12.04,10.02-24.49,16.29-33.69,3.4-4.98,6.87-8.65,10.6-11.21,4.23-2.89,8.9-4.36,13.87-4.36"/>
    <path class="cls-2" d="M0,2c3.34,0,6.47.15,9.3.46,2.51.27,4.83.65,7.11,1.18,4.21.97,7.62,2.28,10.93,3.54,6.55,2.51,13.32,5.1,26.34,5.1s19.79-2.6,26.34-5.1c3.3-1.27,6.72-2.57,10.93-3.54,2.28-.52,4.61-.91,7.11-1.18,2.84-.3,5.97-.46,9.3-.46,4.14,0,8.01.49,11.53,1.47,3.11.86,5.99,2.09,8.81,3.77,5.21,3.09,9.44,7.27,13.54,11.32,8.12,8.02,16.51,16.32,32.62,16.32s24.51-8.3,32.62-16.32c4.09-4.04,8.32-8.23,13.54-11.32,2.82-1.67,5.7-2.91,8.81-3.77,3.39-.94,7.13-1.43,11.1-1.46h.42c4.82.06,9.34,1.04,13.45,2.93,3.74,1.72,7.21,4.18,10.6,7.53,6.27,6.18,11.37,14.55,16.29,22.64,9.77,16.04,19.87,32.63,39.27,32.63s29.5-16.59,39.27-32.63c4.93-8.09,10.02-16.46,16.29-22.64,3.4-3.35,6.87-5.81,10.6-7.53,4.23-1.94,8.9-2.93,13.87-2.93"/>
  </g>
</svg>