<?xml version="1.0" encoding="UTF-8"?>
<svg id="Layer_2" data-name="Layer 2" xmlns="http://www.w3.org/2000/svg" viewBox="0 0 403.39 198.53">
  <defs>
    <style>
      .cls-1 {
        stroke: #5565ea;
        stroke-width: 3px;
      }

      .cls-1, .cls-2, .cls-3 {
        fill: none;
        stroke-miterlimit: 10;
      }

      .cls-2 {
        stroke: #ffd647;
      }

      .cls-2, .cls-3 {
        stroke-width: 4px;
      }

      .cls-3 {
        stroke: #00b6af;
      }
    </style>
  </defs>
  <g id="Layer_1-2" data-name="Layer 1">
    <path class="cls-3" d="M.09,119.32c8.76-.4,17.96-.6,27.65-.6,94.62,0,142.68,19.91,189.16,39.17,45.86,19,93.28,38.64,186.49,38.64"/>
    <path class="cls-1" d="M403.39,196.53c-92.74,0-137.92-34.63-185.77-71.3C171.02,89.51,122.83,52.58,27.74,52.58c-8.95,0-17.49.33-25.65.95"/>
    <path class="cls-2" d="M403.39,196.53c-41.46,0-77.34-9.78-109.71-29.89-29.03-18.04-52.77-42.63-75.73-66.41C171.32,51.94,123.1,2,27.74,2c-8.28,0-16.21.38-23.81,1.1"/>
  </g>
</svg>