<svg width="984.399" height="400.253" viewBox="0 0 260.455 105.9" version="1.1" id="svg1" xmlns="http://www.w3.org/2000/svg" xmlns:svg="http://www.w3.org/2000/svg"><defs id="defs1"><rect x="100.031" y="62.747" width="400.359" height="186.987" id="rect2"/></defs><g id="layer1" transform="translate(-38.808105,-48.407806)"><g id="g2" transform="rotate(-2.25,169.03583,101.35801)"><rect style="font-variation-settings:'wght' 300" id="rect1" width="258" height="97" x="40.036" y="52.858" ry="14.998" rx="14.998" fill="#fff" stroke-width=".265" stroke-linecap="round" stroke="none"/><g id="text1" style="line-height:0" transform="matrix(0.46791441,0,0,0.46791441,22.870406,40.554355)" aria-label="THE PEOPLE'S BID FOR TIKTOK" font-size="64px" white-space="pre" stroke-width="0.565452"><path style="line-height:1.15;-inkscape-font-specification:'Bebas Neue'" d="m 108.15925,115.54609 h 7.04 V 77.146093 h 7.36 v -6.4 h -21.76 v 6.4 h 7.36 z m 17.79202,0 h 7.04 V 95.386093 h 7.552 v 20.159997 h 7.04 V 70.746093 h -7.04 v 18.24 h -7.552 v -18.24 h -7.04 z m 26.88001,0 h 19.2 v -6.4 h -12.16 V 95.386093 h 9.664 v -6.4 h -9.664 v -11.84 h 12.16 v -6.4 h -19.2 z m 33.47204,0 h 7.04 V 97.306093 h 3.328 c 7.04,0 10.496,-3.904 10.496,-11.072 v -4.416 c 0,-7.168 -3.456,-11.072 -10.496,-11.072 h -10.368 z m 7.04,-24.639997 v -13.76 h 3.328 c 2.24,0 3.456,1.024 3.456,4.224 v 5.312 c 0,3.2 -1.216,4.224 -3.456,4.224 z m 17.66398,24.639997 h 19.2 v -6.4 h -12.16 V 95.386093 h 9.664 v -6.4 h -9.664 v -11.84 h 12.16 v -6.4 h -19.2 z m 33.40806,0.64 c 6.912,0 10.688,-4.096 10.688,-11.264 V 81.370093 c 0,-7.168 -3.776,-11.264 -10.688,-11.264 -6.912,0 -10.688,4.096 -10.688,11.264 v 23.551997 c 0,7.168 3.776,11.264 10.688,11.264 z m 0,-6.4 c -2.24,0 -3.648,-1.216 -3.648,-4.416 V 80.922093 c 0,-3.2 1.408,-4.416 3.648,-4.416 2.24,0 3.648,1.216 3.648,4.416 v 24.447997 c 0,3.2 -1.408,4.416 -3.648,4.416 z m 15.42397,5.76 h 7.04 V 97.306093 h 3.328 c 7.04,0 10.496,-3.904 10.496,-11.072 v -4.416 c 0,-7.168 -3.456,-11.072 -10.496,-11.072 h -10.368 z m 7.04,-24.639997 v -13.76 h 3.328 c 2.24,0 3.456,1.024 3.456,4.224 v 5.312 c 0,3.2 -1.216,4.224 -3.456,4.224 z m 17.66398,24.639997 h 18.624 v -6.4 h -11.584 V 70.746093 h -7.04 z m 22.01599,0 h 19.2 v -6.4 h -12.16 V 95.386093 h 9.664 v -6.4 h -9.664 v -11.84 h 12.16 v -6.4 h -19.2 z m 24.70406,-30.335997 h 3.776 l 1.728,-14.464 h -7.168 z m 19.71198,30.975997 c 6.912,0 10.624,-4.096 10.624,-11.392 0,-5.567997 -1.856,-9.151997 -7.744,-14.335997 -4.608,-4.032 -6.08,-6.4 -6.08,-9.664 0,-3.072 1.28,-4.288 3.52,-4.288 2.24,0 3.52,1.216 3.52,4.416 v 2.304 h 6.656 v -1.856 c 0,-7.168 -3.392,-11.264 -10.24,-11.264 -6.848,0 -10.496,4.096 -10.496,11.136 0,5.12 1.92,8.768 7.808,13.952 4.608,4.032 6.016,6.399997 6.016,10.111997 0,3.328 -1.408,4.48 -3.648,4.48 -2.24,0 -3.648,-1.152 -3.648,-4.352 v -3.072 h -6.656 v 2.56 c 0,7.168 3.456,11.264 10.368,11.264 z m 24.89597,-0.64 h 11.072 c 7.04,0 10.688,-3.712 10.688,-10.624 v -3.84 c 0,-4.735997 -1.472,-8.063997 -5.248,-9.343997 v -0.128 c 3.136,-1.28 4.544,-4.16 4.544,-8.768 v -1.792 c 0,-6.912 -3.136,-10.304 -10.432,-10.304 h -10.624 z m 7.04,-26.559997 v -11.84 h 3.392 c 2.496,0 3.584,1.408 3.584,4.608 v 2.496 c 0,3.584 -1.6,4.736 -4.224,4.736 z m 0,20.159997 V 95.386093 h 3.136 c 3.2,0 4.544,1.28 4.544,5.439997 v 3.904 c 0,3.328 -1.28,4.416 -3.648,4.416 z m 18.81596,6.4 h 7.04 V 70.746093 h -7.04 z m 12.28797,0 h 10.752 c 7.04,0 10.496,-3.904 10.496,-11.072 V 81.818093 c 0,-7.168 -3.456,-11.072 -10.496,-11.072 h -10.752 z m 7.04,-6.4 V 77.146093 h 3.584 c 2.24,0 3.584,1.152 3.584,4.352 v 23.295997 c 0,3.2 -1.344,4.352 -3.584,4.352 z" id="path1" font-family="Bebas Neue" fill="#ea635a"/><path style="line-height:1.15;-inkscape-font-specification:'Bebas Neue'" d="m 102.65525,189.1461 h 7.04 v -19.52 h 9.088 v -6.4 h -9.088 v -12.48 h 11.584 v -6.4 h -18.624 z m 32.19199,0.64 c 6.912,0 10.688,-4.096 10.688,-11.264 v -23.552 c 0,-7.168 -3.776,-11.264 -10.688,-11.264 -6.912,0 -10.688,4.096 -10.688,11.264 v 23.552 c 0,7.168 3.776,11.264 10.688,11.264 z m 0,-6.4 c -2.24,0 -3.648,-1.216 -3.648,-4.416 v -24.448 c 0,-3.2 1.408,-4.416 3.648,-4.416 2.24,0 3.648,1.216 3.648,4.416 v 24.448 c 0,3.2 -1.408,4.416 -3.648,4.416 z m 15.42398,5.76 h 7.04 v -19.2 h 2.432 c 3.2,0 4.416,1.344 4.416,5.504 v 8.192 c 0,3.648 0.256,4.352 0.64,5.504 h 7.168 c -0.704,-1.664 -0.768,-3.264 -0.768,-5.44 v -7.872 c 0,-5.056 -1.152,-8.384 -4.672,-9.472 v -0.128 c 3.136,-1.28 4.608,-4.224 4.608,-8.832 v -2.752 c 0,-6.912 -3.136,-10.304 -10.432,-10.304 h -10.432 z m 7.04,-25.6 v -12.8 h 3.2 c 2.496,0 3.584,1.408 3.584,4.608 v 3.456 c 0,3.584 -1.6,4.736 -4.224,4.736 z m 34.49598,25.6 h 7.04 v -38.4 h 7.36 v -6.4 h -21.76 v 6.4 h 7.36 z m 17.79202,0 h 7.04 v -44.8 h -7.04 z m 12.28796,0 h 7.04 v -14.272 l 2.816,-5.696 5.952,19.968 h 7.36 l -8.512,-28.352 8.384,-16.448 h -7.04 l -8.96,18.88 v -18.88 h -7.04 z m 31.99998,0 h 7.04 v -38.4 h 7.36 v -6.4 h -21.76 v 6.4 h 7.36 z m 27.71203,0.64 c 6.912,0 10.688,-4.096 10.688,-11.264 v -23.552 c 0,-7.168 -3.776,-11.264 -10.688,-11.264 -6.912,0 -10.688,4.096 -10.688,11.264 v 23.552 c 0,7.168 3.776,11.264 10.688,11.264 z m 0,-6.4 c -2.24,0 -3.648,-1.216 -3.648,-4.416 v -24.448 c 0,-3.2 1.408,-4.416 3.648,-4.416 2.24,0 3.648,1.216 3.648,4.416 v 24.448 c 0,3.2 -1.408,4.416 -3.648,4.416 z m 15.42398,5.76 h 7.04 v -14.272 l 2.816,-5.696 5.952,19.968 h 7.36 l -8.512,-28.352 8.384,-16.448 h -7.04 l -8.96,18.88 v -18.88 h -7.04 z" id="path2" font-family="Bebas Neue" fill="#ea635a"/></g></g></g></svg>