<svg fill="none" viewBox="0 0 1436 284.5" xmlns="http://www.w3.org/2000/svg"><g stroke-miterlimit="10"><path d="m0 36c11.9909 0 23.2279.57598 33.3878 1.70294 9.0112 1.00173 17.3402 2.42921 25.5256 4.3826 15.1143 3.60626 27.3565 8.48976 39.2397 13.19796 23.5149 9.3662 47.8199 19.0329 94.5629 19.0329 46.707 0 71.048-9.6667 94.563-19.0329 11.847-4.7082 24.125-9.5917 39.24-13.19796 8.185-1.95339 16.55-3.38087 25.525-4.3826 10.196-1.12696 21.433-1.70294 33.388-1.70294 14.863 0 28.757 1.82815 41.394 5.45945 11.165 3.20556 21.504 7.78855 31.628 14.02435 18.705 11.52 33.891 27.1221 48.61 42.1982 29.152 29.9019 59.273 60.831 117.109 60.831 57.872 0 87.993-30.9291 117.109-60.831 14.683-15.0761 29.869-30.6782 48.61-42.1982 10.124-6.2358 20.463-10.84383 31.628-14.02435 12.171-3.50608 25.598-5.33423 39.85-5.45945h.575.933c17.304.22539 33.532 3.88177 48.287 10.919 13.427 6.4111 25.884 15.602 38.055 28.0737 22.51 23.0399 40.819 54.219 58.48 84.3713 35.08 59.804 71.34 121.636 140.99 121.636 69.64 0 105.9-61.832 140.98-121.636 17.7-30.1523 35.97-61.3314 58.48-84.3713 12.21-12.4717 24.66-21.6626 38.06-28.0737 15.18-7.23757 31.95-10.919 49.79-10.919" stroke="#f77c47" stroke-width="2"/><path d="m1436 206.5c-11.99 0-23.23-.48-33.39-1.418-9.01-.834-17.34-2.023-25.52-3.649-15.12-3.003-27.36-7.069-39.24-10.989-23.52-7.799-47.82-15.848-94.56-15.848s-71.05 8.049-94.56 15.848c-11.85 3.92-24.13 7.986-39.24 10.989-8.19 1.626-16.55 2.815-25.53 3.649-10.19.938-21.43 1.418-33.38 1.418-14.86 0-28.76-1.522-41.4-4.546-11.16-2.669-21.499-6.485-31.623-11.677-18.704-9.592-33.89-22.584-48.609-35.137-29.15-24.898-59.271-50.65-117.105-50.65-57.871 0-87.991 25.752-117.106 50.65-14.683 12.553-29.869 25.545-48.609 35.137-10.124 5.192-20.463 9.029-31.628 11.677-12.17 2.92-25.596 4.442-39.849 4.546-.179 0-.395 0-.574 0-.323 0-.646 0-.934 0-17.303-.188-33.53-3.232-48.285-9.092-13.427-5.338-25.884-12.991-38.054-23.375-22.509-19.185-40.818-45.146-58.481-70.252-35.074-49.7962-71.333-101.281-140.979-101.281s-105.905 51.4848-140.98 101.281c-17.698 25.106-35.972 51.067-58.4808 70.252-12.206 10.384-24.6633 18.037-38.054 23.375-15.2216 6.027-31.951 9.092-49.8292 9.092" stroke="#5e69ff" stroke-width="5"/></g></svg>
