<svg width="22" height="24" viewBox="0 0 22 24" fill="none" xmlns="http://www.w3.org/2000/svg">
<g clip-path="url(#clip0_2304_2137)">
<path d="M11.0492 2.73903C10.9793 2.77682 10.9007 2.79835 10.8215 2.79917C8.82494 2.84922 5.90384 4.28259 4.91954 5.69296C4.76119 5.92056 4.44794 5.97967 4.22041 5.8242C3.99289 5.66873 3.93617 5.35776 4.09452 5.13017C5.2473 3.48147 8.5119 1.87801 10.7976 1.80289C11.0747 1.79485 11.3059 2.00616 11.3116 2.28167C11.319 2.47212 11.2135 2.65011 11.0451 2.74125L11.0492 2.73903Z" fill="#F77C47"/>
<path d="M16.2778 8.37776C16.1134 8.46668 15.9171 8.45725 15.7621 8.35719C13.903 7.13973 11.4228 6.97318 9.13851 7.91479C6.75727 8.89311 5.02387 10.8823 4.61116 13.1134C4.55623 13.3849 4.29225 13.5646 4.01966 13.5123C3.75339 13.4619 3.57532 13.2113 3.62203 12.9443C4.09423 10.3813 6.06346 8.10164 8.76222 6.99357C11.358 5.93072 14.1831 6.12614 16.3205 7.52416C16.5499 7.67334 16.6129 7.98615 16.4609 8.21559C16.4128 8.28369 16.3517 8.33774 16.2778 8.37776Z" fill="#F77C47"/>
<path d="M10.0219 4.17793C7.08275 4.82212 4.32396 6.76161 3.2751 8.91649C3.27129 8.92907 3.26116 8.9398 3.25735 8.95238C3.14564 9.2073 3.26237 9.50156 3.51558 9.60634C3.77099 9.71518 4.06797 9.59655 4.17556 9.34385C5.13782 7.37249 7.83159 5.56804 10.5873 5.07567C10.5873 5.07567 11.0275 5.00571 10.9351 4.54056C10.8843 4.2895 10.6747 4.02973 10.0178 4.18015L10.0219 4.17793Z" fill="#F77C47"/>
<path d="M14.3291 4.27584C14.2995 4.26034 13.7075 4.04976 13.1136 3.99266C12.6949 3.93538 12.2856 3.91507 11.8942 3.93765C11.5235 3.95947 11.3743 4.21368 11.3986 4.48437C11.4251 4.75912 11.6664 4.9597 11.943 4.93094C12.5093 4.89784 13.1246 4.97489 13.7549 5.13847C13.8306 5.16058 13.9085 5.18676 13.9823 5.21516C14.2396 5.31772 14.5302 5.19724 14.6419 4.94232C14.7473 4.68556 14.6811 4.40604 14.3354 4.27769L14.3291 4.27584Z" fill="#F77C47"/>
<path d="M17.2932 16.2225C17.354 16.384 17.4108 16.5478 17.453 16.7142C17.7683 18.0626 16.9243 19.4181 15.5653 19.7434C14.2115 20.0292 12.8611 19.2513 12.4488 17.9396C11.9675 16.4707 12.0683 16.7946 11.9001 16.0026C11.8372 15.6214 12.1414 15.3885 12.4172 15.4074C12.8896 15.4462 12.8443 15.9122 13.4051 17.6061C13.6433 18.4391 14.4855 18.9453 15.3422 18.7814C16.1542 18.5838 16.663 17.7671 16.4714 16.9615C16.4714 16.9615 16.467 16.9533 16.4648 16.9493L16.3334 16.5788C16.0748 15.8358 17.0293 15.519 17.2868 16.2206L17.2932 16.2225Z" fill="#F77C47"/>
<path d="M16.6166 15.3744C16.5878 15.39 16.5549 15.4077 16.5218 15.4152C16.2571 15.4953 15.9797 15.3458 15.9036 15.0874C15.8942 15.0504 15.2056 12.8159 13.5388 11.9832C12.7541 11.5931 11.8568 11.574 10.8677 11.9252C9.92824 12.2601 9.27684 12.9016 8.92116 13.8247C8.28599 15.4877 8.78926 17.5859 9.09696 18.1448C9.22675 18.3847 9.13925 18.6843 8.89905 18.8195C8.89905 18.8195 8.89905 18.8195 8.89494 18.8218C8.65665 18.9507 8.35605 18.8663 8.22214 18.6286C7.78274 17.8362 7.23757 15.4347 7.98548 13.4795C8.44978 12.2664 9.30838 11.4286 10.5328 10.9921C11.7882 10.5441 12.9528 10.5763 13.9894 11.0982C16.0434 12.1261 16.8183 14.6871 16.8505 14.7958C16.9153 15.0235 16.8116 15.2636 16.6102 15.3726L16.6166 15.3744Z" fill="#F77C47"/>
<path d="M10.2547 15.7891C10.1758 15.8003 10.0953 15.8281 10.0298 15.874C9.62511 16.1666 9.90868 17.0539 9.96689 17.2694C10.151 18.0318 10.4802 18.9838 11.1634 19.844C11.2802 19.9911 11.4719 20.0608 11.6545 20.0251C11.7353 20.0077 11.8137 19.9758 11.8769 19.9258C12.0973 19.754 12.1321 19.4355 11.9613 19.2179C11.3063 18.4001 11.0342 17.4751 10.8888 16.7548C10.8617 16.6066 10.8342 16.3692 10.8156 16.2268C10.7827 15.9502 10.5291 15.7563 10.2528 15.7954L10.2547 15.7891Z" fill="#F77C47"/>
<path d="M11.2964 12.9338C10.6514 13.1356 9.91131 13.6623 9.65158 14.586C9.60034 14.7661 9.65386 14.9632 9.78676 15.091C9.8447 15.149 9.91878 15.1878 9.99448 15.2099C10.2635 15.2851 10.5448 15.1276 10.6187 14.8616C10.6413 14.7758 10.6548 14.6634 10.7809 14.4743C10.9671 14.2 11.2384 13.9849 11.5796 13.8792C12.4241 13.6535 13.2961 14.1068 13.5922 14.919C14.2622 16.5696 14.2028 16.607 14.2653 17.125C14.2981 17.4016 14.5476 17.5977 14.8261 17.5627C15.1046 17.5277 15.304 17.2778 15.2712 17.0012C15.1794 16.1837 15.1061 15.95 14.5236 14.5201C14.0225 13.2407 12.6268 12.5557 11.2901 12.932L11.2964 12.9338Z" fill="#F77C47"/>
<path d="M17.083 10.8278C15.4941 8.76505 12.0849 7.8239 9.65513 8.78119C8.38667 9.28356 7.61334 9.9648 7.50358 10.0662C7.49536 10.0707 7.10959 10.3688 7.44886 10.7897C7.62385 11.0051 7.94677 10.9933 8.15867 10.8156C8.23805 10.7464 8.31773 10.6875 8.39741 10.6286C8.67533 10.4257 9.11144 10.0635 10.0128 9.70724C12.0404 8.90974 14.9644 9.7297 16.2912 11.4455C16.4425 11.6369 16.7173 11.6932 16.9329 11.5713L16.9901 11.5298C17.2105 11.358 17.2497 11.0477 17.083 10.8278Z" fill="#F77C47"/>
<path d="M6.65866 11.2433C6.50664 11.3256 6.35709 11.5695 6.35929 11.5735C6.35929 11.5735 4.95403 13.8845 5.56876 16.9053C5.57316 16.9134 5.57346 16.9238 5.57155 16.9301C5.63752 17.1992 5.90891 17.3572 6.1802 17.2893C6.45149 17.2213 6.60237 16.9505 6.54682 16.6809C6.04714 14.2654 7.11651 12.2466 7.11651 12.2466C7.1485 12.1977 7.25419 11.9513 7.2856 11.8818C7.49182 11.4285 6.90928 11.1077 6.65866 11.2433Z" fill="#F77C47"/>
</g>
<defs>
<clipPath id="clip0_2304_2137">
<rect width="14" height="19" fill="white" transform="translate(0 6.66235) rotate(-28.4168)"/>
</clipPath>
</defs>
</svg>
